<?xml version="1.0" encoding="utf-8"?>
<!-- Generator: Adobe Illustrator 26.2.1, SVG Export Plug-In . SVG Version: 6.00 Build 0)  -->
<svg version="1.1" id="Layer_1" xmlns="http://www.w3.org/2000/svg" xmlns:xlink="http://www.w3.org/1999/xlink" x="0px" y="0px"
	 viewBox="0 0 200 200" style="enable-background:new 0 0 200 200;" xml:space="preserve">
<style type="text/css">
	.st0{fill:#001E61;}
	.st1{opacity:0.51;fill:#001E61;}
	.st2{fill:#FFFFFF;}
	.st3{fill:#C2902C;}
</style>
<g>
	<circle class="st0" cx="-340.79" cy="100" r="97.5"/>
	<ellipse class="st1" cx="-340.84" cy="142.92" rx="51.23" ry="20.97"/>
	<g>
		<path class="st2" d="M-298.24,58.74c-0.06-0.18-0.17-0.32-0.29-0.45c0-0.01-0.01-0.01-0.02-0.01c0-0.04,0.01-0.08,0.01-0.12
			c0.01-0.21,0.02-0.45,0.02-0.71v-5.66c0-0.28-0.05-0.55-0.16-0.79c-0.05-0.11-0.15-0.33-0.41-0.53c-0.25-0.2-0.6-0.34-1.03-0.41
			l-0.01,0.01c-0.15-0.04-0.32-0.07-0.5-0.09l-1.16-0.16c-1.56-0.21-3.12-0.42-4.67-0.64c-2.52-0.35-5.03-0.7-7.54-1.05
			c-4.45-0.62-8.9-1.24-13.41-1.85l-2.85-0.38c-4.04-0.55-8.22-1.11-12.11-1.49c-0.49-0.05-0.94-0.08-1.41-0.08
			c-0.28,0-0.56,0-0.88,0.02c-1.16,0.07-2.23,0.24-3.36,0.53l-6.38,1.64c-5.5,1.42-11.18,2.88-13.56,3.46
			c-2.32,0.56-6.29,1.59-10.24,2.61l-2.39,0.62c0,0-0.01,0-0.01,0c-0.65,0.1-1.2,0.28-1.62,0.54c-0.43,0.25-0.72,0.57-0.82,0.89
			c-0.08,0.24-0.11,0.49-0.11,0.77v5.76c0,0.26,0,0.49,0.02,0.7c-0.04,0.05-0.08,0.09-0.11,0.13c-0.09,0.15-0.13,0.29-0.15,0.39
			c-0.02,0.1-0.02,0.19-0.02,0.27c0.01,0.09,0.03,0.16,0.07,0.23c0.04,0.07,0.09,0.13,0.15,0.19c0.12,0.12,0.26,0.2,0.41,0.26
			c0.01,0.01,0.03,0.01,0.05,0.01v0.98c0,3.23,0,9.71,0,13.34v57.05c0,0.44,0.01,0.8,0.05,1.16c-0.02,0.04-0.05,0.08-0.06,0.12
			c-0.11,0.29-0.13,0.59-0.1,0.86c0.02,0.22,0.08,0.43,0.14,0.6c0.05,0.14,0.11,0.26,0.16,0.34c0.15,0.22,0.32,0.39,0.51,0.53
			c0.45,0.33,1.01,0.48,1.63,0.62c3.99,0.92,7.98,2,11.98,2.92c8.48,1.95,16.96,3.91,25.44,5.86c1.59,0.37,3.19,0.73,4.78,1.1
			c0.93,0.21,1.84,0.34,2.79,0.3c0.84-0.04,1.5-0.37,2.26-0.73c9-4.24,16.72-7.72,26.29-12.37c1.6-0.78,3.25-1.59,4.97-2.44
			c0.48-0.24,0.96-0.48,1.45-0.72c0.52-0.26,0.89-0.52,1.15-0.8c0.19-0.21,0.33-0.44,0.42-0.69c0.05-0.12,0.07-0.25,0.08-0.39
			c0.01-0.17-0.01-0.36-0.05-0.55c-0.03-0.13-0.09-0.26-0.13-0.39c0.01-0.06,0.02-0.11,0.03-0.18c0.04-0.43,0.04-0.92,0.04-1.47
			v-68.4c0.22-0.08,0.34-0.15,0.48-0.26c0.08-0.05,0.15-0.13,0.2-0.23c0.05-0.1,0.08-0.23,0.09-0.37
			C-298.16,59.03-298.18,58.88-298.24,58.74z"/>
		<path class="st0" d="M-380.33,54.07l2.36-0.61c3.95-1.02,7.92-2.05,10.23-2.61c2.38-0.58,8.07-2.04,13.57-3.46l6.38-1.64
			c1.07-0.28,2.09-0.44,3.19-0.5c0.29-0.02,0.56-0.02,0.83-0.02c0.45,0,0.87,0.03,1.33,0.07c3.87,0.38,8.05,0.95,12.08,1.49
			l2.85,0.38c4.51,0.6,8.96,1.22,13.41,1.84c2.51,0.35,5.02,0.7,7.54,1.05c1.55,0.21,3.11,0.43,4.67,0.64l0.68,0.09
			c-0.51,0.18-1.01,0.37-1.54,0.53l-7.9,2.41c-6.48,1.97-13.11,4-19.01,5.76c-0.11,0.03-0.37,0.12-0.72,0.23
			c-0.41,0.13-1.06,0.34-1.75,0.56l-0.86,0.26c-0.38,0.11-0.75,0.23-1.12,0.32c-0.34,0.09-0.67,0.17-0.98,0.21
			c-0.83,0.02-5.69-0.69-7.79-1.02l-37.14-5.84c-0.11-0.02-0.29-0.04-0.45-0.08C-380.43,54.11-380.38,54.09-380.33,54.07z"/>
		<path class="st0" d="M-382.27,55.43c0-0.18,0.02-0.35,0.07-0.5c0.02-0.06,0.14-0.23,0.44-0.4c0.03-0.02,0.06-0.03,0.09-0.05
			c0.1,0.14,0.23,0.26,0.4,0.34c0.26,0.12,0.59,0.18,1.22,0.28c3.59,0.6,7.17,1.15,10.64,1.68c1.68,0.26,3.33,0.51,4.95,0.77
			c4.53,0.71,9.06,1.43,13.6,2.15l13.77,2.17c0.38,0.06,0.8,0.11,1.3,0.11c0.22,0,0.47-0.01,0.73-0.04c0.01,0,0.02,0,0.02,0
			c0.01,0,0.02,0,0.03,0c0.01,0,0.01,0,0.02,0c0,0,0.01,0,0.01,0c0.47-0.04,1.56-0.34,3.11-0.83l12.06-3.63
			c1.49-0.45,14.7-4.43,19.39-5.97c0.36-0.12,0.59-0.27,0.68-0.41c0.04,0.02,0.07,0.04,0.1,0.06c0.09,0.08,0.13,0.15,0.16,0.21
			c0.06,0.13,0.09,0.27,0.09,0.43v5.66c0,0.24,0,0.45-0.01,0.64c-0.02,0.24-0.06,0.39-0.12,0.47c-0.1,0.12-0.33,0.21-1,0.42l-8,2.57
			l0,0.01c-6.89,2.19-13.69,4.41-20.15,6.37c-0.52,0.16-1.03,0.31-1.54,0.47c-0.54,0.16-1.09,0.32-1.63,0.48
			c-0.78,0.23-1.62,0.41-2.44,0.44c-0.97,0.03-1.83-0.05-2.78-0.2c-2.15-0.34-3.3-0.52-4.95-0.78c-3.76-0.59-7.52-1.18-11.29-1.77
			c-5.02-0.79-10.05-1.58-15.07-2.37c-4.14-0.65-8.28-1.3-12.41-1.95c-0.4-0.06-0.79-0.12-1.15-0.18c-0.11-0.02-0.21-0.04-0.3-0.06
			c-0.01-0.05-0.02-0.11-0.03-0.19c-0.02-0.19-0.02-0.4-0.02-0.64V55.43z"/>
		<path class="st0" d="M-299.8,60.31v68.11c0,0.51,0,0.98-0.03,1.39c-0.03,0.33-0.08,0.6-0.17,0.8c-0.17,0.43-0.45,0.8-1.34,1.24
			l-1.89,0.94c-1.86,0.91-3.64,1.79-5.37,2.62c-4.21,2.05-8.02,3.84-11.83,5.62c-4.17,1.92-8.3,3.79-12.74,5.88
			c-0.75,0.35-1.44,0.71-2.29,0.76c-0.94,0.05-1.82-0.08-2.75-0.3c-1.59-0.36-3.18-0.73-4.77-1.09c-8.48-1.96-16.97-3.88-25.45-5.82
			c-3.99-0.93-8-1.96-11.98-2.9c-0.26-0.07-0.5-0.15-0.71-0.23c-0.12-0.1-0.22-0.2-0.3-0.31c-0.18-0.33-0.3-0.61-0.36-0.94
			c-0.07-0.38-0.07-0.8-0.07-1.33V63.56c0.35,0.07,0.71,0.12,1.08,0.18c4.13,0.66,8.27,1.34,12.41,2
			c5.02,0.81,10.04,1.62,15.06,2.45c3.76,0.61,7.52,1.23,11.3,1.82c1.64,0.27,3.3,0.53,4.95,0.8c0.94,0.17,1.81,0.2,2.77,0.15
			c0.83-0.02,1.66-0.15,2.45-0.38c0.61-0.18,1.21-0.36,1.81-0.55c0.56-0.18,1.13-0.35,1.69-0.51
			C-318.44,66.46-309.61,63.46-299.8,60.31z"/>
		<path class="st3" d="M-299.8,88v40.43c0,0.51,0,0.98-0.03,1.39c-0.03,0.33-0.08,0.6-0.17,0.8c-0.17,0.43-0.45,0.8-1.34,1.24
			l-1.89,0.94c-1.86,0.91-3.64,1.79-5.37,2.62c-4.21,2.05-8.02,3.84-11.83,5.62c-4.17,1.92-8.3,3.79-12.74,5.88
			c-0.75,0.35-1.44,0.71-2.29,0.76c-0.94,0.05-1.82-0.08-2.75-0.3c-1.59-0.36-3.18-0.73-4.77-1.09c-8.48-1.96-16.97-3.88-25.45-5.82
			c-3.99-0.93-8-1.96-11.98-2.9c-0.26-0.07-0.5-0.15-0.71-0.23c-0.12-0.1-0.22-0.2-0.3-0.31c-0.18-0.33-0.3-0.61-0.36-0.94
			c-0.07-0.38-0.07-0.8-0.07-1.33V91.21c3.08,0.66,31.2,6.73,39.12,7.97c1.04,0.17,6.96,0.88,7.89,0.84
			c0.78-0.03,1.81-0.33,2.55-0.55C-331.73,99.31-304.23,89.57-299.8,88z"/>
		
			<ellipse transform="matrix(0.222 -0.9751 0.9751 0.222 -374.0014 -277.2644)" class="st3" cx="-360.74" cy="95.72" rx="10.52" ry="14.03"/>
	</g>
</g>
<g>
	<circle class="st0" cx="-560" cy="100" r="97.92"/>
	<path class="st1" d="M-484.04,78.19h1.96v-5.46c0-1.81-1.47-3.29-3.28-3.32l-47.41,0c-0.89-0.01-1.74,0.33-2.37,0.96
		c-0.64,0.63-0.99,1.47-0.99,2.36v5.55l1.62-0.01c0.38,0.27,0.58,0.56,0.58,0.85c0.01,0.44-0.4,0.82-0.56,0.95h-1.64v2.39
		l-43.26-3.87c-0.89-0.08-1.76,0.17-2.45,0.74c-0.69,0.57-1.11,1.37-1.19,2.26l-0.49,5.52l1.61,0.13c0.36,0.3,0.53,0.6,0.5,0.9
		c-0.03,0.44-0.47,0.78-0.64,0.9l-1.64-0.15l-0.82,9.18l-3.15-19.49l-1.92,0.31c-0.45-0.26-0.69-0.55-0.72-0.86
		c-0.04-0.42,0.29-0.79,0.42-0.92l1.94-0.31l-0.87-5.39c-0.29-1.78-1.98-3.02-3.77-2.75l-46.8,7.56c-0.88,0.14-1.66,0.6-2.19,1.32
		c-0.53,0.72-0.74,1.61-0.6,2.49l0.88,5.48l1.6-0.27c0.42,0.21,0.66,0.46,0.71,0.74c0.08,0.43-0.27,0.88-0.4,1.03l-1.62,0.26
		l9.3,57.59c0.29,1.81,2,3.04,3.81,2.75l39.53-6.39l-0.52,5.78c-0.16,1.82,1.19,3.44,3.01,3.6l47.22,4.23
		c1.82,0.16,3.44-1.19,3.6-3.01l0.93-10.37c0.4,0.17,0.84,0.27,1.31,0.27h47.41c1.83,0,3.32-1.49,3.32-3.32V80h-1.95
		c-0.4-0.33-0.59-0.65-0.57-0.97C-484.58,78.62-484.19,78.3-484.04,78.19z"/>
	<g>
		<g>
			<g>
				<path class="st2" d="M-489.2,136.66l-47.41,0c-1.83,0-3.32-1.49-3.32-3.32V75l1.64,0c0.16-0.13,0.57-0.51,0.56-0.95
					c-0.01-0.29-0.2-0.58-0.58-0.85l-1.62,0.01v-5.55c0-0.89,0.35-1.73,0.99-2.36c0.64-0.63,1.49-0.96,2.37-0.96l47.41,0
					c1.81,0.02,3.28,1.51,3.28,3.32v5.46h-1.96c-0.15,0.11-0.54,0.43-0.56,0.85c-0.02,0.31,0.18,0.64,0.57,0.97h1.95l0,58.4
					C-485.88,135.17-487.37,136.66-489.2,136.66z"/>
				<path class="st0" d="M-539.41,75.52l0,57.82c0,1.54,1.25,2.8,2.8,2.8l47.41,0c1.54,0,2.8-1.25,2.8-2.8l0-57.88h-1.61l-0.07-0.06
					c-0.59-0.46-0.87-0.95-0.84-1.47c0.05-0.79,0.83-1.28,0.87-1.3l0.06-0.04h1.59v-4.94c0-1.52-1.24-2.78-2.76-2.8l-47.41,0
					c-0.74,0-1.47,0.28-2,0.81c-0.54,0.53-0.83,1.24-0.83,1.99v5.02l1.26-0.01l0.07,0.04c0.58,0.39,0.87,0.83,0.88,1.32
					c0.01,0.82-0.8,1.41-0.84,1.43l-0.07,0.05H-539.41z"/>
			</g>
			<g>
				<path class="st2" d="M-489.34,133.57l-47.83,0V80.72l47.83,0L-489.34,133.57z M-536.64,133.05l46.78,0l0-51.81l-46.78,0
					L-536.64,133.05z"/>
			</g>
			<g>
				<rect x="-536.9" y="73.23" class="st2" width="47.3" height="0.52"/>
			</g>
			<g>
				<rect x="-536.9" y="74.47" class="st2" width="47.3" height="0.52"/>
			</g>
		</g>
		<g>
			<path class="st2" d="M-504.8,96.88c-0.01,0.42,0.1,0.83,0.37,1.15c0.04,0.04,0.07,0.09,0.11,0.13c0.17,0.19,0.39,0.36,0.67,0.5
				c0.41,0.21,0.93,0.31,1.55,0.31c0,0,0.01,0,0.01,0s0.01,0,0.01,0c0.62,0,1.14-0.1,1.55-0.31c0.27-0.14,0.5-0.3,0.67-0.5
				c0.04-0.04,0.08-0.08,0.11-0.13c0.24-0.29,0.36-0.63,0.37-1.02c0.03-0.03,0.06-0.06,0.08-0.09c0,0,0.37-0.28,0.43-0.86
				c0.02-0.24,0.11-0.47,0.27-0.67c0.2-0.22,0.4-0.3,0.64-0.15l0.12-0.26c-0.11-0.09-0.22-0.16-0.32-0.19
				c-0.22-0.09-0.43-0.1-0.65-0.04c-0.22,0.06-0.4,0.18-0.55,0.36c-0.09,0.12-0.17,0.24-0.21,0.37c-0.03,0.1-0.07,0.21-0.11,0.35
				c-0.01,0.02-0.01,0.05-0.02,0.08c-0.08-0.1-0.16-0.19-0.26-0.27c-0.4-0.33-0.92-0.54-1.57-0.62l-0.28-0.03
				c0,0-0.26-0.03-0.26-0.03l-0.24-0.03c-0.33-0.05-0.59-0.17-0.77-0.35c-0.22-0.24-0.33-0.61-0.33-1.12c0-0.31,0.07-0.57,0.2-0.79
				c0.13-0.22,0.31-0.39,0.53-0.5c0.22-0.11,0.47-0.17,0.73-0.17c0.27,0,0.5,0.04,0.68,0.13c0.19,0.09,0.33,0.19,0.43,0.32
				c0.09,0.13,0.14,0.26,0.14,0.39c0,0.21-0.06,0.36-0.19,0.45c-0.12,0.09-0.26,0.13-0.42,0.13c-0.06,0-0.1,0-0.12-0.01
				c0,0.09,0.02,0.19,0.07,0.3c0.04,0.12,0.12,0.22,0.22,0.3c0.1,0.09,0.23,0.13,0.39,0.13c0.24,0,0.44-0.08,0.59-0.25
				c0.16-0.17,0.23-0.38,0.23-0.65c0-0.18-0.07-0.38-0.2-0.59c-0.13-0.22-0.35-0.4-0.65-0.56c-0.3-0.16-0.68-0.23-1.15-0.23
				c-0.68,0-1.27,0.13-1.75,0.4c-0.49,0.27-0.73,0.67-0.73,1.21c0,0.45,0.16,0.8,0.48,1.06c0.32,0.26,0.75,0.43,1.3,0.5
				c-0.65,0.09-1.17,0.29-1.57,0.62C-504.59,95.95-504.75,96.39-504.8,96.88z M-503.26,95.55c0.28-0.29,0.67-0.44,1.17-0.45
				c0.5,0.01,0.89,0.16,1.17,0.45c0.29,0.3,0.43,0.77,0.43,1.41c0,1.17-0.53,1.77-1.6,1.8c-1.07-0.03-1.6-0.63-1.6-1.8
				C-503.69,96.32-503.55,95.85-503.26,95.55z"/>
			<g>
				<path class="st2" d="M-523.08,97c-0.35-0.03-0.72-0.04-1.08-0.04c-0.35,0-0.7,0.01-1.03,0.04v-0.16l0.56-0.32v-1.9
					c0-0.69-0.31-1.08-0.8-1.08c-0.31,0-0.53,0.03-0.87,0.19v2.8l0.57,0.3V97c-0.36-0.03-0.73-0.05-1.1-0.05
					c-0.35,0-0.7,0.02-1.03,0.05v-0.16l0.57-0.3v-5.22l-0.63-0.5l0.01-0.18l0.99-0.09c0.3-0.03,0.46-0.04,0.5-0.04
					c0.1,0,0.13,0.04,0.13,0.13v2.92c0.5-0.42,0.93-0.71,1.42-0.71c0.86,0,1.24,0.55,1.24,1.42v2.24l0.56,0.33L-523.08,97z"/>
				<path class="st2" d="M-520.6,97.09c-1.07,0-1.88-0.71-1.88-2c0-1.54,0.95-2.24,2-2.24c1.02,0,1.57,0.6,1.57,1.47
					c0,0.15-0.02,0.3-0.05,0.47h-2.52c0.05,1.1,0.71,1.59,1.43,1.59c0.38,0,0.65-0.07,0.99-0.21l0.11,0.15
					C-519.25,96.62-519.77,97.09-520.6,97.09z M-521.46,94.5l1.5-0.06c0.01-0.11,0.02-0.2,0.02-0.3c0-0.55-0.22-1.01-0.67-1.01
					C-521.08,93.13-521.42,93.65-521.46,94.5z"/>
				<path class="st2" d="M-515.78,97c-0.35-0.03-0.78-0.04-1.25-0.04c-0.42,0-0.85,0.01-1.18,0.04v-0.16l0.58-0.32v-2.87l-0.62-0.46
					v-0.16l0.85-0.09c0.18-0.03,0.49-0.05,0.53-0.05c0.08,0,0.12,0.05,0.14,0.14l0.08,0.54c0.35-0.33,0.71-0.71,1.07-0.71
					c0.29,0,0.52,0.21,0.52,0.57c0,0.57-0.58,0.73-0.82,0.73c0.05-0.08,0.06-0.15,0.06-0.23c0-0.21-0.15-0.34-0.38-0.34
					c-0.14,0-0.28,0.06-0.42,0.15v2.68l0.85,0.42V97z"/>
				<path class="st2" d="M-512.47,97.09c-0.57,0-1.28-0.2-1.59-0.36l0-5.41l-0.63-0.5l0.01-0.18l0.99-0.09
					c0.3-0.03,0.46-0.04,0.51-0.04c0.09,0,0.12,0.04,0.12,0.13v2.87c0.42-0.33,0.81-0.66,1.36-0.66c1.08,0,1.55,0.89,1.55,1.9
					C-510.16,95.99-510.91,97.09-512.47,97.09z M-512.08,96.75c0.52,0,0.88-0.62,0.88-1.63c0-0.99-0.32-1.6-1.09-1.6
					c-0.31,0-0.51,0.05-0.77,0.19v2.49C-512.85,96.51-512.49,96.75-512.08,96.75z"/>
				<path class="st2" d="M-509.22,96.88l-0.04-1.29h0.23l0.68,1.03c0.19,0.14,0.35,0.17,0.57,0.17c0.37,0,0.61-0.24,0.61-0.54
					c0-0.46-0.4-0.67-0.97-0.94c-0.64-0.3-1.14-0.54-1.14-1.27c0-0.71,0.67-1.18,1.55-1.18c0.48,0,0.94,0.13,1.19,0.24v1.06h-0.18
					l-0.71-0.91c-0.11-0.07-0.22-0.11-0.41-0.11c-0.29,0-0.57,0.16-0.57,0.51c0,0.35,0.38,0.62,0.94,0.89
					c0.61,0.29,1.16,0.61,1.16,1.32c0,0.71-0.62,1.25-1.54,1.25C-508.37,97.09-508.82,97.01-509.22,96.88z"/>
			</g>
			<g>
				<g>
					<path class="st2" d="M-525.65,104.61c-0.4-0.02-0.75-0.03-1.18-0.03c-0.35,0-0.77,0.01-1.09,0.03v-0.16l0.62-0.31v-5.21
						l-0.64-0.5l0.01-0.18l0.99-0.09c0.31-0.03,0.47-0.04,0.52-0.04c0.09,0,0.12,0.04,0.12,0.13v5.88l0.65,0.32V104.61z
						 M-523.27,104.61h-1.36c-0.08-0.23-0.4-0.8-0.61-1.18c-0.31-0.52-0.5-0.79-0.91-0.88v-0.19l0.53-0.1
						c0.31-0.22,0.74-0.7,0.92-1.07l-0.69-0.42v-0.17c0.4,0.02,0.74,0.03,1.01,0.03c0.24,0,0.6-0.01,0.93-0.03v0.18
						c-0.2,0.12-0.48,0.34-0.78,0.65c-0.3,0.3-0.58,0.63-0.93,0.89c0.33,0.06,0.56,0.28,0.87,0.81c0.29,0.52,0.47,0.81,0.63,1.05
						l0.38,0.26V104.61z"/>
					<path class="st2" d="M-520.72,104.7c-1.07,0-1.88-0.71-1.88-2c0-1.54,0.95-2.24,2-2.24c1.02,0,1.57,0.6,1.57,1.47
						c0,0.15-0.02,0.3-0.05,0.47h-2.52c0.05,1.1,0.71,1.59,1.43,1.59c0.38,0,0.65-0.07,0.99-0.21l0.11,0.15
						C-519.37,104.23-519.89,104.7-520.72,104.7z M-521.58,102.11l1.5-0.06c0.01-0.11,0.02-0.2,0.02-0.3c0-0.55-0.22-1.01-0.67-1.01
						C-521.2,100.74-521.54,101.26-521.58,102.11z"/>
					<path class="st2" d="M-516.7,104.7c-0.35,0-0.82-0.14-0.82-0.93V101h-0.54v-0.26l0.58-0.22l0.75-1.12h0.21v1.2h0.98v0.42h-0.98
						v2.26c0,0.56,0.32,0.69,0.57,0.69c0.17,0,0.31-0.06,0.44-0.13l0.11,0.19C-515.65,104.28-516.17,104.7-516.7,104.7z"/>
					<path class="st2" d="M-513.44,104.7c-0.35,0-0.82-0.14-0.82-0.93V101h-0.54v-0.26l0.58-0.22l0.75-1.12h0.21v1.2h0.98v0.42
						h-0.98v2.26c0,0.56,0.32,0.69,0.57,0.69c0.17,0,0.31-0.06,0.44-0.13l0.11,0.19C-512.39,104.28-512.91,104.7-513.44,104.7z"/>
					<path class="st2" d="M-509.36,104.61c-0.36-0.02-0.74-0.03-1.12-0.03c-0.34,0-0.68,0.01-1,0.03v-0.16l0.57-0.31v-5.21
						l-0.63-0.5v-0.18l0.99-0.09c0.3-0.03,0.47-0.04,0.51-0.04c0.1,0,0.13,0.04,0.13,0.13v5.89l0.56,0.3V104.61z"/>
					<path class="st2" d="M-506.54,104.7c-1.07,0-1.88-0.71-1.88-2c0-1.54,0.95-2.24,2-2.24c1.02,0,1.57,0.6,1.57,1.47
						c0,0.15-0.02,0.3-0.05,0.47l-2.52,0c0.05,1.1,0.71,1.59,1.43,1.59c0.38,0,0.65-0.07,0.99-0.21l0.11,0.15
						C-505.19,104.23-505.72,104.7-506.54,104.7z M-507.41,102.11l1.5-0.06c0.01-0.11,0.02-0.2,0.02-0.3c0-0.55-0.22-1.01-0.67-1.01
						C-507.03,100.74-507.36,101.26-507.41,102.11z"/>
					<path class="st2" d="M-503.59,104.49l-0.04-1.29h0.23l0.68,1.03c0.19,0.14,0.35,0.17,0.57,0.17c0.37,0,0.61-0.24,0.61-0.54
						c0-0.46-0.4-0.67-0.97-0.94c-0.64-0.3-1.14-0.54-1.14-1.27c0-0.71,0.67-1.18,1.55-1.18c0.48,0,0.94,0.13,1.19,0.24v1.06h-0.18
						l-0.71-0.91c-0.11-0.07-0.22-0.11-0.41-0.11c-0.29,0-0.57,0.16-0.57,0.51c0,0.35,0.38,0.62,0.94,0.89
						c0.61,0.29,1.16,0.61,1.16,1.32s-0.62,1.25-1.54,1.25C-502.73,104.7-503.18,104.61-503.59,104.49z"/>
				</g>
			</g>
			<g>
				<path class="st2" d="M-526.28,107.19c0-0.06-0.01-0.22-0.02-0.35c0.17-0.01,0.23,0.03,0.23,0.21c0,0.2-0.08,0.49-0.22,0.73
					c-0.12,0.21-0.27,0.38-0.44,0.38c-0.11,0-0.19-0.16-0.2-0.48c-0.12,0.3-0.28,0.48-0.43,0.48c-0.19,0-0.33-0.23-0.33-0.42
					c0-0.17,0.11-0.36,0.23-0.55c-0.06-0.07-0.11-0.12-0.18-0.12c-0.08,0-0.16,0.09-0.24,0.29l-0.11-0.04
					c0.09-0.28,0.22-0.5,0.36-0.5c0.09,0,0.18,0.08,0.25,0.19c0.03-0.09,0.06-0.15,0.07-0.19l0.12,0.04
					c-0.18,0.37-0.27,0.6-0.27,0.79c0,0.17,0.07,0.31,0.16,0.31c0.12,0,0.25-0.18,0.36-0.43c-0.02-0.2-0.01-0.46,0.02-0.66h0.27
					c-0.06,0.29-0.14,0.47-0.23,0.67c0.07,0.27,0.13,0.42,0.23,0.42C-526.49,107.95-526.28,107.58-526.28,107.19z"/>
				<path class="st2" d="M-525.55,107.87c0,0.03,0.01,0.06,0.04,0.06c0.04,0,0.11-0.03,0.19-0.09l0.07,0.11
					c-0.13,0.09-0.27,0.2-0.4,0.2c-0.1,0-0.17-0.06-0.17-0.18c0-0.17,0.21-0.69,0.21-0.86c0-0.04-0.01-0.06-0.04-0.06
					c-0.04,0-0.11,0.03-0.19,0.08l-0.07-0.1c0.13-0.1,0.27-0.2,0.4-0.2c0.09,0,0.16,0.06,0.16,0.18
					C-525.35,107.19-525.55,107.68-525.55,107.87z M-525.53,106.45c0-0.12,0.08-0.17,0.19-0.17c0.08,0,0.13,0.04,0.13,0.13
					c0,0.12-0.07,0.18-0.19,0.18C-525.47,106.59-525.53,106.54-525.53,106.45z"/>
				<path class="st2" d="M-524.78,107.01h-0.2l0.04-0.15h0.2c0.07-0.07,0.14-0.2,0.21-0.36l0.12,0.03c-0.03,0.1-0.06,0.22-0.09,0.33
					h0.39l-0.04,0.15h-0.39c-0.1,0.38-0.2,0.75-0.2,0.85c0,0.04,0.01,0.07,0.06,0.07c0.07,0,0.19-0.05,0.33-0.17l0.07,0.1
					c-0.17,0.15-0.37,0.29-0.55,0.29c-0.11,0-0.17-0.06-0.17-0.19C-525.01,107.8-524.9,107.43-524.78,107.01z"/>
				<path class="st2" d="M-523.79,106.55c-0.04,0-0.11,0.03-0.19,0.09l-0.07-0.11c0.13-0.09,0.27-0.2,0.4-0.2
					c0.09,0,0.15,0.06,0.15,0.19c0,0.11-0.11,0.51-0.18,0.78l0.04,0.01c0.19-0.36,0.4-0.49,0.58-0.49c0.16,0,0.22,0.08,0.22,0.2
					c0,0.21-0.23,0.66-0.23,0.85c0,0.04,0.01,0.07,0.04,0.07c0.04,0,0.11-0.03,0.19-0.09l0.07,0.1c-0.13,0.1-0.27,0.2-0.4,0.2
					c-0.1,0-0.16-0.06-0.16-0.19c0-0.21,0.22-0.63,0.22-0.85c0-0.06-0.03-0.09-0.11-0.09c-0.15,0-0.43,0.14-0.67,1.1h-0.25
					c0.12-0.38,0.38-1.31,0.38-1.5C-523.74,106.58-523.75,106.55-523.79,106.55z"/>
				<path class="st2" d="M-521.7,106.55c-0.04,0-0.11,0.03-0.19,0.09l-0.07-0.11c0.13-0.09,0.27-0.2,0.4-0.2
					c0.09,0,0.15,0.06,0.15,0.19c0,0.24-0.32,1.11-0.32,1.34c0,0.04,0.01,0.07,0.04,0.07c0.04,0,0.11-0.03,0.19-0.09l0.07,0.1
					c-0.13,0.1-0.27,0.2-0.4,0.2c-0.1,0-0.16-0.06-0.16-0.19c0-0.23,0.33-1.11,0.33-1.34C-521.66,106.58-521.67,106.55-521.7,106.55
					z"/>
				<path class="st2" d="M-521.25,107.7c0-0.49,0.32-0.87,0.74-0.87c0.23,0,0.44,0.13,0.44,0.45c0,0.48-0.31,0.88-0.74,0.88
					C-521.04,108.15-521.25,108.02-521.25,107.7z M-521.01,107.69c0,0.2,0.1,0.31,0.27,0.31c0.22,0,0.43-0.29,0.43-0.72
					c0-0.2-0.1-0.31-0.26-0.31C-520.8,106.97-521.01,107.31-521.01,107.69z"/>
				<path class="st2" d="M-519.41,107.18c-0.06-0.07-0.11-0.12-0.18-0.12c-0.08,0-0.16,0.09-0.24,0.29l-0.11-0.04
					c0.09-0.28,0.22-0.5,0.36-0.5c0.09,0,0.18,0.08,0.25,0.19c0.03-0.09,0.06-0.15,0.07-0.19l0.12,0.04
					c-0.18,0.38-0.31,0.6-0.31,0.79c0,0.16,0.13,0.3,0.26,0.3c0.18,0,0.41-0.36,0.41-0.76c0-0.06-0.01-0.22-0.01-0.35
					c0.17-0.01,0.23,0.03,0.23,0.21c0,0.36-0.31,1.11-0.74,1.11c-0.2,0-0.37-0.23-0.37-0.42
					C-519.68,107.56-519.55,107.38-519.41,107.18z"/>
				<path class="st2" d="M-518.14,107.46c-0.01,0.05-0.02,0.11-0.02,0.16c0,0.23,0.12,0.33,0.26,0.33c0.14,0,0.29-0.11,0.41-0.29
					l0.09,0.06c-0.13,0.25-0.36,0.42-0.62,0.42c-0.21,0-0.39-0.17-0.39-0.44c0-0.48,0.31-0.89,0.77-0.89c0.22,0,0.35,0.11,0.35,0.25
					C-517.28,107.25-517.57,107.39-518.14,107.46z M-518.13,107.42c0.4-0.11,0.62-0.21,0.62-0.32c0-0.08-0.07-0.13-0.21-0.13
					C-517.91,106.97-518.07,107.17-518.13,107.42z"/>
				<path class="st2" d="M-517.39,108.4c0.16-0.12,0.29-0.24,0.29-0.33c0-0.06-0.02-0.1-0.07-0.17c0.02-0.04,0.09-0.09,0.19-0.09
					c0.1,0,0.16,0.06,0.16,0.16c0,0.19-0.26,0.37-0.51,0.53L-517.39,108.4z"/>
				<path class="st2" d="M-515.59,107.83c0,0.06,0.03,0.09,0.1,0.09c0.16,0,0.43-0.13,0.67-1.07h0.25
					c-0.09,0.27-0.22,0.67-0.29,1.01c-0.11,0.55-0.32,0.73-0.86,0.73c-0.22,0-0.37-0.07-0.32-0.26c0.15,0.03,0.3,0.07,0.55,0.07
					c0.26,0,0.32-0.11,0.37-0.33c0.02-0.09,0.04-0.18,0.06-0.26c0.01-0.06,0.02-0.11,0.04-0.17l-0.03-0.01
					c-0.19,0.36-0.38,0.48-0.58,0.48c-0.16,0-0.22-0.08-0.22-0.19c0-0.2,0.23-0.63,0.23-0.82c0-0.04-0.01-0.07-0.04-0.07
					c-0.04,0-0.11,0.02-0.19,0.08l-0.07-0.1c0.13-0.1,0.27-0.2,0.4-0.2c0.1,0,0.16,0.06,0.16,0.19
					C-515.38,107.21-515.59,107.63-515.59,107.83z"/>
				<path class="st2" d="M-514.46,107.7c0-0.49,0.32-0.87,0.74-0.87c0.23,0,0.44,0.13,0.44,0.45c0,0.48-0.31,0.88-0.74,0.88
					C-514.25,108.15-514.46,108.02-514.46,107.7z M-514.22,107.69c0,0.2,0.1,0.31,0.27,0.31c0.22,0,0.43-0.29,0.43-0.72
					c0-0.2-0.1-0.31-0.26-0.31C-514,106.97-514.22,107.31-514.22,107.69z"/>
				<path class="st2" d="M-512.19,107.67l-0.03-0.01c-0.19,0.36-0.38,0.49-0.58,0.49c-0.16,0-0.22-0.08-0.22-0.2
					c0-0.21,0.23-0.66,0.23-0.85c0-0.04-0.01-0.07-0.04-0.07c-0.04,0-0.11,0.03-0.19,0.09l-0.07-0.1c0.13-0.1,0.27-0.2,0.4-0.2
					c0.1,0,0.16,0.06,0.16,0.19c0,0.21-0.22,0.66-0.22,0.85c0,0.06,0.04,0.09,0.1,0.09c0.16,0,0.42-0.14,0.67-1.1h0.26
					c-0.08,0.26-0.28,0.87-0.28,1.01c0,0.04,0.01,0.07,0.04,0.07c0.04,0,0.11-0.03,0.19-0.09l0.07,0.11c-0.13,0.09-0.27,0.2-0.4,0.2
					c-0.08,0-0.14-0.06-0.14-0.19C-512.25,107.91-512.22,107.78-512.19,107.67z"/>
				<path class="st2" d="M-511.53,108.12c0.08-0.26,0.28-0.87,0.28-1.01c0-0.04-0.01-0.07-0.04-0.07c-0.04,0-0.11,0.03-0.19,0.09
					l-0.07-0.11c0.13-0.1,0.26-0.2,0.39-0.2c0.07,0,0.12,0.05,0.12,0.18c0,0.07-0.04,0.23-0.07,0.36l0.03,0.01
					c0.16-0.41,0.32-0.55,0.47-0.55c0.08,0,0.1,0.08,0.1,0.28c-0.35,0.02-0.54,0.12-0.77,1.01H-511.53z"/>
				<path class="st2" d="M-508.84,107.21c-0.09-0.14-0.2-0.24-0.35-0.24c-0.25,0-0.45,0.36-0.45,0.66c0,0.2,0.11,0.32,0.26,0.32
					c0.16,0,0.3-0.1,0.42-0.28l0.09,0.06c-0.14,0.25-0.35,0.42-0.63,0.42c-0.2,0-0.38-0.17-0.38-0.44c0-0.42,0.28-0.89,0.76-0.89
					c0.26,0,0.36,0.11,0.36,0.22c0,0.06-0.03,0.13-0.06,0.17H-508.84z"/>
				<path class="st2" d="M-508.34,106.55c-0.04,0-0.11,0.03-0.19,0.09l-0.07-0.11c0.13-0.09,0.27-0.2,0.4-0.2
					c0.09,0,0.15,0.06,0.15,0.19c0,0.11-0.11,0.51-0.18,0.78l0.04,0.01c0.19-0.36,0.4-0.49,0.58-0.49c0.16,0,0.22,0.08,0.22,0.2
					c0,0.21-0.23,0.66-0.23,0.85c0,0.04,0.01,0.07,0.04,0.07c0.04,0,0.11-0.03,0.19-0.09l0.07,0.1c-0.13,0.1-0.27,0.2-0.4,0.2
					c-0.1,0-0.16-0.06-0.16-0.19c0-0.21,0.22-0.63,0.22-0.85c0-0.06-0.03-0.09-0.11-0.09c-0.15,0-0.43,0.14-0.67,1.1h-0.25
					c0.12-0.38,0.38-1.31,0.38-1.5C-508.3,106.58-508.31,106.55-508.34,106.55z"/>
				<path class="st2" d="M-506.13,107.93c0.04,0,0.11-0.03,0.19-0.09l0.07,0.1c-0.13,0.1-0.27,0.2-0.4,0.2
					c-0.08,0-0.13-0.06-0.13-0.18c0-0.07,0.03-0.21,0.06-0.33l-0.03-0.01c-0.17,0.38-0.41,0.51-0.57,0.51c-0.12,0-0.22-0.1-0.22-0.3
					c0-0.49,0.45-1.07,1.25-1.02c-0.11,0.37-0.26,0.86-0.26,1.02C-506.18,107.9-506.16,107.93-506.13,107.93z M-506.19,106.97
					c-0.48,0.05-0.74,0.43-0.74,0.82c0,0.12,0.04,0.17,0.12,0.17C-506.68,107.95-506.44,107.85-506.19,106.97z"/>
				<path class="st2" d="M-505.37,107.87c0,0.03,0.01,0.06,0.04,0.06c0.04,0,0.11-0.03,0.19-0.09l0.07,0.11
					c-0.13,0.09-0.27,0.2-0.4,0.2c-0.1,0-0.17-0.06-0.17-0.18c0-0.17,0.21-0.69,0.21-0.86c0-0.04-0.01-0.06-0.04-0.06
					c-0.04,0-0.11,0.03-0.19,0.08l-0.07-0.1c0.13-0.1,0.27-0.2,0.4-0.2c0.09,0,0.16,0.06,0.16,0.18
					C-505.16,107.19-505.37,107.68-505.37,107.87z M-505.34,106.45c0-0.12,0.08-0.17,0.19-0.17c0.08,0,0.13,0.04,0.13,0.13
					c0,0.12-0.07,0.18-0.2,0.18C-505.29,106.59-505.34,106.54-505.34,106.45z"/>
				<path class="st2" d="M-503.23,107.19c0-0.06-0.01-0.22-0.02-0.35c0.17-0.01,0.23,0.03,0.23,0.21c0,0.2-0.08,0.49-0.22,0.73
					c-0.12,0.21-0.27,0.38-0.44,0.38c-0.11,0-0.19-0.16-0.2-0.48c-0.12,0.3-0.28,0.48-0.43,0.48c-0.19,0-0.33-0.23-0.33-0.42
					c0-0.17,0.11-0.36,0.23-0.55c-0.06-0.07-0.11-0.12-0.18-0.12c-0.08,0-0.16,0.09-0.24,0.29l-0.11-0.04
					c0.09-0.28,0.22-0.5,0.36-0.5c0.09,0,0.18,0.08,0.25,0.19c0.03-0.09,0.06-0.15,0.07-0.19l0.12,0.04
					c-0.18,0.37-0.27,0.6-0.27,0.79c0,0.17,0.07,0.31,0.16,0.31c0.12,0,0.25-0.18,0.36-0.43c-0.02-0.2-0.01-0.46,0.02-0.66h0.27
					c-0.06,0.29-0.14,0.47-0.23,0.67c0.07,0.27,0.13,0.42,0.23,0.42C-503.45,107.95-503.23,107.58-503.23,107.19z"/>
				<path class="st2" d="M-501.87,107.93c0.04,0,0.11-0.03,0.19-0.09l0.07,0.1c-0.13,0.1-0.27,0.2-0.4,0.2
					c-0.08,0-0.13-0.06-0.13-0.18c0-0.07,0.03-0.21,0.06-0.33l-0.03-0.01c-0.17,0.38-0.41,0.51-0.57,0.51c-0.12,0-0.22-0.1-0.22-0.3
					c0-0.49,0.45-1.07,1.25-1.02c-0.11,0.37-0.26,0.86-0.26,1.02C-501.92,107.9-501.9,107.93-501.87,107.93z M-501.93,106.97
					c-0.48,0.05-0.74,0.43-0.74,0.82c0,0.12,0.04,0.17,0.12,0.17C-502.43,107.95-502.18,107.85-501.93,106.97z"/>
				<path class="st2" d="M-501.13,106.55c-0.04,0-0.11,0.03-0.19,0.09l-0.07-0.11c0.13-0.09,0.27-0.2,0.4-0.2
					c0.09,0,0.15,0.06,0.15,0.19c0,0.24-0.32,1.11-0.32,1.34c0,0.04,0.01,0.07,0.04,0.07c0.04,0,0.11-0.03,0.19-0.09l0.07,0.1
					c-0.13,0.1-0.27,0.2-0.4,0.2c-0.1,0-0.16-0.06-0.16-0.19c0-0.23,0.33-1.11,0.33-1.34C-501.08,106.58-501.1,106.55-501.13,106.55
					z"/>
				<path class="st2" d="M-499.68,107.93c0.04,0,0.11-0.03,0.19-0.09l0.07,0.1c-0.13,0.1-0.27,0.2-0.4,0.2
					c-0.08,0-0.13-0.06-0.13-0.18c0-0.07,0.03-0.21,0.06-0.33l-0.03-0.01c-0.17,0.38-0.41,0.51-0.57,0.51c-0.12,0-0.22-0.1-0.22-0.3
					c0-0.49,0.45-1.07,1.25-1.02c-0.11,0.37-0.26,0.86-0.26,1.02C-499.73,107.9-499.71,107.93-499.68,107.93z M-499.74,106.97
					c-0.48,0.05-0.74,0.43-0.74,0.82c0,0.12,0.04,0.17,0.12,0.17C-500.23,107.95-499.99,107.85-499.74,106.97z"/>
			</g>
		</g>
	</g>
	<g>
		<g>
			<g>
				<path class="st2" d="M-584.89,134.98l-46.81,7.56c-1.81,0.29-3.51-0.94-3.81-2.75l-9.3-57.59l1.62-0.26
					c0.14-0.16,0.48-0.6,0.4-1.03c-0.05-0.29-0.29-0.54-0.71-0.74l-1.6,0.27l-0.88-5.48c-0.14-0.88,0.07-1.77,0.6-2.49
					c0.53-0.72,1.31-1.19,2.19-1.32l46.8-7.56c1.79-0.26,3.48,0.97,3.77,2.75l0.87,5.39l-1.94,0.31c-0.13,0.13-0.46,0.51-0.42,0.92
					c0.03,0.31,0.27,0.6,0.72,0.86l1.92-0.31l9.31,57.65C-581.85,132.98-583.08,134.69-584.89,134.98z"/>
				<path class="st0" d="M-644.21,82.64l9.22,57.08c0.25,1.52,1.68,2.56,3.21,2.31l46.81-7.56c1.52-0.25,2.56-1.68,2.31-3.21
					l-9.23-57.14l-1.59,0.26l-0.08-0.04c-0.65-0.36-1.01-0.8-1.06-1.31c-0.08-0.78,0.62-1.39,0.65-1.42l0.06-0.05l1.57-0.25
					l-0.79-4.88c-0.24-1.5-1.67-2.54-3.17-2.32l-46.8,7.56c-0.73,0.12-1.4,0.51-1.85,1.11c-0.45,0.61-0.62,1.35-0.5,2.1l0.8,4.96
					l1.24-0.21l0.07,0.03c0.63,0.29,0.99,0.68,1.08,1.16c0.14,0.8-0.57,1.52-0.6,1.55l-0.06,0.06L-644.21,82.64z"/>
			</g>
			<g>
				<path class="st2" d="M-585.52,131.95l-47.21,7.63l-8.43-52.17l47.21-7.63L-585.52,131.95z M-632.3,138.98l46.18-7.46
					l-8.26-51.14l-46.18,7.46L-632.3,138.98z"/>
			</g>
			<g>
				
					<rect x="-642.36" y="76.19" transform="matrix(0.9872 -0.1595 0.1595 0.9872 -20.1121 -97.6943)" class="st2" width="47.3" height="0.52"/>
			</g>
			<g>
				
					<rect x="-642.16" y="77.42" transform="matrix(0.9872 -0.1595 0.1595 0.9872 -20.3054 -97.6469)" class="st2" width="47.3" height="0.52"/>
			</g>
		</g>
		<g>
			<path class="st2" d="M-606.63,98.19c0.05,0.41,0.23,0.8,0.55,1.08c0.04,0.04,0.09,0.07,0.13,0.11c0.2,0.16,0.45,0.29,0.74,0.38
				c0.43,0.14,0.96,0.16,1.58,0.06c0,0,0.01,0,0.01,0s0.01,0,0.01,0c0.62-0.1,1.11-0.29,1.48-0.55c0.25-0.18,0.44-0.38,0.58-0.6
				c0.03-0.05,0.06-0.09,0.09-0.14c0.19-0.32,0.26-0.68,0.2-1.07c0.02-0.03,0.05-0.07,0.07-0.11c0,0,0.32-0.34,0.28-0.92
				c-0.02-0.24,0.03-0.48,0.16-0.71c0.16-0.25,0.35-0.36,0.61-0.25l0.08-0.27c-0.12-0.07-0.24-0.12-0.35-0.14
				c-0.23-0.05-0.44-0.03-0.65,0.07c-0.21,0.09-0.37,0.24-0.49,0.45c-0.07,0.13-0.13,0.26-0.15,0.4c-0.02,0.1-0.04,0.22-0.05,0.36
				c0,0.03-0.01,0.05-0.01,0.08c-0.09-0.08-0.19-0.16-0.3-0.23c-0.44-0.26-0.99-0.38-1.65-0.36l-0.28,0.01c0,0-0.26,0.01-0.26,0.01
				l-0.24,0.01c-0.34,0-0.61-0.07-0.82-0.23c-0.26-0.2-0.43-0.55-0.51-1.05c-0.05-0.3-0.03-0.57,0.07-0.81
				c0.09-0.24,0.24-0.43,0.45-0.58c0.2-0.15,0.44-0.24,0.69-0.28c0.26-0.04,0.5-0.04,0.69,0.02c0.2,0.05,0.36,0.13,0.47,0.25
				c0.11,0.11,0.18,0.23,0.2,0.36c0.03,0.21,0,0.37-0.11,0.48c-0.11,0.1-0.24,0.17-0.4,0.2c-0.06,0.01-0.1,0.01-0.12,0.01
				c0.01,0.08,0.05,0.18,0.12,0.28c0.06,0.11,0.15,0.2,0.26,0.26c0.11,0.07,0.25,0.09,0.4,0.07c0.24-0.04,0.42-0.15,0.54-0.34
				c0.13-0.19,0.17-0.42,0.13-0.68c-0.03-0.18-0.13-0.36-0.29-0.55c-0.16-0.19-0.41-0.34-0.73-0.45c-0.32-0.11-0.71-0.12-1.17-0.05
				c-0.67,0.11-1.23,0.33-1.67,0.67c-0.44,0.34-0.61,0.78-0.53,1.31c0.07,0.44,0.28,0.77,0.64,0.97c0.36,0.2,0.81,0.3,1.36,0.29
				c-0.63,0.19-1.11,0.47-1.45,0.86C-606.58,97.25-606.67,97.7-606.63,98.19z M-605.32,96.64c0.23-0.33,0.59-0.54,1.09-0.63
				c0.5-0.07,0.91,0.01,1.23,0.26c0.33,0.25,0.55,0.69,0.65,1.32c0.19,1.15-0.25,1.83-1.29,2.04c-1.06,0.14-1.68-0.37-1.87-1.52
				C-605.63,97.47-605.56,96.98-605.32,96.64z"/>
			<g>
				<path class="st2" d="M-624.66,101.23c-0.35,0.03-0.72,0.08-1.08,0.14c-0.35,0.06-0.69,0.12-1.01,0.2l-0.03-0.16l0.5-0.4
					l-0.3-1.87c-0.11-0.68-0.47-1.01-0.96-0.94c-0.3,0.05-0.52,0.11-0.83,0.33l0.45,2.77l0.61,0.2l0.03,0.16
					c-0.36,0.03-0.73,0.07-1.1,0.13c-0.35,0.06-0.68,0.13-1.01,0.21l-0.03-0.16l0.51-0.39l-0.83-5.15l-0.7-0.39l-0.02-0.18
					l0.97-0.25c0.29-0.07,0.45-0.11,0.49-0.11c0.1-0.02,0.13,0.02,0.15,0.1l0.47,2.88c0.42-0.49,0.81-0.85,1.29-0.93
					c0.85-0.14,1.31,0.35,1.45,1.2l0.36,2.21l0.61,0.23L-624.66,101.23z"/>
				<path class="st2" d="M-622.19,100.92c-1.05,0.17-1.97-0.4-2.17-1.67c-0.25-1.52,0.58-2.36,1.61-2.53
					c1.01-0.16,1.65,0.34,1.79,1.2c0.02,0.15,0.03,0.3,0.03,0.47l-2.49,0.4c0.23,1.08,0.96,1.46,1.66,1.34
					c0.37-0.06,0.63-0.18,0.94-0.36l0.13,0.13C-620.94,100.24-621.38,100.79-622.19,100.92z M-623.46,98.51l1.47-0.3
					c-0.01-0.11-0.01-0.2-0.03-0.3c-0.09-0.54-0.38-0.96-0.82-0.89C-623.31,97.09-623.55,97.66-623.46,98.51z"/>
				<path class="st2" d="M-617.45,100.06c-0.35,0.03-0.77,0.09-1.24,0.16c-0.42,0.07-0.84,0.14-1.15,0.22l-0.03-0.16l0.52-0.4
					l-0.46-2.84l-0.69-0.36l-0.03-0.16l0.82-0.22c0.17-0.06,0.47-0.13,0.52-0.14c0.08-0.01,0.12,0.03,0.16,0.11l0.17,0.52
					c0.29-0.39,0.59-0.81,0.94-0.87c0.29-0.05,0.54,0.12,0.6,0.48c0.09,0.56-0.45,0.82-0.7,0.85c0.03-0.09,0.04-0.16,0.03-0.23
					c-0.03-0.21-0.21-0.31-0.43-0.28c-0.14,0.02-0.27,0.11-0.39,0.22l0.43,2.65l0.91,0.27L-617.45,100.06z"/>
				<path class="st2" d="M-614.17,99.63c-0.56,0.09-1.3,0.01-1.63-0.1l-0.86-5.34l-0.7-0.39l-0.02-0.18l0.97-0.25
					c0.29-0.07,0.45-0.11,0.49-0.12c0.09-0.01,0.12,0.02,0.14,0.11l0.46,2.83c0.37-0.4,0.7-0.78,1.23-0.87
					c1.07-0.17,1.67,0.63,1.83,1.63C-612.07,98.18-612.63,99.38-614.17,99.63z M-613.84,99.23c0.51-0.08,0.77-0.76,0.61-1.75
					c-0.16-0.97-0.57-1.53-1.34-1.41c-0.3,0.05-0.49,0.13-0.73,0.31l0.4,2.45C-614.64,99.12-614.24,99.29-613.84,99.23z"/>
				<path class="st2" d="M-611,98.9l-0.24-1.27l0.22-0.04l0.83,0.91c0.21,0.11,0.38,0.11,0.59,0.08c0.37-0.06,0.57-0.33,0.52-0.63
					c-0.07-0.46-0.5-0.6-1.1-0.77c-0.68-0.19-1.21-0.35-1.33-1.08c-0.11-0.71,0.47-1.28,1.34-1.42c0.47-0.08,0.95-0.02,1.22,0.05
					l0.17,1.04l-0.18,0.03l-0.85-0.79c-0.12-0.05-0.23-0.07-0.42-0.04c-0.29,0.05-0.54,0.25-0.48,0.59
					c0.06,0.35,0.47,0.56,1.07,0.72c0.65,0.19,1.24,0.41,1.35,1.12s-0.42,1.33-1.32,1.48C-610.12,98.97-610.58,98.96-611,98.9z"/>
			</g>
			<g>
				<g>
					<path class="st2" d="M-625.99,109.15c-0.4,0.05-0.75,0.09-1.16,0.16c-0.35,0.06-0.76,0.13-1.08,0.2l-0.03-0.16l0.57-0.4
						l-0.83-5.14l-0.71-0.39l-0.02-0.18l0.97-0.25c0.3-0.08,0.46-0.11,0.5-0.12c0.09-0.01,0.12,0.02,0.14,0.11l0.94,5.8l0.69,0.21
						L-625.99,109.15z M-623.63,108.77l-1.34,0.22c-0.12-0.21-0.52-0.72-0.79-1.06c-0.39-0.46-0.62-0.7-1.04-0.72l-0.03-0.19
						l0.51-0.18c0.27-0.26,0.62-0.81,0.74-1.2l-0.75-0.31l-0.03-0.17c0.4-0.05,0.74-0.09,1-0.13c0.23-0.04,0.59-0.1,0.91-0.18
						l0.03,0.18c-0.18,0.15-0.42,0.42-0.66,0.77c-0.25,0.34-0.47,0.72-0.78,1.02c0.34,0.01,0.6,0.19,0.99,0.66
						c0.37,0.46,0.59,0.73,0.79,0.93l0.42,0.2L-623.63,108.77z"/>
					<path class="st2" d="M-621.1,108.45c-1.05,0.17-1.97-0.4-2.17-1.67c-0.25-1.52,0.58-2.36,1.61-2.53
						c1.01-0.16,1.65,0.34,1.79,1.2c0.02,0.15,0.03,0.3,0.03,0.47l-2.49,0.4c0.23,1.08,0.96,1.46,1.66,1.34
						c0.37-0.06,0.63-0.18,0.94-0.36l0.13,0.13C-619.84,107.77-620.29,108.32-621.1,108.45z M-622.37,106.04l1.47-0.3
						c-0.01-0.11-0.01-0.2-0.03-0.3c-0.09-0.54-0.38-0.96-0.82-0.89C-622.21,104.62-622.46,105.19-622.37,106.04z"/>
					<path class="st2" d="M-617.14,107.81c-0.35,0.06-0.84-0.01-0.96-0.79l-0.44-2.73l-0.54,0.09l-0.04-0.26l0.54-0.31l0.56-1.23
						l0.21-0.03l0.19,1.19l0.96-0.16l0.07,0.42l-0.96,0.16l0.36,2.23c0.09,0.55,0.42,0.63,0.67,0.59c0.17-0.03,0.29-0.11,0.42-0.2
						l0.14,0.17C-616.17,107.23-616.61,107.73-617.14,107.81z"/>
					<path class="st2" d="M-613.91,107.29c-0.35,0.06-0.84-0.01-0.96-0.79l-0.44-2.73l-0.54,0.09l-0.04-0.26l0.54-0.31l0.56-1.23
						l0.21-0.03l0.19,1.19l0.96-0.16l0.07,0.42l-0.96,0.16l0.36,2.23c0.09,0.55,0.42,0.63,0.67,0.59c0.17-0.03,0.29-0.11,0.42-0.2
						l0.14,0.17C-612.95,106.71-613.39,107.21-613.91,107.29z"/>
					<path class="st2" d="M-609.9,106.55c-0.36,0.04-0.74,0.09-1.11,0.15c-0.34,0.05-0.67,0.12-0.99,0.19l-0.03-0.16l0.51-0.39
						l-0.83-5.14l-0.7-0.39l-0.03-0.18l0.97-0.25c0.29-0.07,0.46-0.11,0.49-0.12c0.1-0.02,0.13,0.02,0.15,0.1l0.94,5.82l0.6,0.21
						L-609.9,106.55z"/>
					<path class="st2" d="M-607.11,106.19c-1.05,0.17-1.97-0.4-2.17-1.67c-0.25-1.52,0.58-2.36,1.61-2.53
						c1.01-0.16,1.65,0.34,1.79,1.2c0.02,0.15,0.03,0.3,0.03,0.47l-2.49,0.4c0.23,1.08,0.96,1.46,1.66,1.34
						c0.37-0.06,0.63-0.18,0.94-0.36l0.13,0.13C-605.85,105.51-606.29,106.06-607.11,106.19z M-608.37,103.78l1.47-0.3
						c-0.01-0.11-0.01-0.2-0.03-0.3c-0.09-0.54-0.38-0.96-0.82-0.89C-608.22,102.36-608.47,102.93-608.37,103.78z"/>
					<path class="st2" d="M-604.22,105.51l-0.24-1.27l0.22-0.04l0.83,0.91c0.21,0.11,0.38,0.11,0.59,0.08
						c0.37-0.06,0.57-0.33,0.52-0.63c-0.07-0.46-0.5-0.6-1.1-0.77c-0.68-0.19-1.21-0.35-1.33-1.08c-0.11-0.71,0.47-1.28,1.34-1.42
						c0.47-0.08,0.95-0.02,1.22,0.05l0.17,1.04l-0.18,0.03l-0.85-0.79c-0.12-0.05-0.23-0.07-0.42-0.04
						c-0.29,0.05-0.54,0.25-0.48,0.59c0.06,0.35,0.47,0.56,1.07,0.72c0.65,0.19,1.24,0.41,1.35,1.12s-0.42,1.33-1.32,1.48
						C-603.34,105.58-603.8,105.57-604.22,105.51z"/>
				</g>
			</g>
			<g>
				<path class="st2" d="M-626.19,111.8c-0.01-0.06-0.05-0.22-0.07-0.34c0.17-0.04,0.23,0,0.26,0.17c0.03,0.19,0,0.5-0.1,0.76
					c-0.08,0.23-0.21,0.42-0.37,0.44c-0.11,0.02-0.22-0.13-0.27-0.44c-0.07,0.31-0.2,0.52-0.35,0.54c-0.19,0.03-0.36-0.17-0.39-0.36
					c-0.03-0.17,0.05-0.37,0.14-0.58c-0.07-0.06-0.13-0.1-0.2-0.09c-0.08,0.01-0.15,0.11-0.19,0.32l-0.12-0.02
					c0.04-0.29,0.14-0.53,0.28-0.55c0.09-0.01,0.19,0.05,0.28,0.15c0.02-0.09,0.03-0.16,0.04-0.2l0.13,0.02
					c-0.11,0.39-0.17,0.64-0.15,0.82c0.03,0.16,0.12,0.29,0.21,0.28c0.12-0.02,0.22-0.22,0.28-0.49c-0.05-0.2-0.08-0.45-0.08-0.65
					l0.27-0.04c-0.01,0.3-0.07,0.49-0.12,0.7c0.11,0.25,0.2,0.39,0.29,0.38C-626.28,112.58-626.13,112.19-626.19,111.8z"/>
				<path class="st2" d="M-625.37,112.36c0.01,0.03,0.02,0.06,0.05,0.05c0.04-0.01,0.11-0.04,0.18-0.12l0.08,0.09
					c-0.11,0.11-0.23,0.24-0.36,0.26c-0.1,0.02-0.17-0.03-0.19-0.15c-0.03-0.16,0.1-0.71,0.07-0.88c-0.01-0.04-0.02-0.06-0.05-0.06
					c-0.04,0.01-0.1,0.04-0.17,0.11l-0.09-0.09c0.11-0.12,0.23-0.24,0.36-0.26c0.09-0.02,0.17,0.03,0.19,0.16
					C-625.27,111.65-625.4,112.17-625.37,112.36z M-625.57,110.95c-0.02-0.12,0.05-0.18,0.16-0.2c0.08-0.01,0.14,0.02,0.15,0.11
					c0.02,0.12-0.04,0.19-0.16,0.21C-625.49,111.08-625.55,111.04-625.57,110.95z"/>
				<path class="st2" d="M-624.74,111.38l-0.19,0.03l0.01-0.16l0.2-0.03c0.06-0.08,0.11-0.22,0.14-0.39l0.12,0.01
					c-0.01,0.11-0.03,0.22-0.04,0.35l0.38-0.06l-0.01,0.16l-0.39,0.06c-0.04,0.39-0.08,0.78-0.06,0.87
					c0.01,0.04,0.02,0.07,0.07,0.06c0.07-0.01,0.18-0.08,0.3-0.22l0.09,0.09c-0.15,0.18-0.32,0.35-0.5,0.37
					c-0.11,0.02-0.18-0.03-0.2-0.16C-624.84,112.2-624.79,111.82-624.74,111.38z"/>
				<path class="st2" d="M-623.83,110.77c-0.04,0.01-0.1,0.05-0.17,0.12l-0.08-0.09c0.11-0.11,0.23-0.24,0.36-0.26
					c0.09-0.01,0.16,0.03,0.18,0.16c0.02,0.11-0.03,0.52-0.06,0.8l0.04,0.01c0.13-0.39,0.31-0.55,0.5-0.58
					c0.16-0.03,0.23,0.05,0.25,0.16c0.03,0.2-0.12,0.68-0.09,0.87c0.01,0.04,0.02,0.07,0.06,0.06c0.04-0.01,0.1-0.05,0.17-0.12
					l0.08,0.09c-0.11,0.12-0.23,0.24-0.36,0.26c-0.1,0.02-0.17-0.03-0.19-0.16c-0.03-0.21,0.11-0.66,0.08-0.87
					c-0.01-0.06-0.05-0.09-0.12-0.07c-0.15,0.02-0.4,0.21-0.49,1.2l-0.25,0.04c0.05-0.39,0.17-1.35,0.14-1.55
					C-623.79,110.79-623.8,110.77-623.83,110.77z"/>
				<path class="st2" d="M-621.78,110.44c-0.04,0.01-0.1,0.05-0.17,0.12l-0.09-0.09c0.11-0.11,0.24-0.24,0.37-0.26
					c0.09-0.01,0.16,0.03,0.18,0.16c0.04,0.24-0.14,1.15-0.1,1.38c0.01,0.04,0.02,0.07,0.06,0.06c0.04-0.01,0.1-0.05,0.17-0.12
					l0.08,0.09c-0.11,0.12-0.23,0.24-0.36,0.26c-0.1,0.02-0.17-0.03-0.19-0.16c-0.04-0.23,0.15-1.15,0.11-1.38
					C-621.73,110.46-621.75,110.44-621.78,110.44z"/>
				<path class="st2" d="M-621.15,111.5c-0.08-0.49,0.17-0.91,0.59-0.98c0.23-0.04,0.45,0.06,0.51,0.37
					c0.08,0.48-0.17,0.92-0.59,0.99C-620.87,111.91-621.1,111.82-621.15,111.5z M-620.92,111.46c0.03,0.2,0.15,0.29,0.31,0.27
					c0.22-0.03,0.38-0.36,0.31-0.78c-0.03-0.2-0.15-0.29-0.31-0.27C-620.82,110.71-620.98,111.08-620.92,111.46z"/>
				<path class="st2" d="M-619.41,110.7c-0.07-0.06-0.13-0.1-0.2-0.09c-0.08,0.01-0.15,0.11-0.19,0.32l-0.12-0.02
					c0.04-0.29,0.14-0.53,0.28-0.55c0.09-0.01,0.19,0.05,0.28,0.15c0.02-0.09,0.03-0.16,0.04-0.2l0.13,0.02
					c-0.12,0.41-0.21,0.65-0.18,0.83c0.03,0.16,0.18,0.28,0.3,0.26c0.18-0.03,0.34-0.42,0.28-0.81c-0.01-0.06-0.04-0.22-0.07-0.34
					c0.17-0.04,0.23,0,0.26,0.17c0.06,0.36-0.13,1.15-0.55,1.21c-0.2,0.03-0.4-0.17-0.43-0.35
					C-619.62,111.11-619.52,110.91-619.41,110.7z"/>
				<path class="st2" d="M-618.12,110.77c0,0.05,0,0.11,0.01,0.16c0.04,0.23,0.17,0.31,0.31,0.29c0.14-0.02,0.27-0.15,0.36-0.35
					l0.1,0.05c-0.09,0.27-0.29,0.47-0.54,0.51c-0.21,0.03-0.41-0.1-0.46-0.37c-0.08-0.48,0.16-0.92,0.62-1
					c0.22-0.04,0.36,0.06,0.38,0.19C-617.3,110.42-617.56,110.61-618.12,110.77z M-618.11,110.73c0.38-0.17,0.58-0.31,0.57-0.41
					c-0.01-0.08-0.09-0.12-0.23-0.1C-617.96,110.25-618.09,110.47-618.11,110.73z"/>
				<path class="st2" d="M-617.23,111.58c0.14-0.14,0.25-0.28,0.24-0.37c-0.01-0.06-0.03-0.09-0.1-0.16
					c0.02-0.04,0.07-0.11,0.17-0.12c0.1-0.02,0.16,0.03,0.18,0.13c0.03,0.18-0.2,0.41-0.42,0.61L-617.23,111.58z"/>
				<path class="st2" d="M-615.54,110.73c0.01,0.06,0.05,0.09,0.11,0.08c0.16-0.03,0.4-0.2,0.49-1.17l0.25-0.04
					c-0.05,0.28-0.11,0.7-0.12,1.04c-0.02,0.56-0.2,0.77-0.73,0.86c-0.21,0.03-0.38-0.01-0.36-0.2c0.15,0.01,0.31,0.02,0.55-0.02
					c0.25-0.04,0.3-0.16,0.31-0.38c0.01-0.09,0.01-0.18,0.02-0.27c0-0.06,0.01-0.12,0.01-0.17l-0.04,0
					c-0.13,0.38-0.3,0.54-0.49,0.57c-0.16,0.03-0.23-0.05-0.25-0.16c-0.03-0.2,0.12-0.66,0.09-0.84c-0.01-0.04-0.02-0.07-0.06-0.06
					c-0.04,0.01-0.1,0.04-0.17,0.11l-0.08-0.09c0.11-0.12,0.23-0.24,0.36-0.26c0.1-0.02,0.17,0.04,0.19,0.16
					C-615.43,110.09-615.57,110.53-615.54,110.73z"/>
				<path class="st2" d="M-614.44,110.42c-0.08-0.49,0.17-0.91,0.59-0.98c0.23-0.04,0.45,0.06,0.51,0.37
					c0.08,0.48-0.17,0.92-0.59,0.99C-614.16,110.83-614.39,110.74-614.44,110.42z M-614.21,110.37c0.03,0.2,0.15,0.29,0.31,0.27
					c0.22-0.03,0.38-0.36,0.31-0.78c-0.03-0.2-0.15-0.29-0.31-0.27C-614.11,109.63-614.27,109.99-614.21,110.37z"/>
				<path class="st2" d="M-612.21,110.03l-0.04,0c-0.13,0.38-0.3,0.54-0.49,0.57c-0.16,0.03-0.23-0.05-0.25-0.16
					c-0.03-0.2,0.12-0.69,0.09-0.87c-0.01-0.04-0.02-0.07-0.06-0.06c-0.04,0.01-0.1,0.05-0.18,0.12l-0.08-0.09
					c0.11-0.12,0.24-0.24,0.36-0.26c0.1-0.02,0.17,0.03,0.19,0.16c0.03,0.21-0.11,0.69-0.08,0.87c0.01,0.06,0.05,0.09,0.12,0.07
					c0.16-0.03,0.4-0.21,0.49-1.19l0.25-0.04c-0.04,0.27-0.14,0.9-0.12,1.04c0.01,0.04,0.02,0.07,0.06,0.06
					c0.04-0.01,0.1-0.05,0.18-0.12l0.08,0.09c-0.11,0.11-0.23,0.24-0.36,0.26c-0.08,0.01-0.14-0.04-0.17-0.16
					C-612.23,110.27-612.22,110.14-612.21,110.03z"/>
				<path class="st2" d="M-611.48,110.37c0.04-0.27,0.14-0.9,0.12-1.05c-0.01-0.04-0.02-0.07-0.06-0.06
					c-0.04,0.01-0.1,0.05-0.17,0.12l-0.08-0.09c0.11-0.12,0.22-0.24,0.35-0.26c0.07-0.01,0.13,0.03,0.15,0.16
					c0.01,0.07,0,0.24-0.01,0.37l0.03,0.01c0.09-0.43,0.23-0.6,0.37-0.62c0.08-0.01,0.11,0.07,0.14,0.26
					c-0.34,0.07-0.51,0.2-0.6,1.12L-611.48,110.37z"/>
				<path class="st2" d="M-608.98,109.04c-0.11-0.12-0.23-0.21-0.38-0.18c-0.25,0.04-0.39,0.42-0.34,0.72
					c0.03,0.2,0.16,0.3,0.3,0.28c0.16-0.03,0.28-0.15,0.37-0.35l0.1,0.05c-0.1,0.27-0.28,0.47-0.55,0.52
					c-0.2,0.03-0.4-0.11-0.45-0.38c-0.07-0.41,0.14-0.92,0.61-1c0.25-0.04,0.38,0.05,0.39,0.16c0.01,0.06-0.01,0.14-0.03,0.17
					L-608.98,109.04z"/>
				<path class="st2" d="M-608.59,108.31c-0.04,0.01-0.1,0.05-0.17,0.12l-0.08-0.09c0.11-0.11,0.23-0.24,0.36-0.26
					c0.09-0.01,0.16,0.03,0.18,0.16c0.02,0.11-0.03,0.52-0.06,0.8l0.04,0.01c0.13-0.39,0.31-0.55,0.5-0.58
					c0.16-0.03,0.23,0.05,0.25,0.16c0.03,0.2-0.12,0.68-0.09,0.87c0.01,0.04,0.02,0.07,0.06,0.06c0.04-0.01,0.1-0.05,0.17-0.12
					l0.08,0.09c-0.11,0.12-0.23,0.24-0.36,0.26c-0.1,0.02-0.17-0.03-0.19-0.16c-0.03-0.21,0.11-0.66,0.08-0.87
					c-0.01-0.06-0.05-0.09-0.12-0.07c-0.15,0.02-0.4,0.21-0.49,1.2l-0.25,0.04c0.05-0.39,0.17-1.35,0.14-1.55
					C-608.54,108.33-608.56,108.31-608.59,108.31z"/>
				<path class="st2" d="M-606.19,109.32c0.04-0.01,0.1-0.05,0.17-0.12l0.09,0.09c-0.11,0.12-0.23,0.24-0.36,0.26
					c-0.08,0.01-0.14-0.04-0.16-0.15c-0.01-0.07,0-0.21,0-0.33l-0.03,0c-0.11,0.4-0.33,0.57-0.48,0.6
					c-0.12,0.02-0.23-0.07-0.27-0.26c-0.08-0.48,0.27-1.13,1.08-1.2c-0.05,0.38-0.12,0.89-0.09,1.05
					C-606.24,109.3-606.22,109.33-606.19,109.32z M-606.4,108.38c-0.46,0.13-0.66,0.54-0.6,0.92c0.02,0.12,0.07,0.16,0.15,0.14
					C-606.73,109.43-606.51,109.29-606.4,108.38z"/>
				<path class="st2" d="M-605.44,109.14c0.01,0.03,0.02,0.06,0.05,0.05c0.04-0.01,0.11-0.04,0.18-0.12l0.08,0.09
					c-0.11,0.11-0.23,0.24-0.36,0.26c-0.1,0.02-0.17-0.03-0.19-0.15c-0.03-0.16,0.1-0.71,0.07-0.88c-0.01-0.04-0.02-0.06-0.05-0.06
					c-0.04,0.01-0.1,0.04-0.17,0.11l-0.09-0.09c0.11-0.12,0.23-0.24,0.36-0.26c0.09-0.02,0.17,0.03,0.19,0.16
					C-605.35,108.44-605.47,108.95-605.44,109.14z M-605.64,107.73c-0.02-0.12,0.05-0.18,0.16-0.2c0.08-0.01,0.14,0.02,0.15,0.11
					c0.02,0.12-0.04,0.19-0.16,0.21C-605.57,107.86-605.63,107.82-605.64,107.73z"/>
				<path class="st2" d="M-603.44,108.12c-0.01-0.06-0.05-0.22-0.07-0.34c0.17-0.04,0.23,0,0.26,0.17c0.03,0.19,0,0.5-0.1,0.76
					c-0.08,0.23-0.21,0.42-0.37,0.44c-0.11,0.02-0.22-0.13-0.27-0.44c-0.07,0.31-0.2,0.52-0.35,0.54c-0.19,0.03-0.36-0.17-0.39-0.36
					c-0.03-0.17,0.05-0.37,0.14-0.58c-0.07-0.06-0.13-0.1-0.2-0.09c-0.08,0.01-0.15,0.11-0.19,0.32l-0.12-0.02
					c0.04-0.29,0.14-0.53,0.28-0.55c0.09-0.01,0.19,0.05,0.28,0.15c0.02-0.09,0.03-0.16,0.04-0.2l0.13,0.02
					c-0.11,0.39-0.17,0.64-0.15,0.82c0.03,0.16,0.12,0.29,0.21,0.28c0.12-0.02,0.22-0.22,0.28-0.49c-0.05-0.2-0.08-0.45-0.08-0.65
					l0.27-0.04c-0.01,0.3-0.07,0.49-0.12,0.7c0.11,0.25,0.2,0.39,0.29,0.38C-603.53,108.91-603.38,108.52-603.44,108.12z"/>
				<path class="st2" d="M-601.98,108.64c0.04-0.01,0.1-0.05,0.17-0.12l0.09,0.09c-0.11,0.12-0.23,0.24-0.36,0.26
					c-0.08,0.01-0.14-0.04-0.16-0.15c-0.01-0.07-0.01-0.21,0-0.33l-0.03,0c-0.11,0.4-0.33,0.57-0.48,0.6
					c-0.12,0.02-0.23-0.07-0.27-0.26c-0.08-0.48,0.27-1.13,1.08-1.2c-0.05,0.38-0.12,0.89-0.09,1.05
					C-602.03,108.62-602.01,108.65-601.98,108.64z M-602.19,107.7c-0.46,0.13-0.66,0.54-0.6,0.92c0.02,0.12,0.07,0.16,0.15,0.14
					C-602.52,108.75-602.3,108.61-602.19,107.7z"/>
				<path class="st2" d="M-601.46,107.16c-0.04,0.01-0.1,0.05-0.17,0.12l-0.09-0.09c0.11-0.11,0.24-0.24,0.37-0.26
					c0.09-0.01,0.16,0.03,0.18,0.16c0.04,0.24-0.14,1.15-0.1,1.38c0.01,0.04,0.02,0.07,0.06,0.06c0.04-0.01,0.1-0.05,0.17-0.12
					l0.08,0.09c-0.11,0.12-0.23,0.24-0.36,0.26c-0.1,0.02-0.17-0.03-0.19-0.16c-0.04-0.23,0.15-1.15,0.11-1.38
					C-601.42,107.18-601.43,107.15-601.46,107.16z"/>
				<path class="st2" d="M-599.82,108.29c0.04-0.01,0.1-0.05,0.17-0.12l0.09,0.09c-0.11,0.12-0.23,0.24-0.36,0.26
					c-0.08,0.01-0.14-0.04-0.16-0.15c-0.01-0.07-0.01-0.21,0-0.33l-0.03,0c-0.11,0.4-0.33,0.57-0.48,0.6
					c-0.12,0.02-0.23-0.07-0.27-0.26c-0.08-0.48,0.27-1.13,1.08-1.2c-0.05,0.38-0.12,0.89-0.09,1.05
					C-599.87,108.27-599.85,108.3-599.82,108.29z M-600.03,107.35c-0.46,0.13-0.66,0.54-0.6,0.92c0.02,0.12,0.07,0.16,0.15,0.14
					C-600.36,108.4-600.14,108.26-600.03,107.35z"/>
			</g>
		</g>
	</g>
	<g>
		<g>
			<g>
				<path class="st2" d="M-542.45,149.77l-47.22-4.23c-1.82-0.16-3.17-1.78-3.01-3.6l5.2-58.11l1.64,0.15
					c0.17-0.12,0.61-0.46,0.64-0.9c0.02-0.29-0.15-0.59-0.5-0.9l-1.61-0.13l0.49-5.52c0.08-0.89,0.5-1.7,1.19-2.26
					c0.69-0.57,1.57-0.83,2.45-0.74l47.22,4.22c1.8,0.19,3.13,1.8,2.97,3.6l-0.49,5.44l-1.95-0.17c-0.16,0.09-0.58,0.38-0.64,0.79
					c-0.04,0.31,0.12,0.65,0.49,1.01l1.94,0.17l-5.2,58.17C-539.02,148.58-540.63,149.93-542.45,149.77z"/>
				<path class="st0" d="M-587.01,84.4l-5.15,57.59c-0.14,1.54,1,2.9,2.54,3.03l47.22,4.23c1.54,0.14,2.9-1,3.03-2.54l5.16-57.65
					l-1.6-0.14l-0.07-0.06c-0.55-0.51-0.78-1.03-0.71-1.53c0.12-0.78,0.94-1.2,0.98-1.21l0.07-0.03l1.59,0.14l0.44-4.92
					c0.14-1.52-0.99-2.88-2.5-3.03l-47.22-4.22c-0.74-0.07-1.49,0.14-2.07,0.62c-0.58,0.48-0.94,1.16-1.01,1.91l-0.45,5l1.25,0.1
					l0.06,0.05c0.54,0.44,0.79,0.9,0.76,1.39c-0.06,0.81-0.93,1.33-0.96,1.35l-0.07,0.04L-587.01,84.4z"/>
			</g>
			<g>
				<path class="st2" d="M-542.31,146.68l-47.63-4.26l4.71-52.64l47.64,4.26L-542.31,146.68z M-589.38,141.94l46.6,4.17l4.62-51.6
					l-46.6-4.17L-589.38,141.94z"/>
			</g>
			<g>
				
					<rect x="-561.04" y="61.05" transform="matrix(0.0891 -0.996 0.996 0.0891 -595.1648 -481.3884)" class="st2" width="0.52" height="47.3"/>
			</g>
			<g>
				
					<rect x="-561.15" y="62.29" transform="matrix(0.0891 -0.996 0.996 0.0891 -596.4997 -480.3704)" class="st2" width="0.52" height="47.3"/>
			</g>
		</g>
		<g>
			<path class="st2" d="M-554.44,108.75c-0.05,0.41,0.03,0.83,0.27,1.18c0.03,0.05,0.07,0.09,0.1,0.14
				c0.15,0.21,0.36,0.39,0.62,0.55c0.39,0.24,0.9,0.39,1.52,0.45c0,0,0.01,0,0.01,0s0.01,0,0.01,0c0.62,0.06,1.15,0,1.57-0.17
				c0.29-0.11,0.52-0.26,0.71-0.43c0.04-0.04,0.09-0.08,0.13-0.12c0.26-0.27,0.42-0.6,0.46-0.98c0.03-0.03,0.06-0.06,0.09-0.09
				c0,0,0.39-0.25,0.5-0.82c0.04-0.24,0.15-0.45,0.33-0.65c0.22-0.2,0.42-0.26,0.65-0.09l0.15-0.24c-0.1-0.1-0.2-0.17-0.3-0.22
				c-0.21-0.1-0.42-0.14-0.65-0.1c-0.22,0.04-0.41,0.14-0.58,0.31c-0.1,0.11-0.19,0.22-0.25,0.35c-0.04,0.09-0.09,0.2-0.14,0.33
				c-0.01,0.02-0.02,0.05-0.03,0.08c-0.07-0.1-0.15-0.2-0.24-0.29c-0.36-0.36-0.87-0.61-1.51-0.76l-0.27-0.06
				c0,0-0.25-0.05-0.25-0.05l-0.24-0.05c-0.33-0.08-0.57-0.22-0.73-0.42c-0.2-0.26-0.28-0.64-0.23-1.14
				c0.03-0.31,0.12-0.56,0.27-0.77c0.15-0.21,0.34-0.36,0.58-0.45c0.23-0.09,0.48-0.13,0.74-0.1c0.27,0.02,0.49,0.09,0.67,0.19
				c0.18,0.1,0.32,0.22,0.4,0.35c0.08,0.14,0.12,0.27,0.11,0.4c-0.02,0.21-0.09,0.36-0.23,0.44c-0.13,0.07-0.27,0.11-0.43,0.09
				c-0.06-0.01-0.1-0.01-0.11-0.02c-0.01,0.08,0.01,0.19,0.04,0.3c0.03,0.12,0.1,0.23,0.19,0.32c0.09,0.1,0.22,0.15,0.37,0.17
				c0.24,0.02,0.44-0.04,0.61-0.19c0.17-0.15,0.27-0.36,0.29-0.63c0.02-0.18-0.04-0.38-0.15-0.61c-0.11-0.23-0.31-0.43-0.6-0.61
				c-0.28-0.18-0.66-0.29-1.13-0.33c-0.68-0.06-1.27,0.02-1.78,0.24c-0.51,0.22-0.79,0.6-0.83,1.14c-0.04,0.45,0.09,0.81,0.38,1.1
				c0.3,0.28,0.71,0.49,1.25,0.62c-0.66,0.03-1.2,0.18-1.62,0.48C-554.16,107.85-554.36,108.27-554.44,108.75z M-552.79,107.57
				c0.3-0.26,0.71-0.38,1.21-0.34c0.5,0.05,0.88,0.24,1.13,0.55c0.26,0.32,0.36,0.8,0.3,1.44c-0.1,1.16-0.69,1.71-1.76,1.65
				c-1.06-0.13-1.54-0.77-1.44-1.94C-553.29,108.3-553.1,107.84-552.79,107.57z"/>
			<g>
				<path class="st2" d="M-572.66,107.24c-0.35-0.06-0.72-0.1-1.08-0.13c-0.35-0.03-0.69-0.05-1.03-0.06l0.01-0.16l0.59-0.27
					l0.17-1.89c0.06-0.68-0.21-1.1-0.7-1.14c-0.31-0.03-0.53-0.02-0.88,0.11l-0.25,2.79l0.54,0.35l-0.01,0.16
					c-0.36-0.06-0.73-0.11-1.09-0.14c-0.35-0.03-0.69-0.04-1.03-0.05l0.01-0.16l0.59-0.25l0.46-5.2l-0.59-0.55l0.03-0.18l1,0
					c0.3,0,0.46,0.01,0.5,0.01c0.1,0.01,0.12,0.05,0.11,0.14l-0.26,2.91c0.53-0.37,0.99-0.63,1.48-0.58
					c0.86,0.08,1.18,0.66,1.11,1.52l-0.2,2.23l0.53,0.37L-572.66,107.24z"/>
				<path class="st2" d="M-570.2,107.56c-1.06-0.1-1.81-0.87-1.69-2.16c0.14-1.53,1.15-2.15,2.19-2.05
					c1.02,0.09,1.51,0.73,1.44,1.61c-0.01,0.15-0.04,0.3-0.09,0.46l-2.51-0.22c-0.04,1.1,0.57,1.65,1.28,1.71
					c0.38,0.03,0.65-0.01,1-0.12l0.09,0.16C-568.81,107.21-569.38,107.63-570.2,107.56z M-570.83,104.9l1.5,0.07
					c0.02-0.11,0.04-0.2,0.04-0.3c0.05-0.55-0.13-1.03-0.58-1.07C-570.33,103.57-570.71,104.06-570.83,104.9z"/>
				<path class="st2" d="M-565.39,107.89c-0.35-0.06-0.77-0.11-1.24-0.15c-0.42-0.04-0.85-0.07-1.17-0.07l0.01-0.16l0.6-0.26
					l0.26-2.86l-0.58-0.51l0.01-0.16l0.85-0.01c0.18-0.01,0.49-0.01,0.54-0.01c0.08,0.01,0.11,0.06,0.12,0.15l0.03,0.55
					c0.38-0.3,0.77-0.64,1.13-0.61c0.29,0.03,0.49,0.25,0.46,0.61c-0.05,0.57-0.64,0.68-0.88,0.66c0.05-0.08,0.08-0.15,0.08-0.22
					c0.02-0.21-0.12-0.36-0.35-0.38c-0.14-0.01-0.28,0.04-0.44,0.12l-0.24,2.67l0.81,0.49L-565.39,107.89z"/>
				<path class="st2" d="M-562.1,108.28c-0.57-0.05-1.26-0.31-1.55-0.5l0.48-5.38l-0.59-0.55l0.03-0.18l1,0
					c0.3,0,0.46,0.01,0.51,0.01c0.09,0.01,0.11,0.05,0.11,0.14l-0.26,2.85c0.45-0.3,0.87-0.58,1.41-0.54
					c1.08,0.1,1.46,1.02,1.37,2.03C-559.71,107.4-560.54,108.42-562.1,108.28z M-561.68,107.97c0.51,0.05,0.93-0.54,1.02-1.54
					c0.09-0.98-0.17-1.62-0.95-1.69c-0.31-0.03-0.51,0.01-0.78,0.12l-0.22,2.48C-562.43,107.67-562.09,107.94-561.68,107.97z"/>
				<path class="st2" d="M-558.85,108.36l0.08-1.29l0.23,0.02l0.58,1.09c0.18,0.16,0.34,0.2,0.55,0.22
					c0.37,0.03,0.63-0.18,0.66-0.49c0.04-0.46-0.34-0.7-0.88-1.02c-0.61-0.35-1.09-0.64-1.02-1.37c0.06-0.71,0.77-1.12,1.65-1.04
					c0.48,0.04,0.93,0.21,1.17,0.35l-0.09,1.05l-0.18-0.02l-0.63-0.97c-0.1-0.08-0.21-0.13-0.4-0.14c-0.29-0.03-0.58,0.11-0.61,0.45
					c-0.03,0.35,0.32,0.66,0.86,0.97c0.59,0.34,1.1,0.71,1.03,1.42c-0.06,0.71-0.73,1.19-1.64,1.11
					C-558.01,108.65-558.46,108.52-558.85,108.36z"/>
			</g>
			<g>
				<g>
					<path class="st2" d="M-575.9,114.59c-0.39-0.05-0.74-0.09-1.17-0.13c-0.35-0.03-0.77-0.06-1.09-0.07l0.01-0.16l0.65-0.25
						l0.46-5.19l-0.59-0.55l0.03-0.18l1,0c0.31,0,0.47,0.01,0.52,0.01c0.09,0.01,0.11,0.05,0.11,0.14l-0.52,5.85l0.62,0.37
						L-575.9,114.59z M-573.52,114.8l-1.35-0.12c-0.06-0.23-0.33-0.83-0.51-1.23c-0.26-0.54-0.43-0.83-0.83-0.95l0.02-0.19
						l0.54-0.05c0.33-0.19,0.8-0.63,1.01-0.98l-0.65-0.48l0.02-0.17c0.39,0.05,0.74,0.09,1.01,0.12c0.23,0.02,0.6,0.04,0.93,0.06
						l-0.02,0.18c-0.21,0.1-0.51,0.3-0.83,0.58c-0.32,0.27-0.63,0.58-1.01,0.8c0.33,0.09,0.53,0.33,0.79,0.89
						c0.24,0.54,0.4,0.85,0.54,1.1l0.35,0.3L-573.52,114.8z"/>
					<path class="st2" d="M-570.99,115.12c-1.06-0.1-1.81-0.87-1.69-2.16c0.14-1.53,1.15-2.15,2.19-2.05
						c1.02,0.09,1.51,0.73,1.44,1.61c-0.01,0.15-0.04,0.3-0.09,0.46l-2.51-0.22c-0.04,1.1,0.57,1.65,1.28,1.71
						c0.38,0.03,0.65-0.01,1-0.12l0.09,0.16C-569.61,114.77-570.17,115.19-570.99,115.12z M-571.63,112.47l1.5,0.07
						c0.02-0.11,0.04-0.2,0.04-0.3c0.05-0.55-0.13-1.03-0.58-1.07C-571.13,111.13-571.51,111.63-571.63,112.47z"/>
					<path class="st2" d="M-567,115.48c-0.35-0.03-0.81-0.22-0.74-1l0.25-2.76l-0.54-0.05l0.02-0.26l0.6-0.16l0.85-1.05l0.21,0.02
						l-0.11,1.2l0.97,0.09l-0.04,0.42l-0.97-0.09l-0.2,2.25c-0.05,0.56,0.25,0.71,0.51,0.74c0.17,0.02,0.31-0.04,0.45-0.09l0.09,0.2
						C-565.91,115.16-566.46,115.53-567,115.48z"/>
					<path class="st2" d="M-563.75,115.77c-0.35-0.03-0.81-0.22-0.74-1l0.25-2.76l-0.54-0.05l0.02-0.26l0.6-0.16l0.85-1.05
						l0.21,0.02l-0.11,1.2l0.97,0.09l-0.04,0.42l-0.97-0.09l-0.2,2.25c-0.05,0.56,0.25,0.71,0.51,0.74
						c0.17,0.02,0.31-0.04,0.45-0.09l0.09,0.2C-562.66,115.45-563.21,115.82-563.75,115.77z"/>
					<path class="st2" d="M-559.68,116.04c-0.36-0.05-0.74-0.09-1.11-0.13c-0.34-0.03-0.68-0.05-1-0.06l0.01-0.16l0.59-0.26
						l0.46-5.19l-0.59-0.55l0.02-0.18l1,0c0.3,0,0.47,0.01,0.51,0.01c0.1,0.01,0.12,0.05,0.11,0.14l-0.53,5.87l0.53,0.35
						L-559.68,116.04z"/>
					<path class="st2" d="M-556.88,116.38c-1.06-0.1-1.81-0.87-1.69-2.16c0.14-1.53,1.15-2.15,2.19-2.05
						c1.02,0.09,1.51,0.73,1.44,1.61c-0.01,0.15-0.04,0.3-0.09,0.46l-2.51-0.22c-0.04,1.1,0.57,1.65,1.28,1.71
						c0.38,0.03,0.65-0.01,1-0.12l0.09,0.16C-555.49,116.04-556.06,116.46-556.88,116.38z M-557.51,113.73l1.5,0.07
						c0.02-0.11,0.04-0.2,0.04-0.3c0.05-0.55-0.13-1.03-0.58-1.07C-557.01,112.4-557.39,112.89-557.51,113.73z"/>
					<path class="st2" d="M-553.91,116.44l0.08-1.29l0.23,0.02l0.58,1.09c0.18,0.16,0.34,0.2,0.55,0.22
						c0.37,0.03,0.63-0.18,0.66-0.49c0.04-0.46-0.34-0.7-0.88-1.02c-0.61-0.35-1.09-0.64-1.02-1.37c0.06-0.71,0.77-1.12,1.65-1.04
						c0.48,0.04,0.93,0.21,1.17,0.35l-0.09,1.05l-0.18-0.02l-0.63-0.97c-0.1-0.08-0.21-0.13-0.4-0.14
						c-0.29-0.03-0.58,0.11-0.61,0.45c-0.03,0.35,0.32,0.66,0.86,0.97c0.59,0.34,1.1,0.71,1.03,1.42s-0.73,1.19-1.64,1.11
						C-553.08,116.72-553.52,116.6-553.91,116.44z"/>
				</g>
			</g>
			<g>
				<path class="st2" d="M-576.76,117.11c0.01-0.06,0.01-0.22,0.02-0.35c0.17,0,0.22,0.05,0.21,0.22c-0.02,0.19-0.13,0.48-0.29,0.71
					c-0.14,0.2-0.31,0.35-0.47,0.34c-0.11-0.01-0.18-0.18-0.15-0.5c-0.15,0.28-0.32,0.45-0.47,0.44c-0.19-0.02-0.3-0.26-0.29-0.45
					c0.02-0.17,0.14-0.35,0.28-0.52c-0.05-0.08-0.1-0.13-0.17-0.13c-0.08-0.01-0.17,0.07-0.27,0.27l-0.11-0.05
					c0.11-0.27,0.26-0.48,0.4-0.46c0.09,0.01,0.17,0.1,0.23,0.21c0.04-0.09,0.07-0.15,0.09-0.18l0.12,0.05
					c-0.21,0.35-0.33,0.58-0.34,0.76c-0.01,0.17,0.05,0.31,0.14,0.32c0.12,0.01,0.27-0.16,0.4-0.4c0-0.2,0.04-0.46,0.08-0.65
					l0.27,0.02c-0.08,0.29-0.18,0.46-0.29,0.65c0.04,0.27,0.09,0.43,0.19,0.44C-577.04,117.84-576.79,117.5-576.76,117.11z"/>
				<path class="st2" d="M-576.09,117.85c0,0.03,0.01,0.06,0.04,0.06c0.04,0,0.11-0.02,0.2-0.07l0.06,0.11
					c-0.14,0.08-0.29,0.18-0.41,0.16c-0.1-0.01-0.16-0.07-0.15-0.2c0.01-0.17,0.27-0.67,0.29-0.84c0-0.04-0.01-0.06-0.04-0.07
					c-0.04,0-0.11,0.02-0.19,0.07l-0.06-0.11c0.14-0.09,0.28-0.17,0.41-0.16c0.09,0.01,0.15,0.07,0.14,0.2
					C-575.83,117.19-576.08,117.66-576.09,117.85z M-575.94,116.44c0.01-0.12,0.09-0.17,0.21-0.16c0.08,0.01,0.13,0.05,0.12,0.14
					c-0.01,0.12-0.09,0.17-0.21,0.16C-575.9,116.58-575.95,116.53-575.94,116.44z"/>
				<path class="st2" d="M-575.25,117.06l-0.19-0.02l0.05-0.15l0.2,0.02c0.08-0.07,0.16-0.18,0.24-0.34l0.12,0.04
					c-0.04,0.1-0.08,0.21-0.12,0.33l0.39,0.03l-0.05,0.15l-0.39-0.03c-0.14,0.37-0.27,0.73-0.28,0.83c0,0.04,0.01,0.07,0.05,0.08
					c0.07,0.01,0.19-0.04,0.35-0.14l0.06,0.11c-0.19,0.14-0.4,0.26-0.57,0.24c-0.11-0.01-0.17-0.08-0.15-0.2
					C-575.55,117.83-575.4,117.47-575.25,117.06z"/>
				<path class="st2" d="M-574.22,116.7c-0.04,0-0.11,0.02-0.2,0.07l-0.06-0.11c0.14-0.08,0.29-0.18,0.42-0.16
					c0.09,0.01,0.15,0.07,0.14,0.2c-0.01,0.11-0.15,0.49-0.25,0.76l0.04,0.02c0.22-0.35,0.44-0.45,0.62-0.44
					c0.16,0.01,0.22,0.1,0.21,0.21c-0.02,0.2-0.29,0.63-0.31,0.82c0,0.04,0.01,0.07,0.04,0.07c0.04,0,0.11-0.02,0.2-0.07l0.06,0.11
					c-0.14,0.09-0.29,0.18-0.42,0.17c-0.1-0.01-0.15-0.07-0.14-0.2c0.02-0.21,0.27-0.61,0.29-0.83c0.01-0.06-0.03-0.09-0.1-0.1
					c-0.15-0.01-0.44,0.11-0.77,1.04l-0.25-0.02c0.15-0.37,0.5-1.27,0.52-1.46C-574.17,116.72-574.19,116.7-574.22,116.7z"/>
				<path class="st2" d="M-572.14,116.88c-0.04,0-0.11,0.02-0.2,0.07l-0.06-0.11c0.14-0.08,0.29-0.18,0.42-0.16
					c0.09,0.01,0.15,0.07,0.14,0.2c-0.02,0.24-0.42,1.08-0.44,1.31c0,0.04,0.01,0.07,0.04,0.07c0.04,0,0.11-0.02,0.2-0.07l0.06,0.11
					c-0.14,0.09-0.29,0.18-0.42,0.17c-0.1-0.01-0.15-0.07-0.14-0.2c0.02-0.23,0.43-1.08,0.45-1.31
					C-572.1,116.91-572.11,116.88-572.14,116.88z"/>
				<path class="st2" d="M-571.8,118.07c0.04-0.49,0.39-0.84,0.81-0.81c0.23,0.02,0.43,0.17,0.4,0.48
					c-0.04,0.48-0.39,0.85-0.81,0.81C-571.63,118.53-571.82,118.39-571.8,118.07z M-571.56,118.08c-0.02,0.2,0.07,0.32,0.24,0.34
					c0.22,0.02,0.46-0.25,0.5-0.68c0.02-0.2-0.07-0.32-0.23-0.34C-571.28,117.38-571.52,117.69-571.56,118.08z"/>
				<path class="st2" d="M-569.91,117.72c-0.05-0.08-0.1-0.13-0.17-0.13c-0.08-0.01-0.17,0.07-0.27,0.27l-0.11-0.05
					c0.11-0.27,0.26-0.48,0.4-0.46c0.09,0.01,0.17,0.1,0.23,0.21c0.04-0.09,0.07-0.15,0.09-0.18l0.12,0.05
					c-0.21,0.36-0.37,0.57-0.38,0.75c-0.01,0.16,0.1,0.31,0.23,0.32c0.18,0.02,0.44-0.32,0.47-0.72c0.01-0.06,0.01-0.22,0.02-0.35
					c0.17,0,0.22,0.05,0.21,0.22c-0.03,0.36-0.41,1.08-0.84,1.04c-0.2-0.02-0.35-0.26-0.33-0.45
					C-570.22,118.07-570.07,117.9-569.91,117.72z"/>
				<path class="st2" d="M-568.68,118.1c-0.02,0.05-0.03,0.1-0.03,0.16c-0.02,0.23,0.09,0.34,0.23,0.35
					c0.14,0.01,0.3-0.08,0.43-0.25l0.09,0.07c-0.16,0.24-0.39,0.39-0.65,0.36c-0.21-0.02-0.38-0.2-0.35-0.48
					c0.04-0.48,0.38-0.85,0.85-0.81c0.22,0.02,0.33,0.14,0.32,0.28C-567.8,117.97-568.1,118.08-568.68,118.1z M-568.66,118.07
					c0.41-0.07,0.64-0.16,0.65-0.26c0.01-0.08-0.06-0.14-0.2-0.15C-568.4,117.63-568.58,117.82-568.66,118.07z"/>
				<path class="st2" d="M-568.01,119.11c0.17-0.1,0.31-0.21,0.32-0.3c0.01-0.06-0.01-0.1-0.06-0.18c0.03-0.03,0.1-0.09,0.2-0.08
					c0.1,0.01,0.15,0.07,0.14,0.17c-0.02,0.19-0.29,0.35-0.55,0.48L-568.01,119.11z"/>
				<path class="st2" d="M-566.17,118.7c-0.01,0.06,0.03,0.09,0.09,0.1c0.16,0.01,0.44-0.1,0.77-1.01l0.25,0.02
					c-0.11,0.26-0.28,0.65-0.38,0.98c-0.16,0.54-0.39,0.7-0.92,0.65c-0.22-0.02-0.37-0.11-0.3-0.28c0.14,0.05,0.29,0.1,0.54,0.12
					c0.25,0.02,0.33-0.08,0.4-0.29c0.03-0.09,0.06-0.17,0.08-0.25c0.02-0.06,0.03-0.11,0.05-0.16l-0.03-0.01
					c-0.22,0.34-0.43,0.45-0.62,0.43c-0.16-0.01-0.22-0.1-0.21-0.21c0.02-0.2,0.28-0.61,0.3-0.79c0-0.04-0.01-0.07-0.04-0.07
					c-0.04,0-0.11,0.01-0.19,0.06l-0.06-0.11c0.14-0.09,0.29-0.18,0.41-0.16c0.1,0.01,0.16,0.08,0.15,0.21
					C-565.9,118.1-566.15,118.5-566.17,118.7z"/>
				<path class="st2" d="M-565.03,118.67c0.04-0.49,0.39-0.84,0.81-0.81c0.23,0.02,0.43,0.17,0.4,0.48
					c-0.04,0.48-0.39,0.85-0.81,0.81C-564.86,119.14-565.05,118.99-565.03,118.67z M-564.79,118.68c-0.02,0.2,0.07,0.32,0.24,0.34
					c0.22,0.02,0.46-0.25,0.5-0.68c0.02-0.2-0.07-0.32-0.23-0.34C-564.51,117.99-564.75,118.3-564.79,118.68z"/>
				<path class="st2" d="M-562.77,118.85l-0.03-0.01c-0.22,0.34-0.43,0.45-0.62,0.43c-0.16-0.01-0.22-0.1-0.21-0.21
					c0.02-0.2,0.29-0.64,0.31-0.82c0-0.04-0.01-0.07-0.04-0.07c-0.04,0-0.11,0.02-0.2,0.07l-0.06-0.11
					c0.14-0.09,0.29-0.18,0.42-0.16c0.1,0.01,0.16,0.07,0.15,0.2c-0.02,0.21-0.28,0.64-0.3,0.83c-0.01,0.06,0.03,0.1,0.09,0.1
					c0.16,0.01,0.44-0.1,0.77-1.04l0.25,0.02c-0.11,0.25-0.36,0.84-0.37,0.98c0,0.04,0.01,0.07,0.04,0.07c0.04,0,0.11-0.02,0.2-0.07
					l0.06,0.11c-0.14,0.08-0.29,0.18-0.42,0.16c-0.08-0.01-0.13-0.07-0.12-0.2C-562.84,119.07-562.81,118.95-562.77,118.85z"/>
				<path class="st2" d="M-562.15,119.36c0.11-0.25,0.36-0.84,0.37-0.98c0-0.04-0.01-0.07-0.04-0.07c-0.04,0-0.11,0.02-0.2,0.07
					l-0.06-0.11c0.14-0.09,0.27-0.17,0.4-0.16c0.07,0.01,0.12,0.06,0.11,0.19c-0.01,0.07-0.06,0.23-0.1,0.35l0.03,0.01
					c0.19-0.39,0.37-0.52,0.51-0.51c0.08,0.01,0.09,0.09,0.07,0.29c-0.35-0.02-0.55,0.07-0.86,0.94L-562.15,119.36z"/>
				<path class="st2" d="M-559.39,118.69c-0.08-0.15-0.18-0.26-0.32-0.27c-0.25-0.02-0.48,0.31-0.5,0.62
					c-0.02,0.2,0.08,0.33,0.23,0.35c0.16,0.01,0.31-0.08,0.44-0.25l0.09,0.07c-0.16,0.24-0.39,0.39-0.66,0.36
					c-0.2-0.02-0.36-0.2-0.34-0.47c0.04-0.41,0.36-0.86,0.84-0.81c0.25,0.02,0.35,0.14,0.34,0.26c-0.01,0.06-0.04,0.13-0.07,0.16
					L-559.39,118.69z"/>
				<path class="st2" d="M-558.84,118.07c-0.04,0-0.11,0.02-0.2,0.07l-0.06-0.11c0.14-0.08,0.29-0.18,0.42-0.16
					c0.09,0.01,0.15,0.07,0.14,0.2c-0.01,0.11-0.15,0.49-0.25,0.76l0.04,0.02c0.22-0.35,0.44-0.45,0.62-0.44
					c0.16,0.01,0.22,0.1,0.21,0.21c-0.02,0.2-0.29,0.63-0.31,0.82c0,0.04,0.01,0.07,0.04,0.07c0.04,0,0.11-0.02,0.2-0.07l0.06,0.11
					c-0.14,0.09-0.29,0.18-0.42,0.17c-0.1-0.01-0.15-0.07-0.14-0.2c0.02-0.21,0.27-0.61,0.29-0.83c0.01-0.06-0.03-0.09-0.1-0.1
					c-0.15-0.01-0.44,0.11-0.77,1.04l-0.25-0.02c0.15-0.37,0.5-1.27,0.52-1.46C-558.79,118.1-558.81,118.08-558.84,118.07z"/>
				<path class="st2" d="M-556.76,119.64c0.04,0,0.11-0.02,0.2-0.07l0.06,0.11c-0.14,0.09-0.29,0.18-0.42,0.17
					c-0.08-0.01-0.13-0.07-0.12-0.19c0.01-0.07,0.05-0.21,0.08-0.32l-0.03-0.01c-0.2,0.36-0.46,0.47-0.62,0.46
					c-0.12-0.01-0.21-0.12-0.19-0.32c0.04-0.49,0.54-1.03,1.34-0.9c-0.14,0.36-0.33,0.83-0.35,1
					C-556.8,119.61-556.79,119.64-556.76,119.64z M-556.73,118.68c-0.48,0.01-0.77,0.36-0.81,0.75c-0.01,0.12,0.02,0.17,0.11,0.18
					C-557.31,119.62-557.06,119.53-556.73,118.68z"/>
				<path class="st2" d="M-555.99,119.65c0,0.03,0.01,0.06,0.04,0.06c0.04,0,0.11-0.02,0.2-0.07l0.06,0.11
					c-0.14,0.08-0.29,0.18-0.41,0.16c-0.1-0.01-0.16-0.07-0.15-0.2c0.01-0.17,0.27-0.67,0.29-0.84c0-0.04-0.01-0.06-0.04-0.07
					c-0.04,0-0.11,0.02-0.19,0.07l-0.06-0.11c0.14-0.09,0.28-0.17,0.41-0.16c0.09,0.01,0.15,0.07,0.14,0.2
					C-555.72,118.99-555.97,119.46-555.99,119.65z M-555.84,118.24c0.01-0.12,0.09-0.17,0.21-0.16c0.08,0.01,0.13,0.05,0.12,0.14
					c-0.01,0.12-0.09,0.17-0.21,0.16C-555.8,118.38-555.85,118.33-555.84,118.24z"/>
				<path class="st2" d="M-553.8,119.16c0.01-0.06,0.01-0.22,0.02-0.35c0.17,0,0.22,0.05,0.21,0.22c-0.02,0.19-0.13,0.48-0.29,0.71
					c-0.14,0.2-0.31,0.35-0.47,0.34c-0.11-0.01-0.18-0.18-0.15-0.5c-0.15,0.28-0.32,0.45-0.47,0.44c-0.19-0.02-0.3-0.26-0.29-0.45
					c0.02-0.17,0.14-0.35,0.28-0.52c-0.05-0.08-0.1-0.13-0.17-0.13c-0.08-0.01-0.17,0.07-0.27,0.27l-0.11-0.05
					c0.11-0.27,0.26-0.48,0.4-0.46c0.09,0.01,0.17,0.1,0.23,0.21c0.04-0.09,0.07-0.15,0.09-0.18l0.12,0.05
					c-0.21,0.35-0.33,0.58-0.34,0.76c-0.01,0.17,0.05,0.31,0.14,0.32c0.12,0.01,0.27-0.16,0.4-0.4c0-0.2,0.04-0.46,0.08-0.65
					l0.27,0.02c-0.08,0.29-0.18,0.46-0.29,0.65c0.04,0.27,0.09,0.43,0.19,0.44C-554.08,119.9-553.84,119.56-553.8,119.16z"/>
				<path class="st2" d="M-552.51,120.02c0.04,0,0.11-0.02,0.2-0.07l0.06,0.11c-0.14,0.09-0.29,0.18-0.42,0.17
					c-0.08-0.01-0.13-0.07-0.12-0.19c0.01-0.07,0.05-0.21,0.08-0.32l-0.03-0.01c-0.2,0.36-0.46,0.47-0.62,0.46
					c-0.12-0.01-0.21-0.12-0.19-0.32c0.04-0.49,0.54-1.03,1.34-0.9c-0.14,0.36-0.33,0.83-0.35,1
					C-552.56,119.99-552.54,120.02-552.51,120.02z M-552.49,119.06c-0.48,0.01-0.77,0.36-0.81,0.75c-0.01,0.12,0.02,0.17,0.11,0.18
					C-553.07,120-552.82,119.91-552.49,119.06z"/>
				<path class="st2" d="M-551.65,118.72c-0.04,0-0.11,0.02-0.2,0.07l-0.06-0.11c0.14-0.08,0.29-0.18,0.42-0.16
					c0.09,0.01,0.15,0.07,0.14,0.2c-0.02,0.24-0.42,1.08-0.44,1.31c0,0.04,0.01,0.07,0.04,0.07c0.04,0,0.11-0.02,0.2-0.07l0.06,0.11
					c-0.14,0.09-0.29,0.18-0.42,0.17c-0.1-0.01-0.15-0.07-0.14-0.2c0.02-0.23,0.43-1.08,0.45-1.31
					C-551.61,118.74-551.62,118.72-551.65,118.72z"/>
				<path class="st2" d="M-550.33,120.22c0.04,0,0.11-0.02,0.2-0.07l0.06,0.11c-0.14,0.09-0.29,0.18-0.42,0.17
					c-0.08-0.01-0.13-0.07-0.12-0.19c0.01-0.07,0.05-0.21,0.08-0.32l-0.03-0.01c-0.2,0.36-0.46,0.47-0.62,0.46
					c-0.12-0.01-0.21-0.12-0.19-0.32c0.04-0.49,0.54-1.03,1.34-0.9c-0.14,0.36-0.33,0.83-0.35,1
					C-550.38,120.19-550.36,120.22-550.33,120.22z M-550.31,119.26c-0.48,0.01-0.77,0.36-0.81,0.75c-0.01,0.12,0.02,0.17,0.11,0.18
					C-550.88,120.19-550.63,120.11-550.31,119.26z"/>
			</g>
		</g>
	</g>
</g>
<g>
	<circle class="st0" cx="-120" cy="100" r="97.5"/>
	<ellipse class="st1" cx="-144.04" cy="158.13" rx="33.42" ry="13.74"/>
	<g>
		<g>
			<path class="st3" d="M-105.95,122.73c0-13.44-16.72-24.37-37.28-24.37c-20.56,0-37.28,10.93-37.28,24.37c0,0.38,0,1.13,0,1.13
				c0,16.18,16.49,34.27,38.55,34.27c21.53,0,36-17.72,36-34.27C-105.95,123.86-105.95,123.11-105.95,122.73z"/>
			<path class="st0" d="M-143.23,99.9c19.71,0,35.74,10.24,35.74,22.84s-16.04,22.84-35.74,22.84c-19.71,0-35.75-10.24-35.75-22.84
				S-162.94,99.9-143.23,99.9z"/>
			<path class="st0" d="M-141.95,156.6c-17.33,0-31.06-11.56-35.5-24.22c5.73,8.65,18.9,14.72,34.22,14.72
				c15.67,0,29.09-6.36,34.59-15.34C-112.32,144.83-124.77,156.6-141.95,156.6z"/>
			<path class="st3" d="M-116.28,107.25c-2.57-2.4-3.6-6.06-3.03-9.52c0.47-3.77,4.46-5.41,7.64-6.5c2.85-1.07,5.96-1.54,7.13-4.64
				c1.27-2.77,2.14-6.12,4.26-8.84l11.56-15.43c2.79-3.75,5.81-7.95,8.45-11.83c1.23-1.5,3.61-2.24,4.85-2.37
				c0,0,12.75-2.83,12.75-2.83c1.53-0.2,3.11-0.08,4.62,0.61c1.38,0.49,2.34,2.13,3.04,3.39c0,0,2.04,3.43,2.04,3.43
				c0.66,1.27,2.03,2.77,1.62,4.38c-0.39,1.94-2.07,2.98-3.17,3.57l-3.46,2l-6.91,3.99l-27.64,15.97
				c-4.48,2.92-12.18,0.99-15.93,5.54c-0.99,1.36-1.42,3.25-2.15,5.17c-2.76,8.89-13.96,8.34-21.39,7.42c0,0,0.07-1,0.07-1
				c6.9-0.22,16.76,0.89,19.41-7.15c0.68-1.72,1.08-3.77,2.38-5.64c3.77-5.18,11.69-3.41,16.55-6.17
				c5.07-2.95,29.97-17.42,34.5-20.05l3.45-2.01c1.09-0.62,2.27-1.3,2.07-2.56c-0.69-1.43-2.58-4.31-3.38-5.74c0,0-1-1.67-1-1.67
				c-0.93-1.23-2.8-1.45-4.36-1.3c0.59-0.15-12.8,2.82-12.65,2.76c-1.4,0.16-2.88,0.72-3.68,1.65c0,0-2.68,3.88-2.68,3.88
				c-3.75,5.3-13.29,17.83-17.33,23.18c-2.51,2.97-2.94,7.52-5.53,10.76c-3.08,2.99-7.63,3.04-11.11,5.22
				c-3.8,2.34-2.73,8.45-0.31,11.58C-115.59,106.53-116.28,107.25-116.28,107.25L-116.28,107.25z"/>
			<path class="st3" d="M-143.17,142.17c-15.85,0-28.35-6.01-31.09-14.95c-0.1-0.15-0.11-0.17-0.11-0.29
				c-0.34-1.05-0.48-2.06-0.48-3.36c0-11.4,14.16-20.88,31.56-21.11c17.46,0,31.68,9.36,31.68,20.88c0,0.82-0.12,1.67-0.24,2.48
				l0,0.4c-0.34,1.88-1.25,3.78-2.71,5.6c-0.13,0.25-0.23,0.35-0.34,0.46c-0.92,1.18-2.08,2.17-3.1,2.98
				c-0.12,0.18-0.16,0.21-0.22,0.25l-0.16,0.12c-1.37,0.95-2.66,1.73-3.9,2.35l-0.19,0.11c-0.21,0.06-0.4,0.16-0.59,0.25
				c-0.17,0.08-0.34,0.17-0.51,0.23C-129.13,140.93-135.86,142.17-143.17,142.17z M-157.51,129.52c-0.38,0.38-0.79,0.82-1.18,1.25
				c-0.35,0.38-0.69,0.75-0.98,1.03l-0.14,0.14l0.1,0.17c0.88,1.55,2.72,4.76,5.07,7.48c3.56,0.88,7.34,1.29,11.35,1.29
				c3.98,0,8.04-0.45,12.06-1.33c1.75-2.05,3.46-4.6,5.09-7.44l0.08-0.14l-0.09-0.13c-0.38-0.57-1.02-1.18-1.64-1.78l-0.83-0.81
				l-0.14,0.36c-1.39,3.59-3.25,6.47-5.7,8.79c-0.13,0.13-0.3,0.2-0.48,0.2c-0.19,0-0.36-0.07-0.48-0.2c-0.26-0.26-0.26-0.7,0-0.96
				c2.38-2.25,4.3-5.23,5.7-8.85l0.07-0.19l-0.17-0.11c-1.82-1.21-3.38-1.58-3.45-1.6c-0.36-0.09-0.61-0.45-0.53-0.77
				c0.08-0.32,0.36-0.55,0.65-0.55c0.15,0.02,1.68,0.38,3.66,1.55l0.28,0.16l0.09-0.31c0.52-1.7,0.85-2.8,0.97-3.39l0.03-0.17
				l-0.14-0.09c-1.19-0.79-2.5-1.43-3.64-1.94c-0.18-0.05-0.3-0.15-0.37-0.3c-0.08-0.18-0.08-0.38,0.01-0.56
				c0.07-0.27,0.31-0.43,0.57-0.43c0.1,0,0.2,0.02,0.29,0.07c0.95,0.38,1.73,0.82,2.55,1.29l0.99,0.55l0.06-0.35
				c0.24-1.33,0.48-2.89,0.6-3.85l0.02-0.16l-0.14-0.08c-1.37-0.84-3.03-1.57-5.21-2.31c-0.22-0.06-0.33-0.23-0.38-0.33
				c-0.08-0.18-0.1-0.39-0.06-0.57c0.07-0.29,0.41-0.44,0.7-0.44c0.07,0,0.13,0.01,0.19,0.02c1.59,0.57,3.28,1.29,4.75,2.02
				l0.37,0.18v-0.41c0-0.45,0.04-0.93,0.07-1.38c0.03-0.39,0.05-0.74,0.05-1.02v-0.16l-0.14-0.07c-4.68-2.28-10.02-3.39-16.32-3.39
				c-5.76,0-11.05,1.06-15.71,3.14l-0.19,0.08l0.04,0.2c0.06,0.32,0.09,0.77,0.12,1.27c0.03,0.44,0.06,0.91,0.11,1.35l0.04,0.37
				l0.33-0.17c1.48-0.8,2.98-1.39,4.77-2.02c0.04-0.01,0.1-0.02,0.17-0.02c0.29,0,0.63,0.15,0.7,0.44c0.09,0.34-0.08,0.81-0.42,0.89
				c-1.65,0.55-3.39,1.32-5.22,2.3l-0.15,0.08l0.02,0.17c0.12,0.96,0.36,2.53,0.6,3.85l0.06,0.35l0.31-0.17
				c1.09-0.6,2.17-1.2,3.22-1.67c0.1-0.05,0.19-0.07,0.28-0.07c0.24,0,0.46,0.16,0.59,0.43c0.2,0.4-0.07,0.71-0.37,0.86
				c-1.12,0.51-2.44,1.14-3.63,1.94l-0.14,0.09l0.03,0.16c0.11,0.66,0.42,1.74,0.97,3.4l0.1,0.3l0.27-0.16
				c1.98-1.16,3.51-1.53,3.53-1.53c0.01,0,0.03,0,0.04,0c0.4,0,0.66,0.23,0.74,0.54c0.04,0.16,0,0.32-0.1,0.47
				c-0.1,0.15-0.26,0.26-0.44,0.3c-0.06,0.01-1.62,0.38-3.44,1.6l-0.17,0.11l0.08,0.19c1.45,3.63,3.43,6.7,5.7,8.85
				c0.12,0.12,0.19,0.29,0.19,0.48c0,0.18-0.07,0.35-0.2,0.48c-0.15,0.06-0.36,0.17-0.54,0.17c-0.1,0-0.16-0.03-0.3-0.11l-0.19-0.1
				c-2.27-2.29-4.14-5.17-5.64-8.75l-0.15-0.35L-157.51,129.52z M-160.78,133.63c-0.58,0.82-1.23,2.18-1.37,3.36l-0.02,0.18
				l0.16,0.08c1.45,0.73,3.05,1.22,4.59,1.69l0.74,0.23l-0.46-0.62c-1.44-1.92-2.51-3.71-3.23-4.9l-0.2-0.33L-160.78,133.63z
				 M-125.98,134.76c-0.65,1.02-1.46,2.28-2.39,3.55l-0.43,0.58l0.7-0.19c0.76-0.21,1.49-0.46,2.2-0.7c0.52-0.18,1.02-0.35,1.53-0.5
				c0.24-0.19,0.33-0.32,0.43-0.45c0.08-0.11,0.17-0.22,0.28-0.33l0.1-0.1l-0.03-0.14c-0.27-1.23-0.82-2.23-1.24-2.85l-0.21-0.32
				C-125.04,133.32-125.71,134.33-125.98,134.76z M-165.97,133.08c-0.19,0.47-0.5,1.31-0.5,1.77v0.14l0.11,0.07
				c0.72,0.48,1.57,0.97,2.42,1.45l0.38,0.22v-0.53l-0.06-0.19c-0.49-0.57-0.93-1.33-1.36-2.06c-0.18-0.31-0.36-0.62-0.54-0.91
				l-0.26-0.42L-165.97,133.08z M-120.24,133.32c-0.19,0.47-0.52,1.19-1.06,1.99l-0.53,0.79l0.85-0.42
				c0.48-0.24,0.98-0.49,1.48-0.86l0.1-0.08v-0.13c0-0.31-0.14-0.66-0.26-0.97l-0.11-0.31l-0.22-0.66L-120.24,133.32z
				 M-122.99,128.51c-0.42,0.95-0.84,2.08-1.19,3l-0.18,0.49l0.19,0.31c0.37,0.61,0.88,1.46,1.3,2.41l0.22,0.49l0.24-0.48
				c0.59-1.19,1.21-2.42,1.45-3.15c0.09-0.06,0.13-0.12,0.13-0.32c-0.23-0.45-0.53-0.92-0.86-1.43c-0.28-0.43-1.11-1.74-1.11-1.74
				L-122.99,128.51z M-163.17,128.33c-0.59,0.71-1.2,1.67-1.71,2.69l-0.05,0.1l0.05,0.11c0.29,0.68,0.85,1.67,1.7,3.03l0.24,0.38
				l0.2-0.4c0.49-0.98,0.96-1.79,1.3-2.24l0.09-0.11l-0.14-0.35c-0.45-1.12-0.89-2.23-1.23-3.13l-0.15-0.41L-163.17,128.33z
				 M-168.68,127.83c-0.49,1.09-1.15,2.59-1.27,4.01l-0.01,0.12l0.08,0.2l2,2l0.11-0.43c0.28-1.11,0.88-2.16,1.05-2.45l0.07-0.11
				l-0.42-0.95c-0.33-0.76-0.73-1.67-1.07-2.52l-0.22-0.56L-168.68,127.83z M-117.72,127.69c-0.47,1.28-1.06,2.6-1.43,3.33
				l-0.06,0.11l0.21,0.42c0.25,0.49,0.6,1.15,0.79,1.81l0.11,0.37l0.3-0.25c0.73-0.61,1.35-1.23,1.84-1.84l0.07-0.09l-0.02-0.11
				c-0.24-1.47-0.84-2.8-1.34-3.79l-0.26-0.53L-117.72,127.69z M-170.03,121.51c-1.26,1.83-2.15,3.52-2.79,5.34
				c0.25,1.29,0.88,2.4,1.47,3.34l0.32,0.51l0.14-0.59c0.42-1.79,1.37-3.55,2.12-4.59l0.08-0.11l-0.05-0.13
				c-0.48-1.19-0.71-2.65-0.82-3.66l-0.08-0.67L-170.03,121.51z M-126.97,124.36c-0.21,0.95-0.53,2.07-0.95,3.34l-0.05,0.15
				l0.11,0.11c0.29,0.29,0.59,0.57,0.87,0.84c0.52,0.5,1.01,0.96,1.4,1.42l0.26,0.31l0.16-0.37c0.27-0.61,0.54-1.34,0.8-2.01
				c0.19-0.51,0.37-0.99,0.53-1.35l0.07-0.16l-0.12-0.12c-0.53-0.53-1.55-1.41-2.66-2.3l-0.32-0.25L-126.97,124.36z M-159.17,124.22
				c-1.11,0.89-2.13,1.77-2.66,2.3l-0.11,0.12l0.21,0.56c0.34,0.91,0.75,2.03,1.17,2.96l0.14,0.31l0.26-0.21
				c0.73-0.61,1.58-1.45,2.31-2.31l0.09-0.11l-0.04-0.14c-0.43-1.29-0.81-2.77-0.95-3.34l-0.1-0.38L-159.17,124.22z M-116.17,121.98
				c-0.14,1.27-0.42,2.38-0.82,3.29l-0.06,0.13l0.08,0.12c0.5,0.75,1.43,2.28,2.01,4.02l0.18,0.55l0.28-0.5
				c0.71-1.29,1.13-2.35,1.35-3.43c-0.87-1.85-1.7-3.2-2.57-4.29l-0.38-0.48L-116.17,121.98z M-121.33,122.67
				c-0.18,0.66-0.36,1.38-0.53,2.04c-0.16,0.66-0.31,1.26-0.43,1.67l-0.03,0.12l0.08,0.1c0.72,0.96,1.44,1.92,1.9,2.74l0.25,0.43
				l0.2-0.45c0.35-0.77,1.19-2.66,1.34-3.42c-0.4-0.91-1.38-2.14-2.33-3.33l-0.31-0.39L-121.33,122.67z M-164.85,122.46
				c-0.94,1.17-1.92,2.53-2.3,3.15c0.09,0.92,0.68,2.22,1.31,3.6l0.2,0.44l0.25-0.41c0.63-1.05,1.36-2.02,1.76-2.54l0.22-0.29
				l-0.03-0.12c-0.24-0.96-0.6-2.41-0.96-3.73l-0.13-0.48L-164.85,122.46z M-160.25,118.33c-0.7,0.56-1.4,1.08-1.98,1.51
				c-0.42,0.31-0.77,0.57-1.02,0.77l-0.13,0.1l0.04,0.16c0.24,0.96,0.6,2.4,0.96,3.96l0.1,0.44l0.32-0.32c0.6-0.6,1.31-1.19,2-1.76
				l0.86-0.73l-0.03-0.15c-0.12-0.6-0.24-1.26-0.36-1.92c-0.12-0.66-0.24-1.32-0.36-1.93l-0.08-0.41L-160.25,118.33z
				 M-125.77,118.48c-0.1,0.51-0.21,1.09-0.31,1.67c-0.14,0.77-0.27,1.55-0.41,2.16l-0.03,0.15l3.19,2.77l0.09-0.41
				c0.36-1.56,0.72-3,0.96-3.96l0.03-0.14l-0.1-0.1c-0.61-0.62-1.84-1.47-3.03-2.3l-0.32-0.22L-125.77,118.48z M-165.66,116.78
				c-0.86,0.74-1.73,1.61-2.65,2.54l-0.07,0.07v0.1c0,0.5,0.12,2.18,0.48,4.01l0.11,0.54l0.34-0.44c0.37-0.47,0.77-0.96,1.17-1.43
				c0.52-0.62,1.02-1.22,1.36-1.7c0.05-0.82-0.1-1.94-0.22-2.85l-0.15-1.16L-165.66,116.78z M-120.61,118.34
				c-0.08,0.71-0.16,1.42-0.24,1.82l-0.02,0.12l0.08,0.09c0.32,0.38,0.7,0.86,1.09,1.35c0.47,0.61,0.97,1.24,1.44,1.77l0.32,0.36
				l0.12-0.47c0.36-1.44,0.49-2.77,0.49-3.54v-0.1l-0.07-0.07c-0.92-0.93-1.8-1.8-2.65-2.53l-0.36-0.31L-120.61,118.34z
				 M-143.05,104.23c-16.4,0-30.26,8.91-30.26,19.46l0.48,0.12c3.94-7.59,10.1-10.96,12.57-12.06l0.16-0.07
				c4.86-2.37,10.6-3.57,17.05-3.57c6.65,0,12.51,1.24,17.41,3.69c1.82,0.85,7.91,4.06,12.26,11.07l0.47-0.15
				c-0.61-10.19-13.83-18.49-29.48-18.49L-143.05,104.23z M-160.67,113.38c-1.08,0.46-2.16,1.14-3.3,2.08l-0.22,0.18l0.2,0.2
				c0.04,0.04,0.05,0.07,0.05,0.18c0,0.04,0.02,0.22,0.07,0.49c0.08,0.52,0.21,1.41,0.29,2.3l0.04,0.49l0.37-0.33
				c0.86-0.75,1.89-1.49,2.72-2.08l0.36-0.26v-0.13l-0.05-0.55c-0.1-0.92-0.19-1.71-0.19-2.33v-0.38L-160.67,113.38z
				 M-125.29,113.93c-0.06,0.38-0.09,0.79-0.13,1.22c-0.03,0.39-0.06,0.79-0.11,1.19v0.13l0.1,0.23c0.51,0.36,1.14,0.85,1.78,1.34
				c0.42,0.32,1.58,1.2,1.58,1.2l0.04-0.45c0.07-0.67,0.17-1.37,0.25-1.91c0.07-0.44,0.11-0.77,0.11-0.88v-0.13l-0.1-0.08
				c-1.43-1.04-2.46-1.72-3.16-2.06l-0.31-0.15L-125.29,113.93z"/>
		</g>
		<g>
			<path class="st3" d="M-177.53,154.68c-0.23,0-0.46-0.03-0.69-0.08c-1.31-0.32-2.5-1.62-3.17-3.48c-1.02-2.81-1.39-4.46,2.2-7.6
				l11.02-8.96l0.38,0.2c0.03,0.01,2.65,1.39,4.76,2.2l1.06,0.4l-11.56,9.46c-1.32,1.02-1.87,1.45-1.71,2.91
				c0.01,0.13,0.14,0.51,0.24,0.81c0.4,1.18,0.77,2.3,0.13,2.89C-175.74,154.27-176.64,154.68-177.53,154.68z"/>
			<path class="st0" d="M-168.01,136.12l-10.33,8.4c-3.08,2.68-2.67,3.79-1.87,6c0.46,1.27,1.27,2.55,2.31,2.81
				c0.66,0.16,1.39-0.12,2.17-0.85c-0.02-0.14-0.34-1.07-0.49-1.51c-0.16-0.46-0.28-0.82-0.31-1.09c-0.24-2.19,0.84-3.03,2.2-4.09
				l0.33-0.25l9.48-7.77C-165.94,137.16-167.35,136.46-168.01,136.12z"/>
		</g>
	</g>
</g>
<g>
	<circle class="st0" cx="100" cy="100" r="97.5"/>
	<ellipse class="st1" cx="100" cy="158.18" rx="45.65" ry="7.55"/>
	<g>
		<path class="st2" d="M40.65,74.7c-8.71,5.08-13.32,17.41-8.65,31.81c4.79,14.8,16.8,27.31,30,34.05c2.21,4.2,5.17,7.83,8.63,10.77
			c-0.01,0.43-0.01,0.87,0.03,1.31c0.55,6.86,18.57,8.27,25.45,8.44c7.26,0.18,24.66-0.76,29.4-5.81c1.09-1.16,1.2-2.52,1.14-4.03
			c0.8-0.58,1.51-1.44,2.18-2.17c3.37-3.65,6.13-7.83,8.15-12.41c3.6-1.99,15.68-13.41,17.84-34.15
			c3.01-28.79,13.97-27.45,14.92-29.06c0.21-0.36,0.16-0.85-0.47-1.28c-0.99-0.68-8.02-4.78-8.85-4.9
			c-0.93-0.13-2.66,0.62-3.58,0.98c-4.5,1.83-8.61,4.49-12.13,7.85c-1.44,1.36-2.66,2.95-4.3,4.07c-4.86,3.33-10.54,4.29-10.57,4.3
			c-0.02-0.03-4.98-7.76-5-7.79c1.92-1.18,2.3-2.79,1.41-4.43c-0.66-1.21-1.77-1.73-3.04-2.09c-4.92-8.82-11.88-13.32-21.54-14.64
			c-0.02-1.37-0.02-2.75-0.01-4.12c1.75-1.09,3.12-2.86,3.45-4.99c0.64-4.1-2.63-7.74-7.16-7.49c-3.47,0.2-6.3,3.33-5.97,7.15
			c0.22,2.54,1.58,3.82,3.43,5.37c0.04,1.36,0.09,2.73,0.03,4.1c-7.87,0.69-16.27,5.74-20.57,13c-0.34,0.58-0.79,1.28-0.9,1.95
			c-2.55,0.07-3.64,1.96-3.25,3.73c0.26,1.17,0.99,1.78,1.95,2.39c-0.73,1.17-0.31,0.24-3.65,5.17
			C66.03,76.95,52.35,67.88,40.65,74.7L40.65,74.7z"/>
		<path class="st0" d="M98.04,50.58c-3.39-0.57-4.95-3.31-4.51-6c0.43-2.62,2.66-4.37,5.32-4.22c3.28,0.33,5.11,2.92,4.79,5.74
			C103.38,48.51,101.34,50.67,98.04,50.58z"/>
		<path class="st0" d="M96.98,55.23c0.01-0.43-0.06-3.16,0.12-3.37c1.07,0.28,1.89,0.21,2.97,0.06c0.03,0.54,0.2,2.95-0.04,3.28
			C98.99,55.09,98.02,55.11,96.98,55.23L96.98,55.23z"/>
		<path class="st0" d="M100.19,56.78c11.99,1.21,19.54,8.4,21.93,14.58c-7.05,1.3-16.08,1.55-23.29,1.57
			c-5.55,0.02-18.34-0.31-23.66-1.69C79.15,61.86,91.56,55.58,100.19,56.78L100.19,56.78z"/>
		<path class="st2" d="M125.2,73.54c0.33,1.35-1.33,2.17-2.75,2.46c-5.36,1.07-17.93,1.44-23.61,1.44
			c-4.59-0.01-21.53-0.29-25.71-2.25c-0.51-0.36-0.95-0.77-1.07-1.42c-0.12-0.67,0.18-1.36,1.28-1.79c4.6,2.28,20.21,2.43,25.3,2.44
			C125.94,74.44,124.5,70.71,125.2,73.54L125.2,73.54z"/>
		<path class="st0" d="M153.37,102.61c-1.46,14.57-7.44,23.8-15.32,31.4c0.31-0.81,0.64-1.62,0.91-2.45
			c4.86-15.94,0.92-26.66-8.32-45.68c3.91-0.96,7.68-2.31,10.95-4.7c1.53-1.11,2.73-2.67,4.11-3.97c4.15-3.91,9.02-6.97,14.56-8.45
			c0.41,0.21,7.42,4.15,7.45,4.17C157.52,75.97,154.43,92.03,153.37,102.61L153.37,102.61z"/>
		<path class="st0" d="M96.18,159.55c-5.89-0.14-25.4-2-23.99-7.21c0.02-0.07,0.02-0.06,0.08-0.1c4.75,2.4,18.79,3.02,24.04,3.12
			c21.36,0.43,28.56-2.78,28.67-2.8C125,158.42,103.64,159.73,96.18,159.55L96.18,159.55z"/>
		<path class="st0" d="M72.3,150.77c-4.41-2.96-11.35-11.8-13.88-25.17c-3.86-20.43,13.47-46.72,15.85-48.4
			c1.24,0.13,7.92,1.72,24.57,1.75c6.75,0.02,17.93-0.35,24.59-1.66c2.03,2.53,3.71,5.42,5.28,8.26
			c11.72,21.13,16.08,39.47,1.84,59.13c-1.55,2.14-3.35,4.38-5.42,6.03c-3.48,2.79-23.41,3.19-28.79,3.11
			C91.8,153.74,75.47,152.9,72.3,150.77L72.3,150.77z"/>
		<path class="st0" d="M65.24,88.43c-6.14,12.06-10.65,25.64-8.32,37.32c0.2,1.03,0.47,2.05,0.64,3.08
			c-9.69-6.75-18.39-18.49-19.93-31.26C36.65,89.4,40.58,80.93,48.45,80C54.92,79.24,60.82,83.68,65.24,88.43L65.24,88.43z"/>
		<path class="st0" d="M33.69,106.92c-3.93-11.41-2.51-25.33,8-31.09c6.94-3.81,16.42-3.06,26.64,7.18
			c-0.8,1.32-1.56,2.74-2.37,4.03c-4.59-5.15-11.45-9.6-18.2-8.46c-15.06,2.54-19.49,30.54,10.47,52.61
			c0.77,2.42,1.59,4.72,2.62,7.05C50.89,133.4,38.5,120.9,33.69,106.92L33.69,106.92z"/>
	</g>
</g>
</svg>
