<?xml version="1.0" encoding="utf-8"?>
<!-- Generator: Adobe Illustrator 26.2.1, SVG Export Plug-In . SVG Version: 6.00 Build 0)  -->
<svg version="1.1" id="Layer_1" xmlns="http://www.w3.org/2000/svg" xmlns:xlink="http://www.w3.org/1999/xlink" x="0px" y="0px"
	 viewBox="0 0 200 200" style="enable-background:new 0 0 200 200;" xml:space="preserve">
<style type="text/css">
	.st0{fill:#001E61;}
	.st1{opacity:0.51;fill:#001E61;enable-background:new    ;}
	.st2{fill:#FFFFFF;}
	.st3{fill:#C2902C;}
</style>
<g>
	<circle class="st0" cx="100" cy="100" r="97.5"/>
	<ellipse class="st1" cx="99.95" cy="142.92" rx="51.23" ry="20.97"/>
	<g>
		<path class="st2" d="M142.55,58.74c-0.06-0.18-0.17-0.32-0.29-0.45c0-0.01-0.01-0.01-0.02-0.01c0-0.04,0.01-0.08,0.01-0.12
			c0.01-0.21,0.02-0.45,0.02-0.71v-5.66c0-0.28-0.05-0.55-0.16-0.79c-0.05-0.11-0.15-0.33-0.41-0.53c-0.25-0.2-0.6-0.34-1.03-0.41
			l-0.01,0.01c-0.15-0.04-0.32-0.07-0.5-0.09L139,49.82c-1.56-0.21-3.12-0.42-4.67-0.64c-2.52-0.35-5.03-0.7-7.54-1.05
			c-4.45-0.62-8.9-1.24-13.41-1.85l-2.85-0.38c-4.04-0.55-8.22-1.11-12.11-1.49c-0.49-0.05-0.94-0.08-1.41-0.08
			c-0.28,0-0.56,0-0.88,0.02c-1.16,0.07-2.23,0.24-3.36,0.53l-6.38,1.64c-5.5,1.42-11.18,2.88-13.56,3.46
			c-2.32,0.56-6.29,1.59-10.24,2.61l-2.39,0.62h-0.01c-0.65,0.1-1.2,0.28-1.62,0.54c-0.43,0.25-0.72,0.57-0.82,0.89
			c-0.08,0.24-0.11,0.49-0.11,0.77v5.76c0,0.26,0,0.49,0.02,0.7c-0.04,0.05-0.08,0.09-0.11,0.13c-0.09,0.15-0.13,0.29-0.15,0.39
			s-0.02,0.19-0.02,0.27c0.01,0.09,0.03,0.16,0.07,0.23s0.09,0.13,0.15,0.19c0.12,0.12,0.26,0.2,0.41,0.26
			c0.01,0.01,0.03,0.01,0.05,0.01v0.98c0,3.23,0,9.71,0,13.34v57.05c0,0.44,0.01,0.8,0.05,1.16c-0.02,0.04-0.05,0.08-0.06,0.12
			c-0.11,0.29-0.13,0.59-0.1,0.86c0.02,0.22,0.08,0.43,0.14,0.6c0.05,0.14,0.11,0.26,0.16,0.34c0.15,0.22,0.32,0.39,0.51,0.53
			c0.45,0.33,1.01,0.48,1.63,0.62c3.99,0.92,7.98,2,11.98,2.92c8.48,1.95,16.96,3.91,25.44,5.86c1.59,0.37,3.19,0.73,4.78,1.1
			c0.93,0.21,1.84,0.34,2.79,0.3c0.84-0.04,1.5-0.37,2.26-0.73c9-4.24,16.72-7.72,26.29-12.37c1.6-0.78,3.25-1.59,4.97-2.44
			c0.48-0.24,0.96-0.48,1.45-0.72c0.52-0.26,0.89-0.52,1.15-0.8c0.19-0.21,0.33-0.44,0.42-0.69c0.05-0.12,0.07-0.25,0.08-0.39
			c0.01-0.17-0.01-0.36-0.05-0.55c-0.03-0.13-0.09-0.26-0.13-0.39c0.01-0.06,0.02-0.11,0.03-0.18c0.04-0.43,0.04-0.92,0.04-1.47V60
			c0.22-0.08,0.34-0.15,0.48-0.26c0.08-0.05,0.15-0.13,0.2-0.23c0.05-0.1,0.08-0.23,0.09-0.37
			C142.63,59.03,142.61,58.88,142.55,58.74z"/>
		<path class="st0" d="M60.46,54.07l2.36-0.61c3.95-1.02,7.92-2.05,10.23-2.61c2.38-0.58,8.07-2.04,13.57-3.46L93,45.75
			c1.07-0.28,2.09-0.44,3.19-0.5c0.29-0.02,0.56-0.02,0.83-0.02c0.45,0,0.87,0.03,1.33,0.07c3.87,0.38,8.05,0.95,12.08,1.49
			l2.85,0.38c4.51,0.6,8.96,1.22,13.41,1.84c2.51,0.35,5.02,0.7,7.54,1.05c1.55,0.21,3.11,0.43,4.67,0.64l0.68,0.09
			c-0.51,0.18-1.01,0.37-1.54,0.53l-7.9,2.41c-6.48,1.97-13.11,4-19.01,5.76c-0.11,0.03-0.37,0.12-0.72,0.23
			c-0.41,0.13-1.06,0.34-1.75,0.56l-0.86,0.26c-0.38,0.11-0.75,0.23-1.12,0.32c-0.34,0.09-0.67,0.17-0.98,0.21
			c-0.83,0.02-5.69-0.69-7.79-1.02l-37.14-5.84c-0.11-0.02-0.29-0.04-0.45-0.08C60.36,54.11,60.41,54.09,60.46,54.07z"/>
		<path class="st0" d="M58.52,55.43c0-0.18,0.02-0.35,0.07-0.5c0.02-0.06,0.14-0.23,0.44-0.4c0.03-0.02,0.06-0.03,0.09-0.05
			c0.1,0.14,0.23,0.26,0.4,0.34c0.26,0.12,0.59,0.18,1.22,0.28c3.59,0.6,7.17,1.15,10.64,1.68c1.68,0.26,3.33,0.51,4.95,0.77
			c4.53,0.71,9.06,1.43,13.6,2.15l13.77,2.17c0.38,0.06,0.8,0.11,1.3,0.11c0.22,0,0.47-0.01,0.73-0.04c0.01,0,0.02,0,0.02,0
			c0.01,0,0.02,0,0.03,0s0.01,0,0.02,0h0.01c0.47-0.04,1.56-0.34,3.11-0.83l12.06-3.63c1.49-0.45,14.7-4.43,19.39-5.97
			c0.36-0.12,0.59-0.27,0.68-0.41c0.04,0.02,0.07,0.04,0.1,0.06c0.09,0.08,0.13,0.15,0.16,0.21c0.06,0.13,0.09,0.27,0.09,0.43v5.66
			c0,0.24,0,0.45-0.01,0.64c-0.02,0.24-0.06,0.39-0.12,0.47c-0.1,0.12-0.33,0.21-1,0.42l-8,2.57v0.01
			c-6.89,2.19-13.69,4.41-20.15,6.37c-0.52,0.16-1.03,0.31-1.54,0.47c-0.54,0.16-1.09,0.32-1.63,0.48
			c-0.78,0.23-1.62,0.41-2.44,0.44c-0.97,0.03-1.83-0.05-2.78-0.2c-2.15-0.34-3.3-0.52-4.95-0.78c-3.76-0.59-7.52-1.18-11.29-1.77
			c-5.02-0.79-10.05-1.58-15.07-2.37c-4.14-0.65-8.28-1.3-12.41-1.95c-0.4-0.06-0.79-0.12-1.15-0.18c-0.11-0.02-0.21-0.04-0.3-0.06
			c-0.01-0.05-0.02-0.11-0.03-0.19c-0.02-0.19-0.02-0.4-0.02-0.64v-5.76H58.52z"/>
		<path class="st0" d="M140.99,60.31v68.11c0,0.51,0,0.98-0.03,1.39c-0.03,0.33-0.08,0.6-0.17,0.8c-0.17,0.43-0.45,0.8-1.34,1.24
			l-1.89,0.94c-1.86,0.91-3.64,1.79-5.37,2.62c-4.21,2.05-8.02,3.84-11.83,5.62c-4.17,1.92-8.3,3.79-12.74,5.88
			c-0.75,0.35-1.44,0.71-2.29,0.76c-0.94,0.05-1.82-0.08-2.75-0.3c-1.59-0.36-3.18-0.73-4.77-1.09c-8.48-1.96-16.97-3.88-25.45-5.82
			c-3.99-0.93-8-1.96-11.98-2.9c-0.26-0.07-0.5-0.15-0.71-0.23c-0.12-0.1-0.22-0.2-0.3-0.31c-0.18-0.33-0.3-0.61-0.36-0.94
			c-0.07-0.38-0.07-0.8-0.07-1.33V63.56c0.35,0.07,0.71,0.12,1.08,0.18c4.13,0.66,8.27,1.34,12.41,2
			c5.02,0.81,10.04,1.62,15.06,2.45c3.76,0.61,7.52,1.23,11.3,1.82c1.64,0.27,3.3,0.53,4.95,0.8c0.94,0.17,1.81,0.2,2.77,0.15
			c0.83-0.02,1.66-0.15,2.45-0.38c0.61-0.18,1.21-0.36,1.81-0.55c0.56-0.18,1.13-0.35,1.69-0.51
			C122.35,66.46,131.18,63.46,140.99,60.31z"/>
		<path class="st3" d="M140.99,88v40.43c0,0.51,0,0.98-0.03,1.39c-0.03,0.33-0.08,0.6-0.17,0.8c-0.17,0.43-0.45,0.8-1.34,1.24
			l-1.89,0.94c-1.86,0.91-3.64,1.79-5.37,2.62c-4.21,2.05-8.02,3.84-11.83,5.62c-4.17,1.92-8.3,3.79-12.74,5.88
			c-0.75,0.35-1.44,0.71-2.29,0.76c-0.94,0.05-1.82-0.08-2.75-0.3c-1.59-0.36-3.18-0.73-4.77-1.09c-8.48-1.96-16.97-3.88-25.45-5.82
			c-3.99-0.93-8-1.96-11.98-2.9c-0.26-0.07-0.5-0.15-0.71-0.23c-0.12-0.1-0.22-0.2-0.3-0.31c-0.18-0.33-0.3-0.61-0.36-0.94
			c-0.07-0.38-0.07-0.8-0.07-1.33V91.21c3.08,0.66,31.2,6.73,39.12,7.97c1.04,0.17,6.96,0.88,7.89,0.84
			c0.78-0.03,1.81-0.33,2.55-0.55C109.06,99.31,136.56,89.57,140.99,88z"/>
		
			<ellipse transform="matrix(0.222 -0.975 0.975 0.222 -31.0814 152.533)" class="st3" cx="80.04" cy="95.74" rx="10.52" ry="14.03"/>
	</g>
</g>
</svg>
