<?xml version="1.0" encoding="utf-8"?>
<!-- Generator: Adobe Illustrator 26.2.1, SVG Export Plug-In . SVG Version: 6.00 Build 0)  -->
<svg version="1.1" id="Layer_1" xmlns="http://www.w3.org/2000/svg" xmlns:xlink="http://www.w3.org/1999/xlink" x="0px" y="0px"
	 viewBox="0 0 200 200" style="enable-background:new 0 0 200 200;" xml:space="preserve">
<style type="text/css">
	.st0{fill:#001E61;}
	.st1{opacity:0.51;fill:#001E61;}
	.st2{fill:#FFFFFF;}
</style>
<g>
	<circle class="st0" cx="100" cy="100" r="97.92"/>
	<path class="st1" d="M175.96,78.19h1.96v-5.46c0-1.81-1.47-3.29-3.28-3.32l-47.41,0c-0.89-0.01-1.74,0.33-2.37,0.96
		c-0.64,0.63-0.99,1.47-0.99,2.36v5.55l1.62-0.01c0.38,0.27,0.58,0.56,0.58,0.85c0.01,0.44-0.4,0.82-0.56,0.95h-1.64v2.39
		l-43.26-3.87c-0.89-0.08-1.76,0.17-2.45,0.74c-0.69,0.57-1.11,1.37-1.19,2.26l-0.49,5.52l1.61,0.13c0.36,0.3,0.53,0.6,0.5,0.9
		c-0.03,0.44-0.47,0.78-0.64,0.9l-1.64-0.15l-0.82,9.18l-3.15-19.49l-1.92,0.31c-0.45-0.26-0.69-0.55-0.72-0.86
		c-0.04-0.42,0.29-0.79,0.42-0.92l1.94-0.31l-0.87-5.39c-0.29-1.78-1.98-3.02-3.77-2.75l-46.8,7.56c-0.88,0.14-1.66,0.6-2.19,1.32
		c-0.53,0.72-0.74,1.61-0.6,2.49l0.88,5.48l1.6-0.27c0.42,0.21,0.66,0.46,0.71,0.74c0.08,0.43-0.27,0.88-0.4,1.03L19,87.26
		l9.3,57.59c0.29,1.81,2,3.04,3.81,2.75l39.53-6.39L71.12,147c-0.16,1.82,1.19,3.44,3.01,3.6l47.22,4.23
		c1.82,0.16,3.44-1.19,3.6-3.01l0.93-10.37c0.4,0.17,0.84,0.27,1.31,0.27h47.41c1.83,0,3.32-1.49,3.32-3.32V80h-1.95
		c-0.4-0.33-0.59-0.65-0.57-0.97C175.42,78.62,175.81,78.3,175.96,78.19z"/>
	<g>
		<g>
			<g>
				<path class="st2" d="M170.8,136.66l-47.41,0c-1.83,0-3.32-1.49-3.32-3.32l0-58.34l1.64,0c0.16-0.13,0.57-0.51,0.56-0.95
					c-0.01-0.29-0.2-0.58-0.58-0.85l-1.62,0.01v-5.55c0-0.89,0.35-1.73,0.99-2.36c0.64-0.63,1.49-0.96,2.37-0.96l47.41,0
					c1.81,0.02,3.28,1.51,3.28,3.32v5.46h-1.96c-0.15,0.11-0.54,0.43-0.56,0.85c-0.02,0.31,0.18,0.64,0.57,0.97h1.95l0,58.4
					C174.12,135.17,172.63,136.66,170.8,136.66z"/>
				<path class="st0" d="M120.59,75.52l0,57.82c0,1.54,1.25,2.8,2.8,2.8l47.41,0c1.54,0,2.8-1.25,2.8-2.8l0-57.88h-1.61l-0.07-0.06
					c-0.59-0.46-0.87-0.95-0.84-1.47c0.05-0.79,0.83-1.28,0.87-1.3l0.06-0.04h1.59v-4.94c0-1.52-1.24-2.78-2.76-2.8l-47.41,0
					c-0.74,0-1.47,0.28-2,0.81c-0.54,0.53-0.83,1.24-0.83,1.99v5.02l1.26-0.01l0.07,0.04c0.58,0.39,0.87,0.83,0.88,1.32
					c0.01,0.82-0.8,1.41-0.84,1.43l-0.07,0.05H120.59z"/>
			</g>
			<g>
				<path class="st2" d="M170.66,133.57l-47.83,0l0-52.85l47.83,0L170.66,133.57z M123.36,133.05l46.78,0l0-51.81l-46.78,0
					L123.36,133.05z"/>
			</g>
			<g>
				<rect x="123.1" y="73.23" class="st2" width="47.3" height="0.52"/>
			</g>
			<g>
				<rect x="123.1" y="74.47" class="st2" width="47.3" height="0.52"/>
			</g>
		</g>
		<g>
			<path class="st2" d="M155.2,96.88c-0.01,0.42,0.1,0.83,0.37,1.15c0.04,0.04,0.07,0.09,0.11,0.13c0.17,0.19,0.39,0.36,0.67,0.5
				c0.41,0.21,0.93,0.31,1.55,0.31c0,0,0.01,0,0.01,0c0,0,0.01,0,0.01,0c0.62,0,1.14-0.1,1.55-0.31c0.27-0.14,0.5-0.3,0.67-0.5
				c0.04-0.04,0.08-0.08,0.11-0.13c0.24-0.29,0.36-0.63,0.37-1.02c0.03-0.03,0.06-0.06,0.08-0.09c0,0,0.37-0.28,0.43-0.86
				c0.02-0.24,0.11-0.47,0.27-0.67c0.2-0.22,0.4-0.3,0.64-0.15l0.12-0.26c-0.11-0.09-0.22-0.16-0.32-0.19
				c-0.22-0.09-0.43-0.1-0.65-0.04c-0.22,0.06-0.4,0.18-0.55,0.36c-0.09,0.12-0.17,0.24-0.21,0.37c-0.03,0.1-0.07,0.21-0.11,0.35
				c-0.01,0.02-0.01,0.05-0.02,0.08c-0.08-0.1-0.16-0.19-0.26-0.27c-0.4-0.33-0.92-0.54-1.57-0.62l-0.28-0.03
				c0,0-0.26-0.03-0.26-0.03l-0.24-0.03c-0.33-0.05-0.59-0.17-0.77-0.35c-0.22-0.24-0.33-0.61-0.33-1.12c0-0.31,0.07-0.57,0.2-0.79
				c0.13-0.22,0.31-0.39,0.53-0.5c0.22-0.11,0.47-0.17,0.73-0.17c0.27,0,0.5,0.04,0.68,0.13c0.19,0.09,0.33,0.19,0.43,0.32
				c0.09,0.13,0.14,0.26,0.14,0.39c0,0.21-0.06,0.36-0.19,0.45c-0.12,0.09-0.26,0.13-0.42,0.13c-0.06,0-0.1,0-0.12-0.01
				c0,0.09,0.02,0.19,0.07,0.3c0.04,0.12,0.12,0.22,0.22,0.3c0.1,0.09,0.23,0.13,0.39,0.13c0.24,0,0.44-0.08,0.59-0.25
				c0.16-0.17,0.23-0.38,0.23-0.65c0-0.18-0.07-0.38-0.2-0.59c-0.13-0.22-0.35-0.4-0.65-0.56c-0.3-0.16-0.68-0.23-1.15-0.23
				c-0.68,0-1.27,0.13-1.75,0.4c-0.49,0.27-0.73,0.67-0.73,1.21c0,0.45,0.16,0.8,0.48,1.06c0.32,0.26,0.75,0.43,1.3,0.5
				c-0.65,0.09-1.17,0.29-1.57,0.62C155.41,95.95,155.25,96.39,155.2,96.88z M156.74,95.55c0.28-0.29,0.67-0.44,1.17-0.45
				c0.5,0.01,0.89,0.16,1.17,0.45c0.29,0.3,0.43,0.77,0.43,1.41c0,1.17-0.53,1.77-1.6,1.8c-1.07-0.03-1.6-0.63-1.6-1.8
				C156.31,96.32,156.45,95.85,156.74,95.55z"/>
			<g>
				<path class="st2" d="M136.92,97c-0.35-0.03-0.72-0.04-1.08-0.04c-0.35,0-0.7,0.01-1.03,0.04v-0.16l0.56-0.32v-1.9
					c0-0.69-0.31-1.08-0.8-1.08c-0.31,0-0.53,0.03-0.87,0.19v2.8l0.57,0.3V97c-0.36-0.03-0.73-0.05-1.1-0.05
					c-0.35,0-0.7,0.02-1.03,0.05v-0.16l0.57-0.3v-5.22l-0.63-0.5l0.01-0.18l0.99-0.09c0.3-0.03,0.46-0.04,0.5-0.04
					c0.1,0,0.13,0.04,0.13,0.13v2.92c0.5-0.42,0.93-0.71,1.42-0.71c0.86,0,1.24,0.55,1.24,1.42v2.24l0.56,0.33L136.92,97z"/>
				<path class="st2" d="M139.4,97.09c-1.07,0-1.88-0.71-1.88-2c0-1.54,0.95-2.24,2-2.24c1.02,0,1.57,0.6,1.57,1.47
					c0,0.15-0.02,0.3-0.05,0.47h-2.52c0.05,1.1,0.71,1.59,1.43,1.59c0.38,0,0.65-0.07,0.99-0.21l0.11,0.15
					C140.75,96.62,140.23,97.09,139.4,97.09z M138.54,94.5l1.5-0.06c0.01-0.11,0.02-0.2,0.02-0.3c0-0.55-0.22-1.01-0.67-1.01
					C138.92,93.13,138.58,93.65,138.54,94.5z"/>
				<path class="st2" d="M144.22,97c-0.35-0.03-0.78-0.04-1.25-0.04c-0.42,0-0.85,0.01-1.18,0.04v-0.16l0.58-0.32v-2.87l-0.62-0.46
					v-0.16l0.85-0.09c0.18-0.03,0.49-0.05,0.53-0.05c0.08,0,0.12,0.05,0.14,0.14l0.08,0.54c0.35-0.33,0.71-0.71,1.07-0.71
					c0.29,0,0.52,0.21,0.52,0.57c0,0.57-0.58,0.73-0.82,0.73c0.05-0.08,0.06-0.15,0.06-0.23c0-0.21-0.15-0.34-0.38-0.34
					c-0.14,0-0.28,0.06-0.42,0.15v2.68l0.85,0.42V97z"/>
				<path class="st2" d="M147.53,97.09c-0.57,0-1.28-0.2-1.59-0.36v-5.41l-0.63-0.5l0.01-0.18l0.99-0.09
					c0.3-0.03,0.46-0.04,0.51-0.04c0.09,0,0.12,0.04,0.12,0.13v2.87c0.42-0.33,0.81-0.66,1.36-0.66c1.08,0,1.55,0.89,1.55,1.9
					C149.84,95.99,149.09,97.09,147.53,97.09z M147.92,96.75c0.52,0,0.88-0.62,0.88-1.63c0-0.99-0.32-1.6-1.09-1.6
					c-0.31,0-0.51,0.05-0.77,0.19v2.49C147.15,96.51,147.51,96.75,147.92,96.75z"/>
				<path class="st2" d="M150.78,96.88l-0.04-1.29h0.23l0.68,1.03c0.19,0.14,0.35,0.17,0.57,0.17c0.37,0,0.61-0.24,0.61-0.54
					c0-0.46-0.4-0.67-0.97-0.94c-0.64-0.3-1.14-0.54-1.14-1.27c0-0.71,0.67-1.18,1.55-1.18c0.48,0,0.94,0.13,1.19,0.24v1.06h-0.18
					l-0.71-0.91c-0.11-0.07-0.22-0.11-0.41-0.11c-0.29,0-0.57,0.16-0.57,0.51c0,0.35,0.38,0.62,0.94,0.89
					c0.61,0.29,1.16,0.61,1.16,1.32c0,0.71-0.62,1.25-1.54,1.25C151.63,97.09,151.18,97.01,150.78,96.88z"/>
			</g>
			<g>
				<g>
					<path class="st2" d="M134.35,104.61c-0.4-0.02-0.75-0.03-1.18-0.03c-0.35,0-0.77,0.01-1.09,0.03v-0.16l0.62-0.31v-5.21
						l-0.64-0.5l0.01-0.18l0.99-0.09c0.31-0.03,0.47-0.04,0.52-0.04c0.09,0,0.12,0.04,0.12,0.13v5.88l0.65,0.32V104.61z
						 M136.73,104.61h-1.36c-0.08-0.23-0.4-0.8-0.61-1.18c-0.31-0.52-0.5-0.79-0.91-0.88v-0.19l0.53-0.1
						c0.31-0.22,0.74-0.7,0.92-1.07l-0.69-0.42v-0.17c0.4,0.02,0.74,0.03,1.01,0.03c0.24,0,0.6-0.01,0.93-0.03v0.18
						c-0.2,0.12-0.48,0.34-0.78,0.65c-0.3,0.3-0.58,0.63-0.93,0.89c0.33,0.06,0.56,0.28,0.87,0.81c0.29,0.52,0.47,0.81,0.63,1.05
						l0.38,0.26V104.61z"/>
					<path class="st2" d="M139.28,104.7c-1.07,0-1.88-0.71-1.88-2c0-1.54,0.95-2.24,2-2.24c1.02,0,1.57,0.6,1.57,1.47
						c0,0.15-0.02,0.3-0.05,0.47h-2.52c0.05,1.1,0.71,1.59,1.43,1.59c0.38,0,0.65-0.07,0.99-0.21l0.11,0.15
						C140.63,104.23,140.11,104.7,139.28,104.7z M138.42,102.11l1.5-0.06c0.01-0.11,0.02-0.2,0.02-0.3c0-0.55-0.22-1.01-0.67-1.01
						C138.8,100.74,138.46,101.26,138.42,102.11z"/>
					<path class="st2" d="M143.3,104.7c-0.35,0-0.82-0.14-0.82-0.93V101h-0.54v-0.26l0.58-0.22l0.75-1.12h0.21v1.2h0.98v0.42h-0.98
						v2.26c0,0.56,0.32,0.69,0.57,0.69c0.17,0,0.31-0.06,0.44-0.13l0.11,0.19C144.35,104.28,143.83,104.7,143.3,104.7z"/>
					<path class="st2" d="M146.56,104.7c-0.35,0-0.82-0.14-0.82-0.93V101h-0.54v-0.26l0.58-0.22l0.75-1.12h0.21v1.2h0.98v0.42h-0.98
						v2.26c0,0.56,0.32,0.69,0.57,0.69c0.17,0,0.31-0.06,0.44-0.13l0.11,0.19C147.61,104.28,147.09,104.7,146.56,104.7z"/>
					<path class="st2" d="M150.64,104.61c-0.36-0.02-0.74-0.03-1.12-0.03c-0.34,0-0.68,0.01-1,0.03v-0.16l0.57-0.31v-5.21l-0.63-0.5
						v-0.18l0.99-0.09c0.3-0.03,0.47-0.04,0.51-0.04c0.1,0,0.13,0.04,0.13,0.13l0,5.89l0.56,0.3V104.61z"/>
					<path class="st2" d="M153.46,104.7c-1.07,0-1.88-0.71-1.88-2c0-1.54,0.95-2.24,2-2.24c1.02,0,1.57,0.6,1.57,1.47
						c0,0.15-0.02,0.3-0.05,0.47l-2.52,0c0.05,1.1,0.71,1.59,1.43,1.59c0.38,0,0.65-0.07,0.99-0.21l0.11,0.15
						C154.81,104.23,154.28,104.7,153.46,104.7z M152.59,102.11l1.5-0.06c0.01-0.11,0.02-0.2,0.02-0.3c0-0.55-0.22-1.01-0.67-1.01
						C152.97,100.74,152.64,101.26,152.59,102.11z"/>
					<path class="st2" d="M156.41,104.49l-0.04-1.29h0.23l0.68,1.03c0.19,0.14,0.35,0.17,0.57,0.17c0.37,0,0.61-0.24,0.61-0.54
						c0-0.46-0.4-0.67-0.97-0.94c-0.64-0.3-1.14-0.54-1.14-1.27c0-0.71,0.67-1.18,1.55-1.18c0.48,0,0.94,0.13,1.19,0.24v1.06h-0.18
						l-0.71-0.91c-0.11-0.07-0.22-0.11-0.41-0.11c-0.29,0-0.57,0.16-0.57,0.51c0,0.35,0.38,0.62,0.94,0.89
						c0.61,0.29,1.16,0.61,1.16,1.32s-0.62,1.25-1.54,1.25C157.27,104.7,156.82,104.61,156.41,104.49z"/>
				</g>
			</g>
			<g>
				<path class="st2" d="M133.72,107.19c0-0.06-0.01-0.22-0.02-0.35c0.17-0.01,0.23,0.03,0.23,0.21c0,0.2-0.08,0.49-0.22,0.73
					c-0.12,0.21-0.27,0.38-0.44,0.38c-0.11,0-0.19-0.16-0.2-0.48c-0.12,0.3-0.28,0.48-0.43,0.48c-0.19,0-0.33-0.23-0.33-0.42
					c0-0.17,0.11-0.36,0.23-0.55c-0.06-0.07-0.11-0.12-0.18-0.12c-0.08,0-0.16,0.09-0.24,0.29l-0.11-0.04
					c0.09-0.28,0.22-0.5,0.36-0.5c0.09,0,0.18,0.08,0.25,0.19c0.03-0.09,0.06-0.15,0.07-0.19l0.12,0.04
					c-0.18,0.37-0.27,0.6-0.27,0.79c0,0.17,0.07,0.31,0.16,0.31c0.12,0,0.25-0.18,0.36-0.43c-0.02-0.2-0.01-0.46,0.02-0.66h0.27
					c-0.06,0.29-0.14,0.47-0.23,0.67c0.07,0.27,0.13,0.42,0.23,0.42C133.51,107.95,133.72,107.58,133.72,107.19z"/>
				<path class="st2" d="M134.45,107.87c0,0.03,0.01,0.06,0.04,0.06c0.04,0,0.11-0.03,0.19-0.09l0.07,0.11
					c-0.13,0.09-0.27,0.2-0.4,0.2c-0.1,0-0.17-0.06-0.17-0.18c0-0.17,0.21-0.69,0.21-0.86c0-0.04-0.01-0.06-0.04-0.06
					c-0.04,0-0.11,0.03-0.19,0.08l-0.07-0.1c0.13-0.1,0.27-0.2,0.4-0.2c0.09,0,0.16,0.06,0.16,0.18
					C134.65,107.19,134.45,107.68,134.45,107.87z M134.47,106.45c0-0.12,0.08-0.17,0.19-0.17c0.08,0,0.13,0.04,0.13,0.13
					c0,0.12-0.07,0.18-0.19,0.18C134.53,106.59,134.47,106.54,134.47,106.45z"/>
				<path class="st2" d="M135.22,107.01h-0.19l0.04-0.15h0.2c0.07-0.07,0.14-0.2,0.21-0.36l0.12,0.03c-0.03,0.1-0.06,0.22-0.09,0.33
					h0.39l-0.04,0.15h-0.39c-0.1,0.38-0.2,0.75-0.2,0.85c0,0.04,0.01,0.07,0.06,0.07c0.07,0,0.19-0.05,0.33-0.17l0.07,0.1
					c-0.17,0.15-0.37,0.29-0.55,0.29c-0.11,0-0.17-0.06-0.17-0.19C134.99,107.8,135.1,107.43,135.22,107.01z"/>
				<path class="st2" d="M136.21,106.55c-0.04,0-0.11,0.03-0.19,0.09l-0.07-0.11c0.13-0.09,0.27-0.2,0.4-0.2
					c0.09,0,0.15,0.06,0.15,0.19c0,0.11-0.11,0.51-0.18,0.78l0.04,0.01c0.19-0.36,0.4-0.49,0.58-0.49c0.16,0,0.22,0.08,0.22,0.2
					c0,0.21-0.23,0.66-0.23,0.85c0,0.04,0.01,0.07,0.04,0.07c0.04,0,0.11-0.03,0.19-0.09l0.07,0.1c-0.13,0.1-0.27,0.2-0.4,0.2
					c-0.1,0-0.16-0.06-0.16-0.19c0-0.21,0.22-0.63,0.22-0.85c0-0.06-0.03-0.09-0.11-0.09c-0.15,0-0.43,0.14-0.67,1.1h-0.25
					c0.12-0.38,0.38-1.31,0.38-1.5C136.26,106.58,136.25,106.55,136.21,106.55z"/>
				<path class="st2" d="M138.3,106.55c-0.04,0-0.11,0.03-0.19,0.09l-0.07-0.11c0.13-0.09,0.27-0.2,0.4-0.2
					c0.09,0,0.15,0.06,0.15,0.19c0,0.24-0.32,1.11-0.32,1.34c0,0.04,0.01,0.07,0.04,0.07c0.04,0,0.11-0.03,0.19-0.09l0.07,0.1
					c-0.13,0.1-0.27,0.2-0.4,0.2c-0.1,0-0.16-0.06-0.16-0.19c0-0.23,0.33-1.11,0.33-1.34C138.34,106.58,138.33,106.55,138.3,106.55z
					"/>
				<path class="st2" d="M138.75,107.7c0-0.49,0.32-0.87,0.74-0.87c0.23,0,0.44,0.13,0.44,0.45c0,0.48-0.31,0.88-0.74,0.88
					C138.96,108.15,138.75,108.02,138.75,107.7z M138.99,107.69c0,0.2,0.1,0.31,0.27,0.31c0.22,0,0.43-0.29,0.43-0.72
					c0-0.2-0.1-0.31-0.26-0.31C139.2,106.97,138.99,107.31,138.99,107.69z"/>
				<path class="st2" d="M140.59,107.18c-0.06-0.07-0.11-0.12-0.18-0.12c-0.08,0-0.16,0.09-0.24,0.29l-0.11-0.04
					c0.09-0.28,0.22-0.5,0.36-0.5c0.09,0,0.18,0.08,0.25,0.19c0.03-0.09,0.06-0.15,0.07-0.19l0.12,0.04
					c-0.18,0.38-0.31,0.6-0.31,0.79c0,0.16,0.13,0.3,0.26,0.3c0.18,0,0.41-0.36,0.41-0.76c0-0.06-0.01-0.22-0.01-0.35
					c0.17-0.01,0.23,0.03,0.23,0.21c0,0.36-0.31,1.11-0.74,1.11c-0.2,0-0.37-0.23-0.37-0.42
					C140.32,107.56,140.45,107.38,140.59,107.18z"/>
				<path class="st2" d="M141.86,107.46c-0.01,0.05-0.02,0.11-0.02,0.16c0,0.23,0.12,0.33,0.26,0.33c0.14,0,0.29-0.11,0.41-0.29
					l0.09,0.06c-0.13,0.25-0.36,0.42-0.62,0.42c-0.21,0-0.39-0.17-0.39-0.44c0-0.48,0.31-0.89,0.77-0.89c0.22,0,0.35,0.11,0.35,0.25
					C142.72,107.25,142.43,107.39,141.86,107.46z M141.87,107.42c0.4-0.11,0.62-0.21,0.62-0.32c0-0.08-0.07-0.13-0.21-0.13
					C142.09,106.97,141.93,107.17,141.87,107.42z"/>
				<path class="st2" d="M142.61,108.4c0.16-0.12,0.29-0.24,0.29-0.33c0-0.06-0.02-0.1-0.07-0.17c0.02-0.04,0.09-0.09,0.19-0.09
					c0.1,0,0.16,0.06,0.16,0.16c0,0.19-0.26,0.37-0.51,0.53L142.61,108.4z"/>
				<path class="st2" d="M144.41,107.83c0,0.06,0.03,0.09,0.1,0.09c0.16,0,0.43-0.13,0.67-1.07h0.25c-0.09,0.27-0.22,0.67-0.29,1.01
					c-0.11,0.55-0.32,0.73-0.86,0.73c-0.22,0-0.37-0.07-0.32-0.26c0.15,0.03,0.3,0.07,0.55,0.07c0.26,0,0.32-0.11,0.37-0.33
					c0.02-0.09,0.04-0.18,0.06-0.26c0.01-0.06,0.02-0.11,0.04-0.17l-0.03-0.01c-0.19,0.36-0.38,0.48-0.58,0.48
					c-0.16,0-0.22-0.08-0.22-0.19c0-0.2,0.23-0.63,0.23-0.82c0-0.04-0.01-0.07-0.04-0.07c-0.04,0-0.11,0.02-0.19,0.08l-0.07-0.1
					c0.13-0.1,0.27-0.2,0.4-0.2c0.1,0,0.16,0.06,0.16,0.19C144.62,107.21,144.41,107.63,144.41,107.83z"/>
				<path class="st2" d="M145.54,107.7c0-0.49,0.32-0.87,0.74-0.87c0.23,0,0.44,0.13,0.44,0.45c0,0.48-0.31,0.88-0.74,0.88
					C145.75,108.15,145.54,108.02,145.54,107.7z M145.78,107.69c0,0.2,0.1,0.31,0.27,0.31c0.22,0,0.43-0.29,0.43-0.72
					c0-0.2-0.1-0.31-0.26-0.31C146,106.97,145.78,107.31,145.78,107.69z"/>
				<path class="st2" d="M147.81,107.67l-0.03-0.01c-0.19,0.36-0.38,0.49-0.58,0.49c-0.16,0-0.22-0.08-0.22-0.2
					c0-0.21,0.23-0.66,0.23-0.85c0-0.04-0.01-0.07-0.04-0.07c-0.04,0-0.11,0.03-0.19,0.09l-0.07-0.1c0.13-0.1,0.27-0.2,0.4-0.2
					c0.1,0,0.16,0.06,0.16,0.19c0,0.21-0.22,0.66-0.22,0.85c0,0.06,0.04,0.09,0.1,0.09c0.16,0,0.42-0.14,0.67-1.1h0.26
					c-0.08,0.26-0.28,0.87-0.28,1.01c0,0.04,0.01,0.07,0.04,0.07c0.04,0,0.11-0.03,0.19-0.09l0.07,0.11c-0.13,0.09-0.27,0.2-0.4,0.2
					c-0.08,0-0.14-0.06-0.14-0.19C147.75,107.91,147.78,107.78,147.81,107.67z"/>
				<path class="st2" d="M148.47,108.12c0.08-0.26,0.28-0.87,0.28-1.01c0-0.04-0.01-0.07-0.04-0.07c-0.04,0-0.11,0.03-0.19,0.09
					l-0.07-0.11c0.13-0.1,0.26-0.2,0.39-0.2c0.07,0,0.12,0.05,0.12,0.18c0,0.07-0.04,0.23-0.07,0.36l0.03,0.01
					c0.16-0.41,0.32-0.55,0.47-0.55c0.08,0,0.1,0.08,0.1,0.28c-0.35,0.02-0.54,0.12-0.77,1.01H148.47z"/>
				<path class="st2" d="M151.16,107.21c-0.09-0.14-0.2-0.24-0.35-0.24c-0.25,0-0.45,0.36-0.45,0.66c0,0.2,0.11,0.32,0.26,0.32
					c0.16,0,0.3-0.1,0.42-0.28l0.09,0.06c-0.14,0.25-0.35,0.42-0.63,0.42c-0.2,0-0.38-0.17-0.38-0.44c0-0.42,0.28-0.89,0.76-0.89
					c0.26,0,0.36,0.11,0.36,0.22c0,0.06-0.03,0.13-0.06,0.17H151.16z"/>
				<path class="st2" d="M151.66,106.55c-0.04,0-0.11,0.03-0.19,0.09l-0.07-0.11c0.13-0.09,0.27-0.2,0.4-0.2
					c0.09,0,0.15,0.06,0.15,0.19c0,0.11-0.11,0.51-0.18,0.78l0.04,0.01c0.19-0.36,0.4-0.49,0.58-0.49c0.16,0,0.22,0.08,0.22,0.2
					c0,0.21-0.23,0.66-0.23,0.85c0,0.04,0.01,0.07,0.04,0.07c0.04,0,0.11-0.03,0.19-0.09l0.07,0.1c-0.13,0.1-0.27,0.2-0.4,0.2
					c-0.1,0-0.16-0.06-0.16-0.19c0-0.21,0.22-0.63,0.22-0.85c0-0.06-0.03-0.09-0.11-0.09c-0.15,0-0.43,0.14-0.67,1.1h-0.25
					c0.12-0.38,0.38-1.31,0.38-1.5C151.7,106.58,151.69,106.55,151.66,106.55z"/>
				<path class="st2" d="M153.87,107.93c0.04,0,0.11-0.03,0.19-0.09l0.07,0.1c-0.13,0.1-0.27,0.2-0.4,0.2
					c-0.08,0-0.13-0.06-0.13-0.18c0-0.07,0.03-0.21,0.06-0.33l-0.03-0.01c-0.17,0.38-0.41,0.51-0.57,0.51c-0.12,0-0.22-0.1-0.22-0.3
					c0-0.49,0.45-1.07,1.25-1.02c-0.11,0.37-0.26,0.86-0.26,1.02C153.82,107.9,153.84,107.93,153.87,107.93z M153.81,106.97
					c-0.48,0.05-0.74,0.43-0.74,0.82c0,0.12,0.04,0.17,0.12,0.17C153.31,107.95,153.56,107.85,153.81,106.97z"/>
				<path class="st2" d="M154.63,107.87c0,0.03,0.01,0.06,0.04,0.06c0.04,0,0.11-0.03,0.19-0.09l0.07,0.11
					c-0.13,0.09-0.27,0.2-0.4,0.2c-0.1,0-0.17-0.06-0.17-0.18c0-0.17,0.21-0.69,0.21-0.86c0-0.04-0.01-0.06-0.04-0.06
					c-0.04,0-0.11,0.03-0.19,0.08l-0.07-0.1c0.13-0.1,0.27-0.2,0.4-0.2c0.09,0,0.16,0.06,0.16,0.18
					C154.84,107.19,154.63,107.68,154.63,107.87z M154.66,106.45c0-0.12,0.08-0.17,0.19-0.17c0.08,0,0.13,0.04,0.13,0.13
					c0,0.12-0.07,0.18-0.2,0.18C154.71,106.59,154.66,106.54,154.66,106.45z"/>
				<path class="st2" d="M156.77,107.19c0-0.06-0.01-0.22-0.02-0.35c0.17-0.01,0.23,0.03,0.23,0.21c0,0.2-0.08,0.49-0.22,0.73
					c-0.12,0.21-0.27,0.38-0.44,0.38c-0.11,0-0.19-0.16-0.2-0.48c-0.12,0.3-0.28,0.48-0.43,0.48c-0.19,0-0.33-0.23-0.33-0.42
					c0-0.17,0.11-0.36,0.23-0.55c-0.06-0.07-0.11-0.12-0.18-0.12c-0.08,0-0.16,0.09-0.24,0.29l-0.11-0.04
					c0.09-0.28,0.22-0.5,0.36-0.5c0.09,0,0.18,0.08,0.25,0.19c0.03-0.09,0.06-0.15,0.07-0.19l0.12,0.04
					c-0.18,0.37-0.27,0.6-0.27,0.79c0,0.17,0.07,0.31,0.16,0.31c0.12,0,0.25-0.18,0.36-0.43c-0.02-0.2-0.01-0.46,0.02-0.66h0.27
					c-0.06,0.29-0.14,0.47-0.23,0.67c0.07,0.27,0.13,0.42,0.23,0.42C156.55,107.95,156.77,107.58,156.77,107.19z"/>
				<path class="st2" d="M158.13,107.93c0.04,0,0.11-0.03,0.19-0.09l0.07,0.1c-0.13,0.1-0.27,0.2-0.4,0.2
					c-0.08,0-0.13-0.06-0.13-0.18c0-0.07,0.03-0.21,0.06-0.33l-0.03-0.01c-0.17,0.38-0.41,0.51-0.57,0.51c-0.12,0-0.22-0.1-0.22-0.3
					c0-0.49,0.45-1.07,1.25-1.02c-0.11,0.37-0.26,0.86-0.26,1.02C158.08,107.9,158.1,107.93,158.13,107.93z M158.07,106.97
					c-0.48,0.05-0.74,0.43-0.74,0.82c0,0.12,0.04,0.17,0.12,0.17C157.57,107.95,157.82,107.85,158.07,106.97z"/>
				<path class="st2" d="M158.87,106.55c-0.04,0-0.11,0.03-0.19,0.09l-0.07-0.11c0.13-0.09,0.27-0.2,0.4-0.2
					c0.09,0,0.15,0.06,0.15,0.19c0,0.24-0.32,1.11-0.32,1.34c0,0.04,0.01,0.07,0.04,0.07c0.04,0,0.11-0.03,0.19-0.09l0.07,0.1
					c-0.13,0.1-0.27,0.2-0.4,0.2c-0.1,0-0.16-0.06-0.16-0.19c0-0.23,0.33-1.11,0.33-1.34C158.92,106.58,158.9,106.55,158.87,106.55z
					"/>
				<path class="st2" d="M160.32,107.93c0.04,0,0.11-0.03,0.19-0.09l0.07,0.1c-0.13,0.1-0.27,0.2-0.4,0.2
					c-0.08,0-0.13-0.06-0.13-0.18c0-0.07,0.03-0.21,0.06-0.33l-0.03-0.01c-0.17,0.38-0.41,0.51-0.57,0.51c-0.12,0-0.22-0.1-0.22-0.3
					c0-0.49,0.45-1.07,1.25-1.02c-0.11,0.37-0.26,0.86-0.26,1.02C160.27,107.9,160.29,107.93,160.32,107.93z M160.26,106.97
					c-0.48,0.05-0.74,0.43-0.74,0.82c0,0.12,0.04,0.17,0.12,0.17C159.77,107.95,160.01,107.85,160.26,106.97z"/>
			</g>
		</g>
	</g>
	<g>
		<g>
			<g>
				<path class="st2" d="M75.11,134.98l-46.81,7.56c-1.81,0.29-3.51-0.94-3.81-2.75l-9.3-57.59l1.62-0.26
					c0.14-0.16,0.48-0.6,0.4-1.03c-0.05-0.29-0.29-0.54-0.71-0.74l-1.6,0.27l-0.88-5.48c-0.14-0.88,0.07-1.77,0.6-2.49
					c0.53-0.72,1.31-1.19,2.19-1.32l46.8-7.56c1.79-0.26,3.48,0.97,3.77,2.75l0.87,5.39l-1.94,0.31c-0.13,0.13-0.46,0.51-0.42,0.92
					c0.03,0.31,0.27,0.6,0.72,0.86l1.92-0.31l9.31,57.65C78.15,132.98,76.92,134.69,75.11,134.98z"/>
				<path class="st0" d="M15.79,82.64l9.22,57.08c0.25,1.52,1.68,2.56,3.21,2.31l46.81-7.56c1.52-0.25,2.56-1.68,2.31-3.21
					l-9.23-57.14l-1.59,0.26l-0.08-0.04c-0.65-0.36-1.01-0.8-1.06-1.31c-0.08-0.78,0.62-1.39,0.65-1.42l0.06-0.05l1.57-0.25
					l-0.79-4.88c-0.24-1.5-1.67-2.54-3.17-2.32l-46.8,7.56c-0.73,0.12-1.4,0.51-1.85,1.11c-0.45,0.61-0.62,1.35-0.5,2.1l0.8,4.96
					l1.24-0.21l0.07,0.03c0.63,0.29,0.99,0.68,1.08,1.16c0.14,0.8-0.57,1.52-0.6,1.55l-0.06,0.06L15.79,82.64z"/>
			</g>
			<g>
				<path class="st2" d="M74.48,131.95l-47.21,7.63l-8.43-52.17l47.21-7.63L74.48,131.95z M27.7,138.98l46.18-7.46l-8.26-51.14
					l-46.18,7.46L27.7,138.98z"/>
			</g>
			<g>
				
					<rect x="17.64" y="76.19" transform="matrix(0.9872 -0.1595 0.1595 0.9872 -11.6646 7.5644)" class="st2" width="47.3" height="0.52"/>
			</g>
			<g>
				
					<rect x="17.84" y="77.42" transform="matrix(0.9872 -0.1595 0.1595 0.9872 -11.8578 7.6118)" class="st2" width="47.3" height="0.52"/>
			</g>
		</g>
		<g>
			<path class="st2" d="M53.37,98.19c0.05,0.41,0.23,0.8,0.55,1.08c0.04,0.04,0.09,0.07,0.13,0.11c0.2,0.16,0.45,0.29,0.74,0.38
				c0.43,0.14,0.96,0.16,1.58,0.06c0,0,0.01,0,0.01,0s0.01,0,0.01,0c0.62-0.1,1.11-0.29,1.48-0.55c0.25-0.18,0.44-0.38,0.58-0.6
				c0.03-0.05,0.06-0.09,0.09-0.14c0.19-0.32,0.26-0.68,0.2-1.07c0.02-0.03,0.05-0.07,0.07-0.11c0,0,0.32-0.34,0.28-0.92
				c-0.02-0.24,0.03-0.48,0.16-0.71c0.16-0.25,0.35-0.36,0.61-0.25l0.08-0.27c-0.12-0.07-0.24-0.12-0.35-0.14
				c-0.23-0.05-0.44-0.03-0.65,0.07c-0.21,0.09-0.37,0.24-0.49,0.45c-0.07,0.13-0.13,0.26-0.15,0.4c-0.02,0.1-0.04,0.22-0.05,0.36
				c0,0.03-0.01,0.05-0.01,0.08c-0.09-0.08-0.19-0.16-0.3-0.23c-0.44-0.26-0.99-0.38-1.65-0.36l-0.28,0.01c0,0-0.26,0.01-0.26,0.01
				l-0.24,0.01c-0.34,0-0.61-0.07-0.82-0.23c-0.26-0.2-0.43-0.55-0.51-1.05c-0.05-0.3-0.03-0.57,0.07-0.81
				c0.09-0.24,0.24-0.43,0.45-0.58c0.2-0.15,0.44-0.24,0.69-0.28c0.26-0.04,0.5-0.04,0.69,0.02c0.2,0.05,0.36,0.13,0.47,0.25
				c0.11,0.11,0.18,0.23,0.2,0.36c0.03,0.21,0,0.37-0.11,0.48c-0.11,0.1-0.24,0.17-0.4,0.2c-0.06,0.01-0.1,0.01-0.12,0.01
				c0.01,0.08,0.05,0.18,0.12,0.28c0.06,0.11,0.15,0.2,0.26,0.26c0.11,0.07,0.25,0.09,0.4,0.07c0.24-0.04,0.42-0.15,0.54-0.34
				c0.13-0.19,0.17-0.42,0.13-0.68c-0.03-0.18-0.13-0.36-0.29-0.55c-0.16-0.19-0.41-0.34-0.73-0.45c-0.32-0.11-0.71-0.12-1.17-0.05
				c-0.67,0.11-1.23,0.33-1.67,0.67c-0.44,0.34-0.61,0.78-0.53,1.31c0.07,0.44,0.28,0.77,0.64,0.97c0.36,0.2,0.81,0.3,1.36,0.29
				c-0.63,0.19-1.11,0.47-1.45,0.86C53.42,97.25,53.33,97.7,53.37,98.19z M54.68,96.64c0.23-0.33,0.59-0.54,1.09-0.63
				c0.5-0.07,0.91,0.01,1.23,0.26c0.33,0.25,0.55,0.69,0.65,1.32c0.19,1.15-0.25,1.83-1.29,2.04c-1.06,0.14-1.68-0.37-1.87-1.52
				C54.37,97.47,54.44,96.98,54.68,96.64z"/>
			<g>
				<path class="st2" d="M35.34,101.23c-0.35,0.03-0.72,0.08-1.08,0.14c-0.35,0.06-0.69,0.12-1.01,0.2l-0.03-0.16l0.5-0.4l-0.3-1.87
					c-0.11-0.68-0.47-1.01-0.96-0.94c-0.3,0.05-0.52,0.11-0.83,0.33l0.45,2.77l0.61,0.2l0.03,0.16c-0.36,0.03-0.73,0.07-1.1,0.13
					c-0.35,0.06-0.68,0.13-1.01,0.21l-0.03-0.16l0.51-0.39l-0.83-5.15l-0.7-0.39l-0.02-0.18l0.97-0.25
					c0.29-0.07,0.45-0.11,0.49-0.11c0.1-0.02,0.13,0.02,0.15,0.1l0.47,2.88c0.42-0.49,0.81-0.85,1.29-0.93
					c0.85-0.14,1.31,0.35,1.45,1.2l0.36,2.21l0.61,0.23L35.34,101.23z"/>
				<path class="st2" d="M37.81,100.92c-1.05,0.17-1.97-0.4-2.17-1.67c-0.25-1.52,0.58-2.36,1.61-2.53c1.01-0.16,1.65,0.34,1.79,1.2
					c0.02,0.15,0.03,0.3,0.03,0.47l-2.49,0.4c0.23,1.08,0.96,1.46,1.66,1.34c0.37-0.06,0.63-0.18,0.94-0.36l0.13,0.13
					C39.06,100.24,38.62,100.79,37.81,100.92z M36.54,98.51l1.47-0.3c-0.01-0.11-0.01-0.2-0.03-0.3c-0.09-0.54-0.38-0.96-0.82-0.89
					C36.69,97.09,36.45,97.66,36.54,98.51z"/>
				<path class="st2" d="M42.55,100.06c-0.35,0.03-0.77,0.09-1.24,0.16c-0.42,0.07-0.84,0.14-1.15,0.22l-0.03-0.16l0.52-0.4
					l-0.46-2.84l-0.69-0.36l-0.03-0.16l0.82-0.22c0.17-0.06,0.47-0.13,0.52-0.14c0.08-0.01,0.12,0.03,0.16,0.11l0.17,0.52
					c0.29-0.39,0.59-0.81,0.94-0.87c0.29-0.05,0.54,0.12,0.6,0.48c0.09,0.56-0.45,0.82-0.7,0.85c0.03-0.09,0.04-0.16,0.03-0.23
					c-0.03-0.21-0.21-0.31-0.43-0.28c-0.14,0.02-0.27,0.11-0.39,0.22l0.43,2.65l0.91,0.27L42.55,100.06z"/>
				<path class="st2" d="M45.83,99.63c-0.56,0.09-1.3,0.01-1.63-0.1l-0.86-5.34l-0.7-0.39l-0.02-0.18l0.97-0.25
					c0.29-0.07,0.45-0.11,0.49-0.12c0.09-0.01,0.12,0.02,0.14,0.11l0.46,2.83c0.37-0.4,0.7-0.78,1.23-0.87
					c1.07-0.17,1.67,0.63,1.83,1.63C47.93,98.18,47.37,99.38,45.83,99.63z M46.16,99.23c0.51-0.08,0.77-0.76,0.61-1.75
					c-0.16-0.97-0.57-1.53-1.34-1.41c-0.3,0.05-0.49,0.13-0.73,0.31l0.4,2.45C45.36,99.12,45.76,99.29,46.16,99.23z"/>
				<path class="st2" d="M49,98.9l-0.24-1.27l0.22-0.04l0.83,0.91c0.21,0.11,0.38,0.11,0.59,0.08c0.37-0.06,0.57-0.33,0.52-0.63
					c-0.07-0.46-0.5-0.6-1.1-0.77c-0.68-0.19-1.21-0.35-1.33-1.08c-0.11-0.71,0.47-1.28,1.34-1.42c0.47-0.08,0.95-0.02,1.22,0.05
					l0.17,1.04l-0.18,0.03l-0.85-0.79c-0.12-0.05-0.23-0.07-0.42-0.04c-0.29,0.05-0.54,0.25-0.48,0.59
					c0.06,0.35,0.47,0.56,1.07,0.72c0.65,0.19,1.24,0.41,1.35,1.12c0.11,0.71-0.42,1.33-1.32,1.48C49.88,98.97,49.42,98.96,49,98.9z
					"/>
			</g>
			<g>
				<g>
					<path class="st2" d="M34.01,109.15c-0.4,0.05-0.75,0.09-1.16,0.16c-0.35,0.06-0.76,0.13-1.08,0.2l-0.03-0.16l0.57-0.4
						l-0.83-5.14l-0.71-0.39l-0.02-0.18l0.97-0.25c0.3-0.08,0.46-0.11,0.5-0.12c0.09-0.01,0.12,0.02,0.14,0.11l0.94,5.8l0.69,0.21
						L34.01,109.15z M36.37,108.77l-1.34,0.22c-0.12-0.21-0.52-0.72-0.79-1.06c-0.39-0.46-0.62-0.7-1.04-0.72l-0.03-0.19l0.51-0.18
						c0.27-0.26,0.62-0.81,0.74-1.2l-0.75-0.31l-0.03-0.17c0.4-0.05,0.74-0.09,1-0.13c0.23-0.04,0.59-0.1,0.91-0.18l0.03,0.18
						c-0.18,0.15-0.42,0.42-0.66,0.77c-0.25,0.34-0.47,0.72-0.78,1.02c0.34,0.01,0.6,0.19,0.99,0.66c0.37,0.46,0.59,0.73,0.79,0.93
						l0.42,0.2L36.37,108.77z"/>
					<path class="st2" d="M38.9,108.45c-1.05,0.17-1.97-0.4-2.17-1.67c-0.25-1.52,0.58-2.36,1.61-2.53c1.01-0.16,1.65,0.34,1.79,1.2
						c0.02,0.15,0.03,0.3,0.03,0.47l-2.49,0.4c0.23,1.08,0.96,1.46,1.66,1.34c0.37-0.06,0.63-0.18,0.94-0.36l0.13,0.13
						C40.16,107.77,39.71,108.32,38.9,108.45z M37.63,106.04l1.47-0.3c-0.01-0.11-0.01-0.2-0.03-0.3c-0.09-0.54-0.38-0.96-0.82-0.89
						C37.79,104.62,37.54,105.19,37.63,106.04z"/>
					<path class="st2" d="M42.86,107.81c-0.35,0.06-0.84-0.01-0.96-0.79l-0.44-2.73l-0.54,0.09l-0.04-0.26l0.54-0.31l0.56-1.23
						l0.21-0.03l0.19,1.19l0.96-0.16l0.07,0.42l-0.96,0.16l0.36,2.23c0.09,0.55,0.42,0.63,0.67,0.59c0.17-0.03,0.29-0.11,0.42-0.2
						l0.14,0.17C43.83,107.23,43.39,107.73,42.86,107.81z"/>
					<path class="st2" d="M46.09,107.29c-0.35,0.06-0.84-0.01-0.96-0.79l-0.44-2.73l-0.54,0.09l-0.04-0.26l0.54-0.31l0.56-1.23
						l0.21-0.03l0.19,1.19l0.96-0.16l0.07,0.42l-0.96,0.16l0.36,2.23c0.09,0.55,0.42,0.63,0.67,0.59c0.17-0.03,0.29-0.11,0.42-0.2
						l0.14,0.17C47.05,106.71,46.61,107.21,46.09,107.29z"/>
					<path class="st2" d="M50.1,106.55c-0.36,0.04-0.74,0.09-1.11,0.15c-0.34,0.05-0.67,0.12-0.99,0.19l-0.03-0.16l0.51-0.39
						l-0.83-5.14l-0.7-0.39l-0.03-0.18l0.97-0.25c0.29-0.07,0.46-0.11,0.49-0.12c0.1-0.02,0.13,0.02,0.15,0.1l0.94,5.82l0.6,0.21
						L50.1,106.55z"/>
					<path class="st2" d="M52.89,106.19c-1.05,0.17-1.97-0.4-2.17-1.67c-0.25-1.52,0.58-2.36,1.61-2.53
						c1.01-0.16,1.65,0.34,1.79,1.2c0.02,0.15,0.03,0.3,0.03,0.47l-2.49,0.4c0.23,1.08,0.96,1.46,1.66,1.34
						c0.37-0.06,0.63-0.18,0.94-0.36l0.13,0.13C54.15,105.51,53.71,106.06,52.89,106.19z M51.63,103.78l1.47-0.3
						c-0.01-0.11-0.01-0.2-0.03-0.3c-0.09-0.54-0.38-0.96-0.82-0.89C51.78,102.36,51.53,102.93,51.63,103.78z"/>
					<path class="st2" d="M55.78,105.51l-0.24-1.27l0.22-0.04l0.83,0.91c0.21,0.11,0.38,0.11,0.59,0.08
						c0.37-0.06,0.57-0.33,0.52-0.63c-0.07-0.46-0.5-0.6-1.1-0.77c-0.68-0.19-1.21-0.35-1.33-1.08c-0.11-0.71,0.47-1.28,1.34-1.42
						c0.47-0.08,0.95-0.02,1.22,0.05l0.17,1.04l-0.18,0.03l-0.85-0.79c-0.12-0.05-0.23-0.07-0.42-0.04
						c-0.29,0.05-0.54,0.25-0.48,0.59c0.06,0.35,0.47,0.56,1.07,0.72c0.65,0.19,1.24,0.41,1.35,1.12c0.11,0.71-0.42,1.33-1.32,1.48
						C56.66,105.58,56.2,105.57,55.78,105.51z"/>
				</g>
			</g>
			<g>
				<path class="st2" d="M33.81,111.8c-0.01-0.06-0.05-0.22-0.07-0.34c0.17-0.04,0.23,0,0.26,0.17c0.03,0.19,0,0.5-0.1,0.76
					c-0.08,0.23-0.21,0.42-0.37,0.44c-0.11,0.02-0.22-0.13-0.27-0.44c-0.07,0.31-0.2,0.52-0.35,0.54c-0.19,0.03-0.36-0.17-0.39-0.36
					c-0.03-0.17,0.05-0.37,0.14-0.58c-0.07-0.06-0.13-0.1-0.2-0.09c-0.08,0.01-0.15,0.11-0.19,0.32l-0.12-0.02
					c0.04-0.29,0.14-0.53,0.28-0.55c0.09-0.01,0.19,0.05,0.28,0.15c0.02-0.09,0.03-0.16,0.04-0.2l0.13,0.02
					c-0.11,0.39-0.17,0.64-0.15,0.82c0.03,0.16,0.12,0.29,0.21,0.28c0.12-0.02,0.22-0.22,0.28-0.49c-0.05-0.2-0.08-0.45-0.08-0.65
					l0.27-0.04c-0.01,0.3-0.07,0.49-0.12,0.7c0.11,0.25,0.2,0.39,0.29,0.38C33.72,112.58,33.87,112.19,33.81,111.8z"/>
				<path class="st2" d="M34.63,112.36c0.01,0.03,0.02,0.06,0.05,0.05c0.04-0.01,0.1-0.04,0.18-0.12l0.08,0.09
					c-0.11,0.11-0.23,0.24-0.36,0.26c-0.1,0.02-0.17-0.03-0.19-0.15c-0.03-0.16,0.1-0.71,0.07-0.88c-0.01-0.04-0.02-0.06-0.05-0.06
					c-0.04,0.01-0.1,0.04-0.17,0.11l-0.09-0.09c0.11-0.12,0.23-0.24,0.36-0.26c0.09-0.02,0.17,0.03,0.19,0.16
					C34.73,111.65,34.6,112.17,34.63,112.36z M34.43,110.95c-0.02-0.12,0.05-0.18,0.16-0.2c0.08-0.01,0.14,0.02,0.15,0.11
					c0.02,0.12-0.04,0.19-0.16,0.21C34.51,111.08,34.45,111.04,34.43,110.95z"/>
				<path class="st2" d="M35.26,111.38l-0.19,0.03l0.01-0.16l0.2-0.03c0.06-0.08,0.11-0.22,0.14-0.39l0.12,0.01
					c-0.01,0.11-0.03,0.22-0.04,0.35l0.38-0.06l-0.01,0.16l-0.39,0.06c-0.04,0.39-0.08,0.78-0.06,0.87
					c0.01,0.04,0.02,0.07,0.07,0.06c0.07-0.01,0.18-0.08,0.3-0.22l0.09,0.09c-0.15,0.18-0.32,0.35-0.5,0.37
					c-0.11,0.02-0.18-0.03-0.2-0.16C35.16,112.2,35.21,111.82,35.26,111.38z"/>
				<path class="st2" d="M36.17,110.77c-0.04,0.01-0.1,0.05-0.17,0.12l-0.08-0.09c0.11-0.11,0.23-0.24,0.36-0.26
					c0.09-0.01,0.16,0.03,0.18,0.16c0.02,0.11-0.03,0.52-0.06,0.8l0.04,0.01c0.13-0.39,0.31-0.55,0.5-0.58
					c0.16-0.03,0.23,0.05,0.25,0.16c0.03,0.2-0.12,0.68-0.09,0.87c0.01,0.04,0.02,0.07,0.06,0.06c0.04-0.01,0.1-0.05,0.17-0.12
					l0.08,0.09c-0.11,0.12-0.23,0.24-0.36,0.26c-0.1,0.02-0.17-0.03-0.19-0.16c-0.03-0.21,0.11-0.66,0.08-0.87
					c-0.01-0.06-0.05-0.09-0.12-0.07c-0.15,0.02-0.4,0.21-0.49,1.2l-0.25,0.04c0.05-0.39,0.17-1.35,0.14-1.55
					C36.21,110.79,36.2,110.77,36.17,110.77z"/>
				<path class="st2" d="M38.22,110.44c-0.04,0.01-0.1,0.05-0.17,0.12l-0.09-0.09c0.11-0.11,0.24-0.24,0.37-0.26
					c0.09-0.01,0.16,0.03,0.18,0.16c0.04,0.24-0.14,1.15-0.1,1.38c0.01,0.04,0.02,0.07,0.06,0.06c0.04-0.01,0.1-0.05,0.17-0.12
					l0.08,0.09c-0.11,0.12-0.23,0.24-0.36,0.26c-0.1,0.02-0.17-0.03-0.19-0.16c-0.04-0.23,0.15-1.15,0.11-1.38
					C38.27,110.46,38.25,110.44,38.22,110.44z"/>
				<path class="st2" d="M38.85,111.5c-0.08-0.49,0.17-0.91,0.59-0.98c0.23-0.04,0.45,0.06,0.51,0.37c0.08,0.48-0.17,0.92-0.59,0.99
					C39.13,111.91,38.9,111.82,38.85,111.5z M39.08,111.46c0.03,0.2,0.15,0.29,0.31,0.27c0.22-0.03,0.38-0.36,0.31-0.78
					c-0.03-0.2-0.15-0.29-0.31-0.27C39.18,110.71,39.02,111.08,39.08,111.46z"/>
				<path class="st2" d="M40.59,110.7c-0.07-0.06-0.13-0.1-0.2-0.09c-0.08,0.01-0.15,0.11-0.19,0.32l-0.12-0.02
					c0.04-0.29,0.14-0.53,0.28-0.55c0.09-0.01,0.19,0.05,0.28,0.15c0.02-0.09,0.03-0.16,0.04-0.2l0.13,0.02
					c-0.12,0.41-0.21,0.65-0.18,0.83c0.03,0.16,0.18,0.28,0.3,0.26c0.18-0.03,0.34-0.42,0.28-0.81c-0.01-0.06-0.04-0.22-0.07-0.34
					c0.17-0.04,0.23,0,0.26,0.17c0.06,0.36-0.13,1.15-0.55,1.21c-0.2,0.03-0.4-0.17-0.43-0.35
					C40.38,111.11,40.48,110.91,40.59,110.7z"/>
				<path class="st2" d="M41.88,110.77c0,0.05,0,0.11,0.01,0.16c0.04,0.23,0.17,0.31,0.31,0.29c0.14-0.02,0.27-0.15,0.36-0.35
					l0.1,0.05c-0.09,0.27-0.29,0.47-0.54,0.51c-0.21,0.03-0.41-0.1-0.46-0.37c-0.08-0.48,0.16-0.92,0.62-1
					c0.22-0.04,0.36,0.06,0.38,0.19C42.7,110.42,42.44,110.61,41.88,110.77z M41.89,110.73c0.38-0.17,0.58-0.31,0.57-0.41
					c-0.01-0.08-0.09-0.12-0.23-0.1C42.04,110.25,41.91,110.47,41.89,110.73z"/>
				<path class="st2" d="M42.77,111.58c0.14-0.14,0.25-0.28,0.24-0.37c-0.01-0.06-0.03-0.09-0.1-0.16c0.02-0.04,0.07-0.11,0.17-0.12
					c0.1-0.02,0.16,0.03,0.18,0.13c0.03,0.18-0.2,0.41-0.42,0.61L42.77,111.58z"/>
				<path class="st2" d="M44.46,110.73c0.01,0.06,0.05,0.09,0.11,0.08c0.16-0.03,0.4-0.2,0.49-1.17l0.25-0.04
					c-0.05,0.28-0.11,0.7-0.12,1.04c-0.02,0.56-0.2,0.77-0.73,0.86c-0.21,0.03-0.38-0.01-0.36-0.2c0.15,0.01,0.31,0.02,0.55-0.02
					c0.25-0.04,0.3-0.16,0.31-0.38c0.01-0.09,0.01-0.18,0.02-0.27c0-0.06,0.01-0.12,0.01-0.17l-0.04,0
					c-0.13,0.38-0.3,0.54-0.49,0.57c-0.16,0.03-0.23-0.05-0.25-0.16c-0.03-0.2,0.12-0.66,0.09-0.84c-0.01-0.04-0.02-0.07-0.06-0.06
					c-0.04,0.01-0.1,0.04-0.17,0.11l-0.08-0.09c0.11-0.12,0.23-0.24,0.36-0.26c0.1-0.02,0.17,0.04,0.19,0.16
					C44.57,110.09,44.43,110.53,44.46,110.73z"/>
				<path class="st2" d="M45.56,110.42c-0.08-0.49,0.17-0.91,0.59-0.98c0.23-0.04,0.45,0.06,0.51,0.37
					c0.08,0.48-0.17,0.92-0.59,0.99C45.84,110.83,45.61,110.74,45.56,110.42z M45.79,110.37c0.03,0.2,0.15,0.29,0.31,0.27
					c0.22-0.03,0.38-0.36,0.31-0.78c-0.03-0.2-0.15-0.29-0.31-0.27C45.89,109.63,45.73,109.99,45.79,110.37z"/>
				<path class="st2" d="M47.79,110.03l-0.04,0c-0.13,0.38-0.3,0.54-0.49,0.57c-0.16,0.03-0.23-0.05-0.25-0.16
					c-0.03-0.2,0.12-0.69,0.09-0.87c-0.01-0.04-0.02-0.07-0.06-0.06c-0.04,0.01-0.1,0.05-0.18,0.12l-0.08-0.09
					c0.11-0.12,0.24-0.24,0.36-0.26c0.1-0.02,0.17,0.03,0.19,0.16c0.03,0.21-0.11,0.69-0.08,0.87c0.01,0.06,0.05,0.09,0.12,0.07
					c0.16-0.03,0.4-0.21,0.49-1.19l0.25-0.04c-0.04,0.27-0.14,0.9-0.12,1.04c0.01,0.04,0.02,0.07,0.06,0.06
					c0.04-0.01,0.1-0.05,0.18-0.12l0.08,0.09c-0.11,0.11-0.23,0.24-0.36,0.26c-0.08,0.01-0.14-0.04-0.17-0.16
					C47.77,110.27,47.78,110.14,47.79,110.03z"/>
				<path class="st2" d="M48.52,110.37c0.04-0.27,0.14-0.9,0.12-1.05c-0.01-0.04-0.02-0.07-0.06-0.06c-0.04,0.01-0.1,0.05-0.17,0.12
					l-0.08-0.09c0.11-0.12,0.22-0.24,0.35-0.26c0.07-0.01,0.13,0.03,0.15,0.16c0.01,0.07,0,0.24-0.01,0.37l0.03,0.01
					c0.09-0.43,0.23-0.6,0.37-0.62c0.08-0.01,0.11,0.07,0.14,0.26c-0.34,0.07-0.51,0.2-0.6,1.12L48.52,110.37z"/>
				<path class="st2" d="M51.02,109.04c-0.11-0.12-0.23-0.21-0.38-0.18c-0.25,0.04-0.39,0.42-0.34,0.72c0.03,0.2,0.16,0.3,0.3,0.28
					c0.16-0.03,0.28-0.15,0.37-0.35l0.1,0.05c-0.1,0.27-0.28,0.47-0.55,0.52c-0.2,0.03-0.4-0.11-0.45-0.38
					c-0.07-0.41,0.14-0.92,0.61-1c0.25-0.04,0.38,0.05,0.39,0.16c0.01,0.06-0.01,0.14-0.03,0.17L51.02,109.04z"/>
				<path class="st2" d="M51.41,108.31c-0.04,0.01-0.1,0.05-0.17,0.12l-0.08-0.09c0.11-0.11,0.23-0.24,0.36-0.26
					c0.09-0.01,0.16,0.03,0.18,0.16c0.02,0.11-0.03,0.52-0.06,0.8l0.04,0.01c0.13-0.39,0.31-0.55,0.5-0.58
					c0.16-0.03,0.23,0.05,0.25,0.16c0.03,0.2-0.12,0.68-0.09,0.87c0.01,0.04,0.02,0.07,0.06,0.06c0.04-0.01,0.1-0.05,0.17-0.12
					l0.08,0.09c-0.11,0.12-0.23,0.24-0.36,0.26c-0.1,0.02-0.17-0.03-0.19-0.16c-0.03-0.21,0.11-0.66,0.08-0.87
					c-0.01-0.06-0.05-0.09-0.12-0.07c-0.15,0.02-0.4,0.21-0.49,1.2l-0.25,0.04c0.05-0.39,0.17-1.35,0.14-1.55
					C51.46,108.33,51.44,108.31,51.41,108.31z"/>
				<path class="st2" d="M53.81,109.32c0.04-0.01,0.1-0.05,0.17-0.12l0.09,0.09c-0.11,0.12-0.23,0.24-0.36,0.26
					c-0.08,0.01-0.14-0.04-0.16-0.15c-0.01-0.07,0-0.21,0-0.33l-0.03,0c-0.11,0.4-0.33,0.57-0.48,0.6
					c-0.12,0.02-0.23-0.07-0.27-0.26c-0.08-0.48,0.27-1.13,1.08-1.2c-0.05,0.38-0.12,0.89-0.09,1.05
					C53.76,109.3,53.78,109.33,53.81,109.32z M53.6,108.38c-0.46,0.13-0.66,0.54-0.6,0.92c0.02,0.12,0.07,0.16,0.15,0.14
					C53.27,109.43,53.49,109.29,53.6,108.38z"/>
				<path class="st2" d="M54.56,109.14c0.01,0.03,0.02,0.06,0.05,0.05c0.04-0.01,0.11-0.04,0.18-0.12l0.08,0.09
					c-0.11,0.11-0.23,0.24-0.36,0.26c-0.1,0.02-0.17-0.03-0.19-0.15c-0.03-0.16,0.1-0.71,0.07-0.88c-0.01-0.04-0.02-0.06-0.05-0.06
					c-0.04,0.01-0.1,0.04-0.17,0.11l-0.09-0.09c0.11-0.12,0.23-0.24,0.36-0.26c0.09-0.02,0.17,0.03,0.19,0.16
					C54.65,108.44,54.53,108.95,54.56,109.14z M54.36,107.73c-0.02-0.12,0.05-0.18,0.16-0.2c0.08-0.01,0.14,0.02,0.15,0.11
					c0.02,0.12-0.04,0.19-0.16,0.21C54.43,107.86,54.37,107.82,54.36,107.73z"/>
				<path class="st2" d="M56.56,108.12c-0.01-0.06-0.05-0.22-0.07-0.34c0.17-0.04,0.23,0,0.26,0.17c0.03,0.19,0,0.5-0.1,0.76
					c-0.08,0.23-0.21,0.42-0.37,0.44c-0.11,0.02-0.22-0.13-0.27-0.44c-0.07,0.31-0.2,0.52-0.35,0.54c-0.19,0.03-0.36-0.17-0.39-0.36
					c-0.03-0.17,0.05-0.37,0.14-0.58c-0.07-0.06-0.13-0.1-0.2-0.09c-0.08,0.01-0.15,0.11-0.19,0.32l-0.12-0.02
					c0.04-0.29,0.14-0.53,0.28-0.55c0.09-0.01,0.19,0.05,0.28,0.15c0.02-0.09,0.03-0.16,0.04-0.2l0.13,0.02
					c-0.11,0.39-0.17,0.64-0.15,0.82c0.03,0.16,0.12,0.29,0.21,0.28c0.12-0.02,0.22-0.22,0.28-0.49c-0.05-0.2-0.08-0.45-0.08-0.65
					l0.27-0.04c-0.01,0.3-0.07,0.49-0.12,0.7c0.11,0.25,0.2,0.39,0.29,0.38C56.47,108.91,56.62,108.52,56.56,108.12z"/>
				<path class="st2" d="M58.02,108.64c0.04-0.01,0.1-0.05,0.17-0.12l0.09,0.09c-0.11,0.12-0.23,0.24-0.36,0.26
					c-0.08,0.01-0.14-0.04-0.16-0.15c-0.01-0.07,0-0.21,0-0.33l-0.03,0c-0.11,0.4-0.33,0.57-0.48,0.6
					c-0.12,0.02-0.23-0.07-0.27-0.26c-0.08-0.48,0.27-1.13,1.08-1.2c-0.05,0.38-0.12,0.89-0.09,1.05
					C57.97,108.62,57.99,108.65,58.02,108.64z M57.81,107.7c-0.46,0.13-0.66,0.54-0.6,0.92c0.02,0.12,0.07,0.16,0.15,0.14
					C57.48,108.75,57.7,108.61,57.81,107.7z"/>
				<path class="st2" d="M58.54,107.16c-0.04,0.01-0.1,0.05-0.17,0.12l-0.09-0.09c0.11-0.11,0.24-0.24,0.37-0.26
					c0.09-0.01,0.16,0.03,0.18,0.16c0.04,0.24-0.14,1.15-0.1,1.38c0.01,0.04,0.02,0.07,0.06,0.06c0.04-0.01,0.1-0.05,0.17-0.12
					l0.08,0.09c-0.11,0.12-0.23,0.24-0.36,0.26c-0.1,0.02-0.17-0.03-0.19-0.16c-0.04-0.23,0.15-1.15,0.11-1.38
					C58.58,107.18,58.57,107.15,58.54,107.16z"/>
				<path class="st2" d="M60.18,108.29c0.04-0.01,0.1-0.05,0.17-0.12l0.09,0.09c-0.11,0.12-0.23,0.24-0.36,0.26
					c-0.08,0.01-0.14-0.04-0.16-0.15c-0.01-0.07,0-0.21,0-0.33l-0.03,0c-0.11,0.4-0.33,0.57-0.48,0.6
					c-0.12,0.02-0.23-0.07-0.27-0.26c-0.08-0.48,0.27-1.13,1.08-1.2c-0.05,0.38-0.12,0.89-0.09,1.05
					C60.13,108.27,60.15,108.3,60.18,108.29z M59.97,107.35c-0.46,0.13-0.66,0.54-0.6,0.92c0.02,0.12,0.07,0.16,0.15,0.14
					C59.64,108.4,59.86,108.26,59.97,107.35z"/>
			</g>
		</g>
	</g>
	<g>
		<g>
			<g>
				<path class="st2" d="M117.55,149.77l-47.22-4.23c-1.82-0.16-3.17-1.78-3.01-3.6l5.2-58.11l1.64,0.15
					c0.17-0.12,0.61-0.46,0.64-0.9c0.02-0.29-0.15-0.59-0.5-0.9l-1.61-0.13l0.49-5.52c0.08-0.89,0.5-1.7,1.19-2.26
					c0.69-0.57,1.57-0.83,2.45-0.74l47.22,4.22c1.8,0.19,3.13,1.8,2.97,3.6l-0.49,5.44l-1.95-0.17c-0.16,0.09-0.58,0.38-0.64,0.79
					c-0.04,0.31,0.12,0.65,0.49,1.01l1.94,0.17l-5.2,58.17C120.98,148.58,119.37,149.93,117.55,149.77z"/>
				<path class="st0" d="M72.99,84.4l-5.15,57.59c-0.14,1.54,1,2.9,2.54,3.03l47.22,4.23c1.54,0.14,2.9-1,3.03-2.54l5.16-57.65
					l-1.6-0.14l-0.07-0.06c-0.55-0.51-0.78-1.03-0.71-1.53c0.12-0.78,0.94-1.2,0.98-1.21l0.07-0.03l1.59,0.14l0.44-4.92
					c0.14-1.52-0.99-2.88-2.5-3.03l-47.22-4.22c-0.74-0.07-1.49,0.14-2.07,0.62c-0.58,0.48-0.94,1.16-1.01,1.91l-0.45,5l1.25,0.1
					l0.06,0.05c0.54,0.44,0.79,0.9,0.76,1.39c-0.06,0.81-0.93,1.33-0.96,1.35l-0.07,0.04L72.99,84.4z"/>
			</g>
			<g>
				<path class="st2" d="M117.69,146.68l-47.63-4.26l4.71-52.64l47.63,4.26L117.69,146.68z M70.62,141.94l46.6,4.17l4.62-51.6
					l-46.6-4.17L70.62,141.94z"/>
			</g>
			<g>
				
					<rect x="98.96" y="61.05" transform="matrix(0.0891 -0.996 0.996 0.0891 6.0133 175.9851)" class="st2" width="0.52" height="47.3"/>
			</g>
			<g>
				
					<rect x="98.85" y="62.29" transform="matrix(0.0891 -0.996 0.996 0.0891 4.6785 177.0031)" class="st2" width="0.52" height="47.3"/>
			</g>
		</g>
		<g>
			<path class="st2" d="M105.56,108.75c-0.05,0.41,0.03,0.83,0.27,1.18c0.03,0.05,0.07,0.09,0.1,0.14c0.15,0.21,0.36,0.39,0.62,0.55
				c0.39,0.24,0.9,0.39,1.52,0.45c0,0,0.01,0,0.01,0c0,0,0.01,0,0.01,0c0.62,0.06,1.15,0,1.57-0.17c0.29-0.11,0.52-0.26,0.71-0.43
				c0.04-0.04,0.09-0.08,0.13-0.12c0.26-0.27,0.42-0.6,0.46-0.98c0.03-0.03,0.06-0.06,0.09-0.09c0,0,0.39-0.25,0.5-0.82
				c0.04-0.24,0.15-0.45,0.33-0.65c0.22-0.2,0.42-0.26,0.65-0.09l0.15-0.24c-0.1-0.1-0.2-0.17-0.3-0.22
				c-0.21-0.1-0.42-0.14-0.65-0.1c-0.22,0.04-0.41,0.14-0.58,0.31c-0.1,0.11-0.19,0.22-0.25,0.35c-0.04,0.09-0.09,0.2-0.14,0.33
				c-0.01,0.02-0.02,0.05-0.03,0.08c-0.07-0.1-0.15-0.2-0.24-0.29c-0.36-0.36-0.87-0.61-1.51-0.76l-0.27-0.06
				c0,0-0.25-0.05-0.25-0.05l-0.24-0.05c-0.33-0.08-0.57-0.22-0.73-0.42c-0.2-0.26-0.28-0.64-0.23-1.14
				c0.03-0.31,0.12-0.56,0.27-0.77c0.15-0.21,0.34-0.36,0.58-0.45c0.23-0.09,0.48-0.13,0.74-0.1c0.27,0.02,0.49,0.09,0.67,0.19
				c0.18,0.1,0.32,0.22,0.4,0.35c0.08,0.14,0.12,0.27,0.11,0.4c-0.02,0.21-0.09,0.36-0.23,0.44c-0.13,0.07-0.27,0.11-0.43,0.09
				c-0.06-0.01-0.1-0.01-0.11-0.02c-0.01,0.08,0.01,0.19,0.04,0.3c0.03,0.12,0.1,0.23,0.19,0.32c0.09,0.1,0.22,0.15,0.37,0.17
				c0.24,0.02,0.44-0.04,0.61-0.19c0.17-0.15,0.27-0.36,0.29-0.63c0.02-0.18-0.04-0.38-0.15-0.61c-0.11-0.23-0.31-0.43-0.6-0.61
				c-0.28-0.18-0.66-0.29-1.13-0.33c-0.68-0.06-1.27,0.02-1.78,0.24c-0.51,0.22-0.79,0.6-0.83,1.14c-0.04,0.45,0.09,0.81,0.38,1.1
				c0.3,0.28,0.71,0.49,1.25,0.62c-0.66,0.03-1.2,0.18-1.62,0.48C105.84,107.85,105.64,108.27,105.56,108.75z M107.21,107.57
				c0.3-0.26,0.71-0.38,1.21-0.34c0.5,0.05,0.88,0.24,1.13,0.55c0.26,0.32,0.36,0.8,0.3,1.44c-0.1,1.16-0.69,1.71-1.76,1.65
				c-1.06-0.13-1.54-0.77-1.44-1.94C106.71,108.3,106.9,107.84,107.21,107.57z"/>
			<g>
				<path class="st2" d="M87.34,107.24c-0.35-0.06-0.72-0.1-1.08-0.13c-0.35-0.03-0.69-0.05-1.03-0.06l0.01-0.16l0.59-0.27
					l0.17-1.89c0.06-0.68-0.21-1.1-0.7-1.14c-0.31-0.03-0.53-0.02-0.88,0.11l-0.25,2.79l0.54,0.35l-0.01,0.16
					c-0.36-0.06-0.73-0.11-1.09-0.14c-0.35-0.03-0.69-0.04-1.03-0.05l0.01-0.16l0.59-0.25l0.46-5.2l-0.59-0.55l0.03-0.18l1,0
					c0.3,0,0.46,0.01,0.5,0.01c0.1,0.01,0.12,0.05,0.11,0.14l-0.26,2.91c0.53-0.37,0.99-0.63,1.48-0.58
					c0.86,0.08,1.18,0.66,1.11,1.52l-0.2,2.23l0.53,0.37L87.34,107.24z"/>
				<path class="st2" d="M89.8,107.56c-1.06-0.1-1.81-0.87-1.69-2.16c0.14-1.53,1.15-2.15,2.19-2.05c1.02,0.09,1.51,0.73,1.44,1.61
					c-0.01,0.15-0.04,0.3-0.09,0.46l-2.51-0.22c-0.04,1.1,0.57,1.65,1.28,1.71c0.38,0.03,0.65-0.01,1-0.12l0.09,0.16
					C91.19,107.21,90.62,107.63,89.8,107.56z M89.17,104.9l1.5,0.07c0.02-0.11,0.04-0.2,0.04-0.3c0.05-0.55-0.13-1.03-0.58-1.07
					C89.67,103.57,89.29,104.06,89.17,104.9z"/>
				<path class="st2" d="M94.61,107.89c-0.35-0.06-0.77-0.11-1.24-0.15c-0.42-0.04-0.85-0.07-1.17-0.07l0.01-0.16l0.6-0.26
					l0.26-2.86l-0.58-0.51l0.01-0.16l0.85-0.01c0.18-0.01,0.49-0.01,0.54-0.01c0.08,0.01,0.11,0.06,0.12,0.15l0.03,0.55
					c0.38-0.3,0.77-0.64,1.13-0.61c0.29,0.03,0.49,0.25,0.46,0.61c-0.05,0.57-0.64,0.68-0.88,0.66c0.05-0.08,0.08-0.15,0.08-0.22
					c0.02-0.21-0.12-0.36-0.35-0.38c-0.14-0.01-0.28,0.04-0.44,0.12l-0.24,2.67l0.81,0.49L94.61,107.89z"/>
				<path class="st2" d="M97.9,108.28c-0.57-0.05-1.26-0.31-1.55-0.5l0.48-5.38l-0.59-0.55l0.03-0.18l1,0c0.3,0,0.46,0.01,0.51,0.01
					c0.09,0.01,0.11,0.05,0.11,0.14l-0.26,2.85c0.45-0.3,0.87-0.58,1.41-0.54c1.08,0.1,1.46,1.02,1.37,2.03
					C100.29,107.4,99.46,108.42,97.9,108.28z M98.32,107.97c0.51,0.05,0.93-0.54,1.02-1.54c0.09-0.98-0.17-1.62-0.95-1.69
					c-0.31-0.03-0.51,0.01-0.78,0.12l-0.22,2.48C97.57,107.67,97.91,107.94,98.32,107.97z"/>
				<path class="st2" d="M101.15,108.36l0.08-1.29l0.23,0.02l0.58,1.09c0.18,0.16,0.34,0.2,0.55,0.22c0.37,0.03,0.63-0.18,0.66-0.49
					c0.04-0.46-0.34-0.7-0.88-1.02c-0.61-0.35-1.09-0.64-1.02-1.37c0.06-0.71,0.77-1.12,1.65-1.04c0.48,0.04,0.93,0.21,1.17,0.35
					l-0.09,1.05l-0.18-0.02l-0.63-0.97c-0.1-0.08-0.21-0.13-0.4-0.14c-0.29-0.03-0.58,0.11-0.61,0.45
					c-0.03,0.35,0.32,0.66,0.86,0.97c0.59,0.34,1.1,0.71,1.03,1.42c-0.06,0.71-0.73,1.19-1.64,1.11
					C101.99,108.65,101.54,108.52,101.15,108.36z"/>
			</g>
			<g>
				<g>
					<path class="st2" d="M84.1,114.59c-0.39-0.05-0.74-0.09-1.17-0.13c-0.35-0.03-0.77-0.06-1.09-0.07l0.01-0.16l0.65-0.25
						l0.46-5.19l-0.59-0.55l0.03-0.18l1,0c0.31,0,0.47,0.01,0.52,0.01c0.09,0.01,0.11,0.05,0.11,0.14l-0.52,5.85l0.62,0.37
						L84.1,114.59z M86.48,114.8l-1.35-0.12c-0.06-0.23-0.33-0.83-0.51-1.23c-0.26-0.54-0.43-0.83-0.83-0.95l0.02-0.19l0.54-0.05
						c0.33-0.19,0.8-0.63,1.01-0.98l-0.65-0.48l0.02-0.17c0.39,0.05,0.74,0.09,1.01,0.12c0.23,0.02,0.6,0.04,0.93,0.06l-0.02,0.18
						c-0.21,0.1-0.51,0.3-0.83,0.58c-0.32,0.27-0.63,0.58-1.01,0.8c0.33,0.09,0.53,0.33,0.79,0.89c0.24,0.54,0.4,0.85,0.54,1.1
						l0.35,0.3L86.48,114.8z"/>
					<path class="st2" d="M89.01,115.12c-1.06-0.1-1.81-0.87-1.69-2.16c0.14-1.53,1.15-2.15,2.19-2.05
						c1.02,0.09,1.51,0.73,1.44,1.61c-0.01,0.15-0.04,0.3-0.09,0.46l-2.51-0.22c-0.04,1.1,0.57,1.65,1.28,1.71
						c0.38,0.03,0.65-0.01,1-0.12l0.09,0.16C90.39,114.77,89.83,115.19,89.01,115.12z M88.37,112.47l1.5,0.07
						c0.02-0.11,0.04-0.2,0.04-0.3c0.05-0.55-0.13-1.03-0.58-1.07C88.87,111.13,88.49,111.63,88.37,112.47z"/>
					<path class="st2" d="M93,115.48c-0.35-0.03-0.81-0.22-0.74-1l0.25-2.76l-0.54-0.05l0.02-0.26l0.6-0.16l0.85-1.05l0.21,0.02
						l-0.11,1.2l0.97,0.09l-0.04,0.42l-0.97-0.09l-0.2,2.25c-0.05,0.56,0.25,0.71,0.51,0.74c0.17,0.02,0.31-0.04,0.45-0.09l0.09,0.2
						C94.09,115.16,93.54,115.53,93,115.48z"/>
					<path class="st2" d="M96.25,115.77c-0.35-0.03-0.81-0.22-0.74-1l0.25-2.76l-0.54-0.05l0.02-0.26l0.6-0.16l0.85-1.05l0.21,0.02
						l-0.11,1.2l0.97,0.09l-0.04,0.42l-0.97-0.09l-0.2,2.25c-0.05,0.56,0.25,0.71,0.51,0.74c0.17,0.02,0.31-0.04,0.45-0.09l0.09,0.2
						C97.34,115.45,96.79,115.82,96.25,115.77z"/>
					<path class="st2" d="M100.32,116.04c-0.36-0.05-0.74-0.09-1.11-0.13c-0.34-0.03-0.68-0.05-1-0.06l0.01-0.16l0.59-0.26
						l0.46-5.19l-0.59-0.55l0.02-0.18l1,0c0.3,0,0.47,0.01,0.51,0.01c0.1,0.01,0.12,0.05,0.11,0.14l-0.53,5.87l0.53,0.35
						L100.32,116.04z"/>
					<path class="st2" d="M103.12,116.38c-1.06-0.1-1.81-0.87-1.69-2.16c0.14-1.53,1.15-2.15,2.19-2.05
						c1.02,0.09,1.51,0.73,1.44,1.61c-0.01,0.15-0.04,0.3-0.09,0.46l-2.51-0.22c-0.04,1.1,0.57,1.65,1.28,1.71
						c0.38,0.03,0.65-0.01,1-0.12l0.09,0.16C104.51,116.04,103.94,116.46,103.12,116.38z M102.49,113.73l1.5,0.07
						c0.02-0.11,0.04-0.2,0.04-0.3c0.05-0.55-0.13-1.03-0.58-1.07C102.99,112.4,102.61,112.89,102.49,113.73z"/>
					<path class="st2" d="M106.09,116.44l0.08-1.29l0.23,0.02l0.58,1.09c0.18,0.16,0.34,0.2,0.55,0.22
						c0.37,0.03,0.63-0.18,0.66-0.49c0.04-0.46-0.34-0.7-0.88-1.02c-0.61-0.35-1.09-0.64-1.02-1.37c0.06-0.71,0.77-1.12,1.65-1.04
						c0.48,0.04,0.93,0.21,1.17,0.35l-0.09,1.05l-0.18-0.02l-0.63-0.97c-0.1-0.08-0.21-0.13-0.4-0.14
						c-0.29-0.03-0.58,0.11-0.61,0.45c-0.03,0.35,0.32,0.66,0.86,0.97c0.59,0.34,1.1,0.71,1.03,1.42c-0.06,0.71-0.73,1.19-1.64,1.11
						C106.92,116.72,106.48,116.6,106.09,116.44z"/>
				</g>
			</g>
			<g>
				<path class="st2" d="M83.24,117.11c0.01-0.06,0.01-0.22,0.02-0.35c0.17,0,0.22,0.05,0.21,0.22c-0.02,0.19-0.13,0.48-0.29,0.71
					c-0.14,0.2-0.31,0.35-0.47,0.34c-0.11-0.01-0.18-0.18-0.15-0.5c-0.15,0.28-0.32,0.45-0.47,0.44c-0.19-0.02-0.3-0.26-0.29-0.45
					c0.02-0.17,0.14-0.35,0.28-0.52c-0.05-0.08-0.1-0.13-0.17-0.13c-0.08-0.01-0.17,0.07-0.27,0.27l-0.11-0.05
					c0.11-0.27,0.26-0.48,0.4-0.46c0.09,0.01,0.17,0.1,0.23,0.21c0.04-0.09,0.07-0.15,0.09-0.18l0.12,0.05
					c-0.21,0.35-0.33,0.58-0.34,0.76c-0.01,0.17,0.05,0.31,0.14,0.32c0.12,0.01,0.27-0.16,0.4-0.4c0-0.2,0.04-0.46,0.08-0.65
					l0.27,0.02c-0.08,0.29-0.18,0.46-0.29,0.65c0.04,0.27,0.09,0.43,0.19,0.44C82.96,117.84,83.21,117.5,83.24,117.11z"/>
				<path class="st2" d="M83.91,117.85c0,0.03,0.01,0.06,0.04,0.06c0.04,0,0.11-0.02,0.2-0.07l0.06,0.11
					c-0.14,0.08-0.29,0.18-0.41,0.16c-0.1-0.01-0.16-0.07-0.15-0.2c0.01-0.17,0.27-0.67,0.29-0.84c0-0.04-0.01-0.06-0.04-0.07
					c-0.04,0-0.11,0.02-0.19,0.07l-0.06-0.11c0.14-0.09,0.28-0.17,0.41-0.16c0.09,0.01,0.15,0.07,0.14,0.2
					C84.17,117.19,83.92,117.66,83.91,117.85z M84.06,116.44c0.01-0.12,0.09-0.17,0.21-0.16c0.08,0.01,0.13,0.05,0.12,0.14
					c-0.01,0.12-0.09,0.17-0.21,0.16C84.1,116.58,84.05,116.53,84.06,116.44z"/>
				<path class="st2" d="M84.75,117.06l-0.19-0.02l0.05-0.15l0.2,0.02c0.08-0.07,0.16-0.18,0.24-0.34l0.12,0.04
					c-0.04,0.1-0.08,0.21-0.12,0.33l0.39,0.03l-0.05,0.15l-0.39-0.03c-0.14,0.37-0.27,0.73-0.28,0.83c0,0.04,0.01,0.07,0.05,0.08
					c0.07,0.01,0.19-0.04,0.35-0.14l0.06,0.11c-0.19,0.14-0.4,0.26-0.57,0.24c-0.11-0.01-0.17-0.08-0.15-0.2
					C84.45,117.83,84.6,117.47,84.75,117.06z"/>
				<path class="st2" d="M85.78,116.7c-0.04,0-0.11,0.02-0.2,0.07l-0.06-0.11c0.14-0.08,0.29-0.18,0.42-0.16
					c0.09,0.01,0.15,0.07,0.14,0.2c-0.01,0.11-0.15,0.49-0.25,0.76l0.04,0.02c0.22-0.35,0.44-0.45,0.62-0.44
					c0.16,0.01,0.22,0.1,0.21,0.21c-0.02,0.2-0.29,0.63-0.31,0.82c0,0.04,0.01,0.07,0.04,0.07c0.04,0,0.11-0.02,0.2-0.07l0.06,0.11
					c-0.14,0.09-0.29,0.18-0.42,0.17c-0.1-0.01-0.15-0.07-0.14-0.2c0.02-0.21,0.27-0.61,0.29-0.83c0.01-0.06-0.03-0.09-0.1-0.1
					c-0.15-0.01-0.44,0.11-0.77,1.04l-0.25-0.02c0.15-0.37,0.5-1.27,0.52-1.46C85.83,116.72,85.81,116.7,85.78,116.7z"/>
				<path class="st2" d="M87.86,116.88c-0.04,0-0.11,0.02-0.2,0.07l-0.06-0.11c0.14-0.08,0.29-0.18,0.42-0.16
					c0.09,0.01,0.15,0.07,0.14,0.2c-0.02,0.24-0.42,1.08-0.44,1.31c0,0.04,0.01,0.07,0.04,0.07c0.04,0,0.11-0.02,0.2-0.07l0.06,0.11
					c-0.14,0.09-0.29,0.18-0.42,0.17c-0.1-0.01-0.15-0.07-0.14-0.2c0.02-0.23,0.43-1.08,0.45-1.31
					C87.9,116.91,87.89,116.88,87.86,116.88z"/>
				<path class="st2" d="M88.2,118.07c0.04-0.49,0.39-0.84,0.81-0.81c0.23,0.02,0.43,0.17,0.4,0.48c-0.04,0.48-0.39,0.85-0.81,0.81
					C88.37,118.53,88.18,118.39,88.2,118.07z M88.44,118.08c-0.02,0.2,0.07,0.32,0.24,0.34c0.22,0.02,0.46-0.25,0.5-0.68
					c0.02-0.2-0.07-0.32-0.23-0.34C88.72,117.38,88.48,117.69,88.44,118.08z"/>
				<path class="st2" d="M90.09,117.72c-0.05-0.08-0.1-0.13-0.17-0.13c-0.08-0.01-0.17,0.07-0.27,0.27l-0.11-0.05
					c0.11-0.27,0.26-0.48,0.4-0.46c0.09,0.01,0.17,0.1,0.23,0.21c0.04-0.09,0.07-0.15,0.09-0.18l0.12,0.05
					c-0.21,0.36-0.37,0.57-0.38,0.75c-0.01,0.16,0.1,0.31,0.23,0.32c0.18,0.02,0.44-0.32,0.47-0.72c0.01-0.06,0.01-0.22,0.02-0.35
					c0.17,0,0.22,0.05,0.21,0.22c-0.03,0.36-0.41,1.08-0.84,1.04c-0.2-0.02-0.35-0.26-0.33-0.45
					C89.78,118.07,89.93,117.9,90.09,117.72z"/>
				<path class="st2" d="M91.32,118.1c-0.02,0.05-0.03,0.1-0.03,0.16c-0.02,0.23,0.09,0.34,0.23,0.35c0.14,0.01,0.3-0.08,0.43-0.25
					l0.09,0.07c-0.16,0.24-0.39,0.39-0.65,0.36c-0.21-0.02-0.38-0.2-0.35-0.48c0.04-0.48,0.38-0.85,0.85-0.81
					c0.22,0.02,0.33,0.14,0.32,0.28C92.2,117.97,91.9,118.08,91.32,118.1z M91.34,118.07c0.41-0.07,0.64-0.16,0.65-0.26
					c0.01-0.08-0.06-0.14-0.2-0.15C91.6,117.63,91.42,117.82,91.34,118.07z"/>
				<path class="st2" d="M91.99,119.11c0.17-0.1,0.31-0.21,0.32-0.3c0.01-0.06-0.01-0.1-0.06-0.18c0.03-0.03,0.1-0.09,0.2-0.08
					c0.1,0.01,0.15,0.07,0.14,0.17c-0.02,0.19-0.29,0.35-0.55,0.48L91.99,119.11z"/>
				<path class="st2" d="M93.83,118.7c-0.01,0.06,0.03,0.09,0.09,0.1c0.16,0.01,0.44-0.1,0.76-1.01l0.25,0.02
					c-0.11,0.26-0.28,0.65-0.38,0.98c-0.16,0.54-0.39,0.7-0.92,0.65c-0.22-0.02-0.37-0.11-0.3-0.28c0.14,0.05,0.29,0.1,0.54,0.12
					c0.25,0.02,0.33-0.08,0.4-0.29c0.03-0.09,0.06-0.17,0.08-0.25c0.02-0.06,0.03-0.11,0.05-0.16l-0.03-0.01
					c-0.22,0.34-0.43,0.45-0.62,0.43c-0.16-0.01-0.22-0.1-0.21-0.21c0.02-0.2,0.28-0.61,0.3-0.79c0-0.04-0.01-0.07-0.04-0.07
					c-0.04,0-0.11,0.01-0.19,0.06l-0.06-0.11c0.14-0.09,0.29-0.18,0.41-0.16c0.1,0.01,0.16,0.08,0.15,0.21
					C94.1,118.1,93.85,118.5,93.83,118.7z"/>
				<path class="st2" d="M94.97,118.67c0.04-0.49,0.39-0.84,0.81-0.81c0.23,0.02,0.43,0.17,0.4,0.48c-0.04,0.48-0.39,0.85-0.81,0.81
					C95.14,119.14,94.95,118.99,94.97,118.67z M95.21,118.68c-0.02,0.2,0.07,0.32,0.24,0.34c0.22,0.02,0.46-0.25,0.5-0.68
					c0.02-0.2-0.07-0.32-0.23-0.34C95.49,117.99,95.25,118.3,95.21,118.68z"/>
				<path class="st2" d="M97.23,118.85l-0.03-0.01c-0.22,0.34-0.43,0.45-0.62,0.43c-0.16-0.01-0.22-0.1-0.21-0.21
					c0.02-0.2,0.29-0.64,0.31-0.82c0-0.04-0.01-0.07-0.04-0.07c-0.04,0-0.11,0.02-0.2,0.07l-0.06-0.11
					c0.14-0.09,0.29-0.18,0.42-0.16c0.1,0.01,0.16,0.07,0.15,0.2c-0.02,0.21-0.28,0.64-0.3,0.83c-0.01,0.06,0.03,0.1,0.09,0.1
					c0.16,0.01,0.44-0.1,0.77-1.04l0.25,0.02c-0.11,0.25-0.36,0.84-0.37,0.98c0,0.04,0.01,0.07,0.04,0.07c0.04,0,0.11-0.02,0.2-0.07
					l0.06,0.11c-0.14,0.08-0.29,0.18-0.42,0.16c-0.08-0.01-0.13-0.07-0.12-0.2C97.16,119.07,97.19,118.95,97.23,118.85z"/>
				<path class="st2" d="M97.85,119.36c0.11-0.25,0.36-0.84,0.37-0.98c0-0.04-0.01-0.07-0.04-0.07c-0.04,0-0.11,0.02-0.2,0.07
					l-0.06-0.11c0.14-0.09,0.27-0.17,0.4-0.16c0.07,0.01,0.12,0.06,0.11,0.19c-0.01,0.07-0.06,0.23-0.1,0.35l0.03,0.01
					c0.19-0.39,0.37-0.52,0.51-0.51c0.08,0.01,0.09,0.09,0.07,0.29c-0.35-0.02-0.55,0.07-0.86,0.94L97.85,119.36z"/>
				<path class="st2" d="M100.61,118.69c-0.08-0.15-0.18-0.26-0.32-0.27c-0.25-0.02-0.48,0.31-0.5,0.62
					c-0.02,0.2,0.08,0.33,0.23,0.35c0.16,0.01,0.31-0.08,0.44-0.25l0.09,0.07c-0.16,0.24-0.39,0.39-0.66,0.36
					c-0.2-0.02-0.36-0.2-0.34-0.47c0.04-0.41,0.36-0.86,0.84-0.81c0.25,0.02,0.35,0.14,0.34,0.26c-0.01,0.06-0.04,0.13-0.07,0.16
					L100.61,118.69z"/>
				<path class="st2" d="M101.16,118.07c-0.04,0-0.11,0.02-0.2,0.07l-0.06-0.11c0.14-0.08,0.29-0.18,0.42-0.16
					c0.09,0.01,0.15,0.07,0.14,0.2c-0.01,0.11-0.15,0.49-0.25,0.76l0.04,0.02c0.22-0.35,0.44-0.45,0.62-0.44
					c0.16,0.01,0.22,0.1,0.21,0.21c-0.02,0.2-0.29,0.63-0.31,0.82c0,0.04,0.01,0.07,0.04,0.07c0.04,0,0.11-0.02,0.2-0.07l0.06,0.11
					c-0.14,0.09-0.29,0.18-0.42,0.17c-0.1-0.01-0.15-0.07-0.14-0.2c0.02-0.21,0.27-0.61,0.29-0.83c0.01-0.06-0.03-0.09-0.1-0.1
					c-0.15-0.01-0.44,0.11-0.77,1.04l-0.25-0.02c0.15-0.37,0.5-1.27,0.52-1.46C101.21,118.1,101.19,118.08,101.16,118.07z"/>
				<path class="st2" d="M103.24,119.64c0.04,0,0.11-0.02,0.2-0.07l0.06,0.11c-0.14,0.09-0.29,0.18-0.42,0.17
					c-0.08-0.01-0.13-0.07-0.12-0.19c0.01-0.07,0.05-0.21,0.08-0.32l-0.03-0.01c-0.2,0.36-0.46,0.47-0.62,0.46
					c-0.12-0.01-0.21-0.12-0.19-0.32c0.04-0.49,0.54-1.03,1.34-0.9c-0.14,0.36-0.33,0.83-0.35,1
					C103.2,119.61,103.21,119.64,103.24,119.64z M103.27,118.68c-0.48,0.01-0.77,0.36-0.81,0.75c-0.01,0.12,0.02,0.17,0.11,0.18
					C102.69,119.62,102.94,119.53,103.27,118.68z"/>
				<path class="st2" d="M104.01,119.65c0,0.03,0.01,0.06,0.04,0.06c0.04,0,0.11-0.02,0.2-0.07l0.06,0.11
					c-0.14,0.08-0.29,0.18-0.41,0.16c-0.1-0.01-0.16-0.07-0.15-0.2c0.01-0.17,0.27-0.67,0.29-0.84c0-0.04-0.01-0.06-0.04-0.07
					c-0.04,0-0.11,0.02-0.19,0.07l-0.06-0.11c0.14-0.09,0.28-0.17,0.41-0.16c0.09,0.01,0.15,0.07,0.14,0.2
					C104.28,118.99,104.03,119.46,104.01,119.65z M104.16,118.24c0.01-0.12,0.09-0.17,0.21-0.16c0.08,0.01,0.13,0.05,0.12,0.14
					c-0.01,0.12-0.09,0.17-0.21,0.16C104.2,118.38,104.15,118.33,104.16,118.24z"/>
				<path class="st2" d="M106.2,119.16c0.01-0.06,0.01-0.22,0.02-0.35c0.17,0,0.22,0.05,0.21,0.22c-0.02,0.19-0.13,0.48-0.29,0.71
					c-0.14,0.2-0.31,0.35-0.47,0.34c-0.11-0.01-0.18-0.18-0.15-0.5c-0.15,0.28-0.32,0.45-0.47,0.44c-0.19-0.02-0.3-0.26-0.29-0.45
					c0.02-0.17,0.14-0.35,0.28-0.52c-0.05-0.08-0.1-0.13-0.17-0.13c-0.08-0.01-0.17,0.07-0.27,0.27l-0.11-0.05
					c0.11-0.27,0.26-0.48,0.4-0.46c0.09,0.01,0.17,0.1,0.23,0.21c0.04-0.09,0.07-0.15,0.09-0.18l0.12,0.05
					c-0.21,0.35-0.33,0.58-0.34,0.76c-0.01,0.17,0.05,0.31,0.14,0.32c0.12,0.01,0.27-0.16,0.4-0.4c0-0.2,0.04-0.46,0.08-0.65
					l0.27,0.02c-0.08,0.29-0.18,0.46-0.29,0.65c0.04,0.27,0.09,0.43,0.19,0.44C105.92,119.9,106.16,119.56,106.2,119.16z"/>
				<path class="st2" d="M107.49,120.02c0.04,0,0.11-0.02,0.2-0.07l0.06,0.11c-0.14,0.09-0.29,0.18-0.42,0.17
					c-0.08-0.01-0.13-0.07-0.12-0.19c0.01-0.07,0.05-0.21,0.08-0.32l-0.03-0.01c-0.2,0.36-0.46,0.47-0.62,0.46
					c-0.12-0.01-0.21-0.12-0.19-0.32c0.04-0.49,0.54-1.03,1.34-0.9c-0.14,0.36-0.33,0.83-0.35,1
					C107.44,119.99,107.46,120.02,107.49,120.02z M107.51,119.06c-0.48,0.01-0.77,0.36-0.81,0.75c-0.01,0.12,0.02,0.17,0.11,0.18
					C106.93,120,107.18,119.91,107.51,119.06z"/>
				<path class="st2" d="M108.35,118.72c-0.04,0-0.11,0.02-0.2,0.07l-0.06-0.11c0.14-0.08,0.29-0.18,0.42-0.16
					c0.09,0.01,0.15,0.07,0.14,0.2c-0.02,0.24-0.42,1.08-0.44,1.31c0,0.04,0.01,0.07,0.04,0.07c0.04,0,0.11-0.02,0.2-0.07l0.06,0.11
					c-0.14,0.09-0.29,0.18-0.42,0.17c-0.1-0.01-0.15-0.07-0.14-0.2c0.02-0.23,0.43-1.08,0.45-1.31
					C108.39,118.74,108.38,118.72,108.35,118.72z"/>
				<path class="st2" d="M109.67,120.22c0.04,0,0.11-0.02,0.2-0.07l0.06,0.11c-0.14,0.09-0.29,0.18-0.42,0.17
					c-0.08-0.01-0.13-0.07-0.12-0.19c0.01-0.07,0.05-0.21,0.08-0.32l-0.03-0.01c-0.2,0.36-0.46,0.47-0.62,0.46
					c-0.12-0.01-0.21-0.12-0.19-0.32c0.04-0.49,0.54-1.03,1.34-0.9c-0.14,0.36-0.33,0.83-0.35,1
					C109.62,120.19,109.64,120.22,109.67,120.22z M109.69,119.26c-0.48,0.01-0.77,0.36-0.81,0.75c-0.01,0.12,0.02,0.17,0.11,0.18
					C109.12,120.19,109.37,120.11,109.69,119.26z"/>
			</g>
		</g>
	</g>
</g>
</svg>
