<?xml version="1.0" encoding="utf-8"?>
<!-- Generator: Adobe Illustrator 26.2.1, SVG Export Plug-In . SVG Version: 6.00 Build 0)  -->
<svg version="1.1" id="Layer_1" xmlns="http://www.w3.org/2000/svg" xmlns:xlink="http://www.w3.org/1999/xlink" x="0px" y="0px"
	 viewBox="0 0 200 200" style="enable-background:new 0 0 200 200;" xml:space="preserve">
<style type="text/css">
	.st0{fill:#001E61;}
	.st1{opacity:0.51;fill:#001E61;enable-background:new    ;}
	.st2{fill:#C2902C;}
</style>
<g>
	<circle class="st0" cx="100" cy="100" r="97.5"/>
	<ellipse class="st1" cx="75.96" cy="158.13" rx="33.42" ry="13.74"/>
	<g>
		<g>
			<path class="st2" d="M114.05,122.73c0-13.44-16.72-24.37-37.28-24.37s-37.28,10.93-37.28,24.37c0,0.38,0,1.13,0,1.13
				c0,16.18,16.49,34.27,38.55,34.27c21.53,0,36-17.72,36-34.27C114.05,123.86,114.05,123.11,114.05,122.73z"/>
			<path class="st0" d="M76.77,99.9c19.71,0,35.74,10.24,35.74,22.84s-16.04,22.84-35.74,22.84c-19.71,0-35.75-10.24-35.75-22.84
				S57.06,99.9,76.77,99.9z"/>
			<path class="st0" d="M78.05,156.6c-17.33,0-31.06-11.56-35.5-24.22c5.73,8.65,18.9,14.72,34.22,14.72
				c15.67,0,29.09-6.36,34.59-15.34C107.68,144.83,95.23,156.6,78.05,156.6z"/>
			<path class="st2" d="M103.72,107.25c-2.57-2.4-3.6-6.06-3.03-9.52c0.47-3.77,4.46-5.41,7.64-6.5c2.85-1.07,5.96-1.54,7.13-4.64
				c1.27-2.77,2.14-6.12,4.26-8.84l11.56-15.43c2.79-3.75,5.81-7.95,8.45-11.83c1.23-1.5,3.61-2.24,4.85-2.37l12.75-2.83
				c1.53-0.2,3.11-0.08,4.62,0.61c1.38,0.49,2.34,2.13,3.04,3.39l2.04,3.43c0.66,1.27,2.03,2.77,1.62,4.38
				c-0.39,1.94-2.07,2.98-3.17,3.57l-3.46,2l-6.91,3.99l-27.64,15.97c-4.48,2.92-12.18,0.99-15.93,5.54
				c-0.99,1.36-1.42,3.25-2.15,5.17c-2.76,8.89-13.96,8.34-21.39,7.42l0.07-1c6.9-0.22,16.76,0.89,19.41-7.15
				c0.68-1.72,1.08-3.77,2.38-5.64c3.77-5.18,11.69-3.41,16.55-6.17c5.07-2.95,29.97-17.42,34.5-20.05l3.45-2.01
				c1.09-0.62,2.27-1.3,2.07-2.56c-0.69-1.43-2.58-4.31-3.38-5.74l-1-1.67c-0.93-1.23-2.8-1.45-4.36-1.3
				c0.59-0.15-12.8,2.82-12.65,2.76c-1.4,0.16-2.88,0.72-3.68,1.65l-2.68,3.88c-3.75,5.3-13.29,17.83-17.33,23.18
				c-2.51,2.97-2.94,7.52-5.53,10.76c-3.08,2.99-7.63,3.04-11.11,5.22c-3.8,2.34-2.73,8.45-0.31,11.58
				C104.41,106.53,103.72,107.25,103.72,107.25L103.72,107.25z"/>
			<path class="st2" d="M76.83,142.17c-15.85,0-28.35-6.01-31.09-14.95c-0.1-0.15-0.11-0.17-0.11-0.29
				c-0.34-1.05-0.48-2.06-0.48-3.36c0-11.4,14.16-20.88,31.56-21.11c17.46,0,31.68,9.36,31.68,20.88c0,0.82-0.12,1.67-0.24,2.48v0.4
				c-0.34,1.88-1.25,3.78-2.71,5.6c-0.13,0.25-0.23,0.35-0.34,0.46c-0.92,1.18-2.08,2.17-3.1,2.98c-0.12,0.18-0.16,0.21-0.22,0.25
				l-0.16,0.12c-1.37,0.95-2.66,1.73-3.9,2.35l-0.19,0.11c-0.21,0.06-0.4,0.16-0.59,0.25c-0.17,0.08-0.34,0.17-0.51,0.23
				C90.87,140.93,84.14,142.17,76.83,142.17z M62.49,129.52c-0.38,0.38-0.79,0.82-1.18,1.25c-0.35,0.38-0.69,0.75-0.98,1.03
				l-0.14,0.14l0.1,0.17c0.88,1.55,2.72,4.76,5.07,7.48c3.56,0.88,7.34,1.29,11.35,1.29c3.98,0,8.04-0.45,12.06-1.33
				c1.75-2.05,3.46-4.6,5.09-7.44l0.08-0.14l-0.09-0.13c-0.38-0.57-1.02-1.18-1.64-1.78l-0.83-0.81l-0.14,0.36
				c-1.39,3.59-3.25,6.47-5.7,8.79c-0.13,0.13-0.3,0.2-0.48,0.2c-0.19,0-0.36-0.07-0.48-0.2c-0.26-0.26-0.26-0.7,0-0.96
				c2.38-2.25,4.3-5.23,5.7-8.85l0.07-0.19l-0.17-0.11c-1.82-1.21-3.38-1.58-3.45-1.6c-0.36-0.09-0.61-0.45-0.53-0.77
				s0.36-0.55,0.65-0.55c0.15,0.02,1.68,0.38,3.66,1.55l0.28,0.16l0.09-0.31c0.52-1.7,0.85-2.8,0.97-3.39l0.03-0.17l-0.14-0.09
				c-1.19-0.79-2.5-1.43-3.64-1.94c-0.18-0.05-0.3-0.15-0.37-0.3c-0.08-0.18-0.08-0.38,0.01-0.56c0.07-0.27,0.31-0.43,0.57-0.43
				c0.1,0,0.2,0.02,0.29,0.07c0.95,0.38,1.73,0.82,2.55,1.29l0.99,0.55l0.06-0.35c0.24-1.33,0.48-2.89,0.6-3.85l0.02-0.16
				l-0.14-0.08c-1.37-0.84-3.03-1.57-5.21-2.31c-0.22-0.06-0.33-0.23-0.38-0.33c-0.08-0.18-0.1-0.39-0.06-0.57
				c0.07-0.29,0.41-0.44,0.7-0.44c0.07,0,0.13,0.01,0.19,0.02c1.59,0.57,3.28,1.29,4.75,2.02l0.37,0.18v-0.41
				c0-0.45,0.04-0.93,0.07-1.38c0.03-0.39,0.05-0.74,0.05-1.02v-0.16l-0.14-0.07c-4.68-2.28-10.02-3.39-16.32-3.39
				c-5.76,0-11.05,1.06-15.71,3.14l-0.19,0.08l0.04,0.2c0.06,0.32,0.09,0.77,0.12,1.27c0.03,0.44,0.06,0.91,0.11,1.35l0.04,0.37
				l0.33-0.17c1.48-0.8,2.98-1.39,4.77-2.02c0.04-0.01,0.1-0.02,0.17-0.02c0.29,0,0.63,0.15,0.7,0.44c0.09,0.34-0.08,0.81-0.42,0.89
				c-1.65,0.55-3.39,1.32-5.22,2.3l-0.15,0.08l0.02,0.17c0.12,0.96,0.36,2.53,0.6,3.85l0.06,0.35l0.31-0.17
				c1.09-0.6,2.17-1.2,3.22-1.67c0.1-0.05,0.19-0.07,0.28-0.07c0.24,0,0.46,0.16,0.59,0.43c0.2,0.4-0.07,0.71-0.37,0.86
				c-1.12,0.51-2.44,1.14-3.63,1.94l-0.14,0.09l0.03,0.16c0.11,0.66,0.42,1.74,0.97,3.4l0.1,0.3l0.27-0.16
				c1.98-1.16,3.51-1.53,3.53-1.53c0.01,0,0.03,0,0.04,0c0.4,0,0.66,0.23,0.74,0.54c0.04,0.16,0,0.32-0.1,0.47s-0.26,0.26-0.44,0.3
				c-0.06,0.01-1.62,0.38-3.44,1.6l-0.17,0.11l0.08,0.19c1.45,3.63,3.43,6.7,5.7,8.85c0.12,0.12,0.19,0.29,0.19,0.48
				c0,0.18-0.07,0.35-0.2,0.48c-0.15,0.06-0.36,0.17-0.54,0.17c-0.1,0-0.16-0.03-0.3-0.11l-0.19-0.1c-2.27-2.29-4.14-5.17-5.64-8.75
				l-0.15-0.35L62.49,129.52z M59.22,133.63c-0.58,0.82-1.23,2.18-1.37,3.36l-0.02,0.18l0.16,0.08c1.45,0.73,3.05,1.22,4.59,1.69
				l0.74,0.23l-0.46-0.62c-1.44-1.92-2.51-3.71-3.23-4.9l-0.2-0.33L59.22,133.63z M94.02,134.76c-0.65,1.02-1.46,2.28-2.39,3.55
				l-0.43,0.58l0.7-0.19c0.76-0.21,1.49-0.46,2.2-0.7c0.52-0.18,1.02-0.35,1.53-0.5c0.24-0.19,0.33-0.32,0.43-0.45
				c0.08-0.11,0.17-0.22,0.28-0.33l0.1-0.1l-0.03-0.14c-0.27-1.23-0.82-2.23-1.24-2.85l-0.21-0.32
				C94.96,133.32,94.29,134.33,94.02,134.76z M54.03,133.08c-0.19,0.47-0.5,1.31-0.5,1.77v0.14l0.11,0.07
				c0.72,0.48,1.57,0.97,2.42,1.45l0.38,0.22v-0.53l-0.06-0.19c-0.49-0.57-0.93-1.33-1.36-2.06c-0.18-0.31-0.36-0.62-0.54-0.91
				l-0.26-0.42L54.03,133.08z M99.76,133.32c-0.19,0.47-0.52,1.19-1.06,1.99l-0.53,0.79l0.85-0.42c0.48-0.24,0.98-0.49,1.48-0.86
				l0.1-0.08v-0.13c0-0.31-0.14-0.66-0.26-0.97l-0.11-0.31l-0.22-0.66L99.76,133.32z M97.01,128.51c-0.42,0.95-0.84,2.08-1.19,3
				L95.64,132l0.19,0.31c0.37,0.61,0.88,1.46,1.3,2.41l0.22,0.49l0.24-0.48c0.59-1.19,1.21-2.42,1.45-3.15
				c0.09-0.06,0.13-0.12,0.13-0.32c-0.23-0.45-0.53-0.92-0.86-1.43c-0.28-0.43-1.11-1.74-1.11-1.74L97.01,128.51z M56.83,128.33
				c-0.59,0.71-1.2,1.67-1.71,2.69l-0.05,0.1l0.05,0.11c0.29,0.68,0.85,1.67,1.7,3.03l0.24,0.38l0.2-0.4
				c0.49-0.98,0.96-1.79,1.3-2.24l0.09-0.11l-0.14-0.35c-0.45-1.12-0.89-2.23-1.23-3.13L57.13,128L56.83,128.33z M51.32,127.83
				c-0.49,1.09-1.15,2.59-1.27,4.01l-0.01,0.12l0.08,0.2l2,2l0.11-0.43c0.28-1.11,0.88-2.16,1.05-2.45l0.07-0.11l-0.42-0.95
				c-0.33-0.76-0.73-1.67-1.07-2.52l-0.22-0.56L51.32,127.83z M102.28,127.69c-0.47,1.28-1.06,2.6-1.43,3.33l-0.06,0.11l0.21,0.42
				c0.25,0.49,0.6,1.15,0.79,1.81l0.11,0.37l0.3-0.25c0.73-0.61,1.35-1.23,1.84-1.84l0.07-0.09l-0.02-0.11
				c-0.24-1.47-0.84-2.8-1.34-3.79l-0.26-0.53L102.28,127.69z M49.97,121.51c-1.26,1.83-2.15,3.52-2.79,5.34
				c0.25,1.29,0.88,2.4,1.47,3.34l0.32,0.51l0.14-0.59c0.42-1.79,1.37-3.55,2.12-4.59l0.08-0.11l-0.05-0.13
				c-0.48-1.19-0.71-2.65-0.82-3.66l-0.08-0.67L49.97,121.51z M93.03,124.36c-0.21,0.95-0.53,2.07-0.95,3.34l-0.05,0.15l0.11,0.11
				c0.29,0.29,0.59,0.57,0.87,0.84c0.52,0.5,1.01,0.96,1.4,1.42l0.26,0.31l0.16-0.37c0.27-0.61,0.54-1.34,0.8-2.01
				c0.19-0.51,0.37-0.99,0.53-1.35l0.07-0.16l-0.12-0.12c-0.53-0.53-1.55-1.41-2.66-2.3l-0.32-0.25L93.03,124.36z M60.83,124.22
				c-1.11,0.89-2.13,1.77-2.66,2.3l-0.11,0.12l0.21,0.56c0.34,0.91,0.75,2.03,1.17,2.96l0.14,0.31l0.26-0.21
				c0.73-0.61,1.58-1.45,2.31-2.31l0.09-0.11l-0.04-0.14c-0.43-1.29-0.81-2.77-0.95-3.34l-0.1-0.38L60.83,124.22z M103.83,121.98
				c-0.14,1.27-0.42,2.38-0.82,3.29l-0.06,0.13l0.08,0.12c0.5,0.75,1.43,2.28,2.01,4.02l0.18,0.55l0.28-0.5
				c0.71-1.29,1.13-2.35,1.35-3.43c-0.87-1.85-1.7-3.2-2.57-4.29l-0.38-0.48L103.83,121.98z M98.67,122.67
				c-0.18,0.66-0.36,1.38-0.53,2.04c-0.16,0.66-0.31,1.26-0.43,1.67l-0.03,0.12l0.08,0.1c0.72,0.96,1.44,1.92,1.9,2.74l0.25,0.43
				l0.2-0.45c0.35-0.77,1.19-2.66,1.34-3.42c-0.4-0.91-1.38-2.14-2.33-3.33l-0.31-0.39L98.67,122.67z M55.15,122.46
				c-0.94,1.17-1.92,2.53-2.3,3.15c0.09,0.92,0.68,2.22,1.31,3.6l0.2,0.44l0.25-0.41c0.63-1.05,1.36-2.02,1.76-2.54l0.22-0.29
				l-0.03-0.12c-0.24-0.96-0.6-2.41-0.96-3.73l-0.13-0.48L55.15,122.46z M59.75,118.33c-0.7,0.56-1.4,1.08-1.98,1.51
				c-0.42,0.31-0.77,0.57-1.02,0.77l-0.13,0.1l0.04,0.16c0.24,0.96,0.6,2.4,0.96,3.96l0.1,0.44l0.32-0.32c0.6-0.6,1.31-1.19,2-1.76
				l0.86-0.73l-0.03-0.15c-0.12-0.6-0.24-1.26-0.36-1.92c-0.12-0.66-0.24-1.32-0.36-1.93l-0.08-0.41L59.75,118.33z M94.23,118.48
				c-0.1,0.51-0.21,1.09-0.31,1.67c-0.14,0.77-0.27,1.55-0.41,2.16l-0.03,0.15l3.19,2.77l0.09-0.41c0.36-1.56,0.72-3,0.96-3.96
				l0.03-0.14l-0.1-0.1c-0.61-0.62-1.84-1.47-3.03-2.3l-0.32-0.22L94.23,118.48z M54.34,116.78c-0.86,0.74-1.73,1.61-2.65,2.54
				l-0.07,0.07v0.1c0,0.5,0.12,2.18,0.48,4.01l0.11,0.54l0.34-0.44c0.37-0.47,0.77-0.96,1.17-1.43c0.52-0.62,1.02-1.22,1.36-1.7
				c0.05-0.82-0.1-1.94-0.22-2.85l-0.15-1.16L54.34,116.78z M99.39,118.34c-0.08,0.71-0.16,1.42-0.24,1.82l-0.02,0.12l0.08,0.09
				c0.32,0.38,0.7,0.86,1.09,1.35c0.47,0.61,0.97,1.24,1.44,1.77l0.32,0.36l0.12-0.47c0.36-1.44,0.49-2.77,0.49-3.54v-0.1
				l-0.07-0.07c-0.92-0.93-1.8-1.8-2.65-2.53l-0.36-0.31L99.39,118.34z M76.95,104.23c-16.4,0-30.26,8.91-30.26,19.46l0.48,0.12
				c3.94-7.59,10.1-10.96,12.57-12.06l0.16-0.07c4.86-2.37,10.6-3.57,17.05-3.57c6.65,0,12.51,1.24,17.41,3.69
				c1.82,0.85,7.91,4.06,12.26,11.07l0.47-0.15c-0.61-10.19-13.83-18.49-29.48-18.49L76.95,104.23z M59.33,113.38
				c-1.08,0.46-2.16,1.14-3.3,2.08l-0.22,0.18l0.2,0.2c0.04,0.04,0.05,0.07,0.05,0.18c0,0.04,0.02,0.22,0.07,0.49
				c0.08,0.52,0.21,1.41,0.29,2.3l0.04,0.49l0.37-0.33c0.86-0.75,1.89-1.49,2.72-2.08l0.36-0.26v-0.13l-0.05-0.55
				c-0.1-0.92-0.19-1.71-0.19-2.33v-0.38L59.33,113.38z M94.71,113.93c-0.06,0.38-0.09,0.79-0.13,1.22
				c-0.03,0.39-0.06,0.79-0.11,1.19v0.13l0.1,0.23c0.51,0.36,1.14,0.85,1.78,1.34c0.42,0.32,1.58,1.2,1.58,1.2l0.04-0.45
				c0.07-0.67,0.17-1.37,0.25-1.91c0.07-0.44,0.11-0.77,0.11-0.88v-0.13l-0.1-0.08c-1.43-1.04-2.46-1.72-3.16-2.06l-0.31-0.15
				L94.71,113.93z"/>
		</g>
		<g>
			<path class="st2" d="M42.47,154.68c-0.23,0-0.46-0.03-0.69-0.08c-1.31-0.32-2.5-1.62-3.17-3.48c-1.02-2.81-1.39-4.46,2.2-7.6
				l11.02-8.96l0.38,0.2c0.03,0.01,2.65,1.39,4.76,2.2l1.06,0.4l-11.56,9.46c-1.32,1.02-1.87,1.45-1.71,2.91
				c0.01,0.13,0.14,0.51,0.24,0.81c0.4,1.18,0.77,2.3,0.13,2.89C44.26,154.27,43.36,154.68,42.47,154.68z"/>
			<path class="st0" d="M51.99,136.12l-10.33,8.4c-3.08,2.68-2.67,3.79-1.87,6c0.46,1.27,1.27,2.55,2.31,2.81
				c0.66,0.16,1.39-0.12,2.17-0.85c-0.02-0.14-0.34-1.07-0.49-1.51c-0.16-0.46-0.28-0.82-0.31-1.09c-0.24-2.19,0.84-3.03,2.2-4.09
				l0.33-0.25l9.48-7.77C54.06,137.16,52.65,136.46,51.99,136.12z"/>
		</g>
	</g>
</g>
</svg>
