<svg xmlns="http://www.w3.org/2000/svg" xmlns:xlink="http://www.w3.org/1999/xlink" id="Layer_1" data-name="Layer 1" viewBox="0 0 841.89 487.57"><defs><style>.cls-1{fill:none;}.cls-2{clip-path:url(#clip-path);}.cls-3,.cls-4{fill:#1d5d3f;}.cls-3{fill-rule:evenodd;}</style><clipPath id="clip-path"><rect class="cls-1" width="841.89" height="487.57"></rect></clipPath></defs><g class="cls-2"><path class="cls-3" d="M783.09,6.86H58.8a54.18,54.18,0,0,0-54,54V375.74a54.2,54.2,0,0,0,54,54.05H783.09a54.22,54.22,0,0,0,54-54.05V60.86a54.21,54.21,0,0,0-54-54M814,375.74a31,31,0,0,1-30.86,30.87H58.8a31,31,0,0,1-30.87-30.87V60.86A31,31,0,0,1,58.8,30H783.09A31,31,0,0,1,814,60.86Z"></path><path class="cls-3" d="M437.16,160l-.43-11a46.14,46.14,0,0,0-.62-7.7,37.2,37.2,0,0,0-2.36-8,15.13,15.13,0,0,0-5.06-6.64,13.16,13.16,0,0,0-8.06-2.52c-5.23,0-9.23,1.34-12,4.06s-4.12,6.47-4.12,11.35c0,10.28,4.51,18.46,13.55,24.46l46.85,31.23a156.44,156.44,0,0,1,24.15,19.87q10.2,10.38,15.37,19a83.33,83.33,0,0,1,8.28,18.38,87.11,87.11,0,0,1,3.69,16,131.06,131.06,0,0,1,.64,13.86q0,41.42-25.73,62.72t-69.87,21.29q-94.08,0-94.11-87.11l.43-22.94h75.88l.43,33.94a31.14,31.14,0,0,0,1.81,11.47,12.36,12.36,0,0,0,5,6.43,18.81,18.81,0,0,0,5.81,2.52,28.13,28.13,0,0,0,6.05.59c10.17,0,15.24-7.54,15.24-22.54,0-3.85-.07-6.68-.19-8.41a49.15,49.15,0,0,0-1.61-7.7,24.48,24.48,0,0,0-4.45-9,99.8,99.8,0,0,0-8.91-9.42A121.05,121.05,0,0,0,408.1,242.4l-40.46-28.32a137.83,137.83,0,0,1-21.32-18,57,57,0,0,1-11.86-18.5A79.72,79.72,0,0,1,329.71,160a154,154,0,0,1-1.07-20.15q0-22.15,14-38.34a81.73,81.73,0,0,1,34.88-23.72,133.24,133.24,0,0,1,45.24-7.5q44.73,0,68.58,20.62t23.84,63.59V160Z"></path><path class="cls-3" d="M643.6,160l-.43-11a46.15,46.15,0,0,0-.63-7.7,37,37,0,0,0-2.31-8,15.3,15.3,0,0,0-5.11-6.64,13,13,0,0,0-8.06-2.52c-5.21,0-9.23,1.34-12,4.06S611,134.62,611,139.5c0,10.28,4.51,18.46,13.54,24.46l46.86,31.23a153.74,153.74,0,0,1,24.16,19.87,110.07,110.07,0,0,1,15.39,19,93.88,93.88,0,0,1,11.93,34.41,130.3,130.3,0,0,1,.68,13.86q0,41.42-25.77,62.72t-69.83,21.29q-94.14,0-94.1-87.11l.39-22.94H610.1l.43,33.94a32,32,0,0,0,1.8,11.47,12.56,12.56,0,0,0,5,6.43,19.33,19.33,0,0,0,5.81,2.52,28.43,28.43,0,0,0,6.06.59c10.17,0,15.28-7.54,15.28-22.54,0-3.85-.08-6.68-.24-8.41a46.89,46.89,0,0,0-1.57-7.7,24.94,24.94,0,0,0-4.44-9,108.37,108.37,0,0,0-8.91-9.42,121.84,121.84,0,0,0-14.73-11.78l-40.49-28.32a134.8,134.8,0,0,1-21.3-18,56.29,56.29,0,0,1-11.89-18.5A79.8,79.8,0,0,1,536.14,160a156.29,156.29,0,0,1-1-20.15q0-22.15,14-38.34a82,82,0,0,1,34.88-23.72,133.3,133.3,0,0,1,45.25-7.5q44.71,0,68.57,20.62t23.84,63.59V160Z"></path><path class="cls-3" d="M118.36,268.05V179q0-58.54,22.27-83.61t74.83-25.06Q256.35,70.33,282,90t25.65,54.12v49.33H230.3V147.78c0-7.19-1.18-12.92-3.5-17.24s-6.83-6.45-13.46-6.45q-18.69,0-18.66,24.09v140.1a32.07,32.07,0,0,0,4.24,16.25c2.82,5,7.5,7.42,14,7.42a16,16,0,0,0,5.41-.94,22.32,22.32,0,0,0,5.7-3.3,15.45,15.45,0,0,0,4.9-7.38,38,38,0,0,0,1.77-12.46l-.39-43.35h77.34V289.8q0,35.64-25.34,56.09t-65.79,20.42a160.48,160.48,0,0,1-33.7-3.26q-15.08-3.3-25.14-8.59a63.67,63.67,0,0,1-17.47-13.4,73.81,73.81,0,0,1-11.54-16.18,80.49,80.49,0,0,1-6.57-18.58,127,127,0,0,1-3.1-19.09c-.39-5.73-.63-12.1-.63-19.16"></path><path class="cls-4" d="M53.77,469l0,.15q-.26,6.56-3.87,10t-10.49,3.45a15.35,15.35,0,0,1-11.23-4.24,14.76,14.76,0,0,1-4.32-11V459.6a15.11,15.11,0,0,1,4.16-11,14.45,14.45,0,0,1,10.8-4.25q7.05,0,10.79,3.55T53.87,458l0,.15H45.41a9.15,9.15,0,0,0-1.62-5.39Q42.35,451,38.87,451a5.39,5.39,0,0,0-4.63,2.37,10.48,10.48,0,0,0-1.68,6.2v7.82a10,10,0,0,0,1.83,6.24A6.07,6.07,0,0,0,39.46,476c2.07,0,3.55-.55,4.42-1.66A9.34,9.34,0,0,0,45.36,469Z"></path><path class="cls-4" d="M86,474.86H74.28l-2.1,7.23H63.49l12-37.22h9.28l12,37.22H88.13Zm-9.82-6.65h7.9L80.21,454.9h-.16Z"></path><path class="cls-4" d="M115.92,469.34v12.75h-8.66V444.87h15.11q6.62,0,10.5,3.39a12,12,0,0,1,0,17.72q-3.88,3.36-10.5,3.36Zm0-6.65h6.45a5.63,5.63,0,0,0,4.28-1.54,5.54,5.54,0,0,0,1.47-4,5.72,5.72,0,0,0-1.47-4.06,5.55,5.55,0,0,0-4.28-1.59h-6.45Z"></path><rect class="cls-4" x="150" y="444.88" width="8.62" height="37.22"></rect><polygon class="cls-4" points="198.06 451.52 188.25 451.52 188.25 482.09 179.58 482.09 179.58 451.52 169.84 451.52 169.84 444.88 198.06 444.88 198.06 451.52"></polygon><path class="cls-4" d="M226.37,474.86H214.63l-2.09,7.23h-8.7l12-37.22h9.28l12,37.22h-8.69Zm-9.82-6.65h7.9l-3.89-13.31h-.15Z"></path><polygon class="cls-4" points="256.28 475.45 272.31 475.45 272.31 482.09 247.61 482.09 247.61 444.87 256.28 444.87 256.28 475.45"></polygon><path class="cls-4" d="M324.36,472.23a3.75,3.75,0,0,0-1.3-3.05,16.82,16.82,0,0,0-4.68-2.27q-7.06-2.22-10.46-4.77a8.62,8.62,0,0,1-3.4-7.35,8.87,8.87,0,0,1,4.05-7.56,17.28,17.28,0,0,1,10.29-2.89A15.65,15.65,0,0,1,329,447.52a9.69,9.69,0,0,1,3.82,8.19l-.05.16h-8.38a4.72,4.72,0,0,0-1.51-3.62,5.92,5.92,0,0,0-4.17-1.39,6.5,6.5,0,0,0-4.09,1.15,3.45,3.45,0,0,0-1.48,2.83,3,3,0,0,0,1.49,2.62,30.06,30.06,0,0,0,5.61,2.47q6.35,1.89,9.55,4.65a9.49,9.49,0,0,1,3.21,7.6,9,9,0,0,1-3.82,7.68q-3.82,2.77-10.14,2.77a18.87,18.87,0,0,1-11-3.18,10.14,10.14,0,0,1-4.5-9.17l.05-.15H312q0,3.22,1.74,4.6a8.35,8.35,0,0,0,5.26,1.38,6.27,6.27,0,0,0,4-1.07,3.45,3.45,0,0,0,1.32-2.81"></path><polygon class="cls-4" points="376.51 482.09 367.9 482.09 367.9 467.11 354.12 467.11 354.12 482.09 345.45 482.09 345.45 444.88 354.12 444.88 354.12 460.47 367.9 460.47 367.9 444.88 376.51 444.88 376.51 482.09"></polygon><rect class="cls-4" x="390.75" y="444.88" width="8.61" height="37.22"></rect><path class="cls-4" d="M422.25,469.34v12.75h-8.66V444.87h15.1q6.63,0,10.51,3.39a12,12,0,0,1,0,17.72q-3.88,3.36-10.51,3.36Zm0-6.65h6.44a5.66,5.66,0,0,0,4.29-1.54,5.54,5.54,0,0,0,1.46-4,5.72,5.72,0,0,0-1.46-4.06,5.57,5.57,0,0,0-4.29-1.59h-6.44Z"></path><path class="cls-4" d="M496.34,472.23a3.73,3.73,0,0,0-1.3-3.05,16.82,16.82,0,0,0-4.68-2.27q-7-2.22-10.46-4.77a8.62,8.62,0,0,1-3.4-7.35,8.87,8.87,0,0,1,4.05-7.56,17.32,17.32,0,0,1,10.3-2.89A15.64,15.64,0,0,1,501,447.52a9.69,9.69,0,0,1,3.82,8.19l-.05.16h-8.38a4.72,4.72,0,0,0-1.51-3.62,5.92,5.92,0,0,0-4.17-1.39A6.5,6.5,0,0,0,486.6,452a3.45,3.45,0,0,0-1.48,2.83,3,3,0,0,0,1.49,2.62,30.06,30.06,0,0,0,5.61,2.47q6.34,1.89,9.55,4.65a9.49,9.49,0,0,1,3.21,7.6,9,9,0,0,1-3.82,7.68q-3.82,2.77-10.14,2.77a18.87,18.87,0,0,1-11-3.18,10.14,10.14,0,0,1-4.5-9.17l.05-.15H484q0,3.22,1.74,4.6a8.37,8.37,0,0,0,5.26,1.38,6.27,6.27,0,0,0,4-1.07,3.45,3.45,0,0,0,1.32-2.81"></path><path class="cls-4" d="M548.21,466.83a15.53,15.53,0,0,1-4.36,11.34,15.21,15.21,0,0,1-11.39,4.46,15.18,15.18,0,0,1-15.87-15.8v-6.69A15.53,15.53,0,0,1,521,448.81a16.82,16.82,0,0,1,22.84,0,15.5,15.5,0,0,1,4.4,11.33Zm-8.61-6.75a10.8,10.8,0,0,0-1.88-6.54,6.84,6.84,0,0,0-10.66,0,10.81,10.81,0,0,0-1.86,6.55v6.75a10.87,10.87,0,0,0,1.88,6.6,6.29,6.29,0,0,0,5.38,2.55,6.15,6.15,0,0,0,5.27-2.55,10.93,10.93,0,0,0,1.87-6.6Z"></path><polygon class="cls-4" points="569.69 475.45 585.72 475.45 585.72 482.09 561.02 482.09 561.02 444.87 569.69 444.87 569.69 475.45"></polygon><path class="cls-4" d="M627.11,444.87v24.39q0,6.36-4.24,9.87t-11.08,3.5q-6.93,0-11.17-3.5t-4.24-9.87V444.87H605v24.39a6.63,6.63,0,0,0,1.77,5.08,7,7,0,0,0,5,1.64,6.88,6.88,0,0,0,4.92-1.63q1.72-1.64,1.73-5.09V444.87Z"></path><polygon class="cls-4" points="666.55 451.52 656.74 451.52 656.74 482.09 648.07 482.09 648.07 451.52 638.33 451.52 638.33 444.88 666.55 444.88 666.55 451.52"></polygon><rect class="cls-4" x="678.44" y="444.88" width="8.61" height="37.22"></rect><path class="cls-4" d="M732.05,466.83a15.53,15.53,0,0,1-4.36,11.34,15.21,15.21,0,0,1-11.38,4.46,15.18,15.18,0,0,1-15.88-15.8v-6.69a15.49,15.49,0,0,1,4.39-11.33,16.82,16.82,0,0,1,22.84,0,15.49,15.49,0,0,1,4.39,11.33Zm-8.61-6.75a10.8,10.8,0,0,0-1.88-6.54,6.84,6.84,0,0,0-10.66,0,10.81,10.81,0,0,0-1.85,6.55v6.75a10.86,10.86,0,0,0,1.87,6.6,6.3,6.3,0,0,0,5.39,2.55,6.14,6.14,0,0,0,5.26-2.55,10.86,10.86,0,0,0,1.87-6.6Z"></path><polygon class="cls-4" points="775.92 482.09 767.31 482.09 753.68 458.37 753.53 458.42 753.53 482.09 744.86 482.09 744.86 444.88 753.53 444.88 767.15 468.6 767.31 468.55 767.31 444.88 775.92 444.88 775.92 482.09"></polygon><path class="cls-4" d="M809.34,472.23a3.73,3.73,0,0,0-1.31-3.05,16.72,16.72,0,0,0-4.67-2.27q-7.07-2.22-10.46-4.77a8.6,8.6,0,0,1-3.4-7.35,8.87,8.87,0,0,1,4-7.56,17.26,17.26,0,0,1,10.29-2.89A15.67,15.67,0,0,1,814,447.52a9.72,9.72,0,0,1,3.82,8.19l0,.16h-8.39a4.68,4.68,0,0,0-1.51-3.62,5.88,5.88,0,0,0-4.16-1.39A6.5,6.5,0,0,0,799.6,452a3.45,3.45,0,0,0-1.48,2.83,3,3,0,0,0,1.49,2.62,30.06,30.06,0,0,0,5.61,2.47q6.35,1.89,9.55,4.65a9.49,9.49,0,0,1,3.21,7.6,9,9,0,0,1-3.82,7.68q-3.82,2.77-10.14,2.77a18.9,18.9,0,0,1-11-3.18,10.18,10.18,0,0,1-4.5-9.17l.06-.15H797c0,2.15.57,3.68,1.73,4.6a8.4,8.4,0,0,0,5.27,1.38,6.28,6.28,0,0,0,4-1.07,3.45,3.45,0,0,0,1.32-2.81"></path></g></svg>